<?xml version="1.0" encoding="UTF-8"?>
<svg xmlns="http://www.w3.org/2000/svg" xmlns:xlink="http://www.w3.org/1999/xlink" version="1.2" >
<font id="Helvetica Neue Bold">
<font-face  font-family="Helvetica Neue" units-per-em="1000" ascent="975" descent="-218" font-style="normal" font-weight="700" font-stretch="normal" cap-height="750" x-height="500" underline-position="-100" underline-thickness="50" />
<missing-glyph  horiz-adv-x="500" d="L391 607 L111 607 L111 95 L391 95 Z L482 698 L482 3 L17 3 L17 698 Z " />
<glyph glyph-name="null" />
<glyph glyph-name="uni000A" unicode="&#xa;" />
<glyph glyph-name="space" unicode="&#x20;" horiz-adv-x="278" />
<glyph glyph-name="controlHT" unicode="&#x8;" />
<glyph glyph-name="CR" unicode="&#x9;" horiz-adv-x="278" />
<glyph glyph-name="controlGS" unicode="&#xd;" horiz-adv-x="278" />
<glyph glyph-name="controlBS" unicode="&#x1d;" />
<glyph glyph-name="exclam" unicode="&#x21;" horiz-adv-x="278" d="L61 154 L61 0 L218 0 L218 154 Z L213 522 L213 714 L65 714 L65 522 L103 214 L174 214 Z " />
<glyph glyph-name="quotedbl" unicode="&#x22;" horiz-adv-x="463" d="L85 714 L85 393 L192 393 L192 714 Z L271 714 L271 393 L378 393 L378 714 Z " />
<glyph glyph-name="numbersign" unicode="&#x23;" horiz-adv-x="556" d="L243 412 L339 412 L322 288 L225 288 Z L116 198 L88 0 L185 0 L213 198 L309 198 L282 0 L379 0 L406 198 L493 198 L493 288 L419 288 L436 412 L523 412 L523 502 L449 502 L476 700 L379 700 L352 502 L255 502 L283 700 L186 700 L158 502 L63 502 L63 412 L146 412 L128 288 L33 288 L33 198 Z " />
<glyph glyph-name="dollar" unicode="&#x24;" horiz-adv-x="556" d="L141 232 L0 232 Q10 114 73 53 Q136 -8 248 -16 L248 -101 L307 -101 L307 -16 Q382 -11 430 14 Q478 39 506.5 71 Q535 103 546 136.5 Q557 170 557 192 Q557 217 553.5 249 Q550 281 531 313 Q512 345 472 374.5 Q432 404 358 424 Q344 428 331.5 431 Q319 434 307 437 L307 614 Q341 614 365 586 Q389 558 390 518 L532 518 Q529 570 510 608 Q491 646 461 671.5 Q431 697 391.5 711.5 Q352 726 307 731 L307 808 L248 808 L248 731 Q203 728 161 713.5 Q119 699 87 672.5 Q55 646 35.5 607 Q16 568 16 517 Q16 467 33 433.5 Q50 400 78.5 377.5 Q107 355 143 341.5 Q179 328 216 318 Q226 316 234.5 313.5 Q243 311 248 309 L248 100 Q202 109 171 142 Z L307 100 L307 292 Q366 276 390.5 256.5 Q415 237 415 198 Q415 174 405 156.5 Q395 139 379.5 127 Q364 115 344.5 108.5 Z L248 614 L248 451 Q200 462 179 480 Q158 498 158 531 Q158 552 165.5 567.5 Q173 583 186 593.5 Q199 604 215 609 Z " />
<glyph glyph-name="percent" unicode="&#x25;" horiz-adv-x="1000" d="L693 182 Q693 199 694.5 220 Q696 241 703 259 Q710 277 723.5 289 Q737 301 761 301 Q783 301 795.5 287.5 Q808 274 814 255.5 Q820 237 821.5 216.5 Q823 196 823 181 Q823 165 821.5 144.5 Q820 124 813.5 105.5 Q807 87 793.5 74 Q780 61 757 61 Q733 61 720 74 Q707 87 701 105.5 Q695 124 694 145 Z L591 183 Q591 142 599.5 106 Q608 70 627.5 43.5 Q647 17 678.5 2 Q710 -13 756 -13 Q800 -13 832 1.5 Q864 16 884.5 42 Q905 68 915 103 Q925 138 925 179 Q925 220 917 256 Q909 292 889.5 318.5 Q870 345 839 360.5 Q808 376 761 376 Q717 376 685 361 Q653 346 632 320 Q611 294 601 259 Z L668 722 L254 -21 L341 -21 L753 722 Z L177 514 Q177 531 178.5 553 Q180 575 187 594 Q194 613 207.5 626 Q221 639 245 639 Q267 639 279.5 625 Q292 611 298 591 Q304 571 305.5 549.5 Q307 528 307 513 Q307 497 305.5 477.5 Q304 458 297.5 440.5 Q291 423 277.5 411 Q264 399 241 399 Q217 399 204 411 Q191 423 185 440.5 Q179 458 178 478 Z L75 516 Q75 475 83.5 439.5 Q92 404 111.5 378.5 Q131 353 162.5 338.5 Q194 324 240 324 Q284 324 316 338 Q348 352 368.5 377 Q389 402 399 436.5 Q409 471 409 512 Q409 553 401 590 Q393 627 373.5 654.5 Q354 682 323 698 Q292 714 245 714 Q201 714 169 698.5 Q137 683 116 656 Q95 629 85 593 Z " />
<glyph glyph-name="ampersand" unicode="&#x26;" horiz-adv-x="685" d="L464 71 L522 0 L696 0 L551 169 Q581 207 598 252 Q615 297 620 345 L497 345 Q494 323 488 301.5 Q482 280 471 260 L379 373 Q433 402 469.5 445 Q506 488 506 551 Q506 593 490.5 625 Q475 657 448.5 678.5 Q422 700 386.5 711 Q351 722 310 722 Q274 722 240.5 710.5 Q207 699 181 677.5 Q155 656 139.5 626 Q124 596 124 559 Q124 512 143.5 477 Q163 442 192 407 Q161 392 132 372 Q103 352 80.5 326.5 Q58 301 45 269.5 Q32 238 32 200 Q32 149 50 109.5 Q68 70 99 42.5 Q130 15 172.5 1 Q215 -13 263 -13 Q324 -13 372.5 8 Z L267 315 L389 166 Q364 138 335.5 120.5 Q307 103 269 103 Q249 103 230.5 110.5 Q212 118 198 130.5 Q184 143 175.5 160.5 Q167 178 167 197 Q167 219 175.5 237 Q184 255 198 270 Q212 285 230 296 Z L382 559 Q382 520 360.5 498 Q339 476 309 457 Q289 482 271 506 Q253 530 253 564 Q253 592 272 609.5 Q291 627 317 627 Q343 627 362.5 607 Z " />
<glyph glyph-name="quotesingle" unicode="&#x27;" horiz-adv-x="278" d="L86 714 L86 393 L193 393 L193 714 Z " />
<glyph glyph-name="parenleft" unicode="&#x28;" horiz-adv-x="296" d="L303 731 L184 731 Q151 683 126.5 626 Q102 569 85.5 508 Q69 447 60.5 385.5 Q52 324 52 268 Q52 150 86.5 36 Q121 -78 184 -181 L302 -181 Q245 -72 219.5 43 Q194 158 194 278 Q194 396 220 510.5 Z " />
<glyph glyph-name="parenright" unicode="&#x29;" horiz-adv-x="296" d="L-6 -181 L112 -181 Q145 -134 170 -77 Q195 -20 211.5 40.5 Q228 101 236 162.5 Q244 224 244 280 Q244 398 209.5 513 Q175 628 112 731 L-5 731 Q50 622 76 506 Q102 390 102 270 Q102 152 75.5 38.5 Z " />
<glyph glyph-name="asterisk" unicode="&#x2a;" horiz-adv-x="407" d="L242 589 L242 714 L162 714 L162 589 L49 633 L22 556 L138 517 L64 419 L131 370 L201 473 L275 370 L341 419 L267 517 L385 556 L358 633 Z " />
<glyph glyph-name="plus" unicode="&#x2b;" horiz-adv-x="600" d="L354 306 L354 505 L247 505 L247 306 L48 306 L48 199 L247 199 L247 0 L354 0 L354 199 L553 199 L553 306 Z " />
<glyph glyph-name="comma" unicode="&#x2c;" horiz-adv-x="278" d="L61 154 L61 0 L133 0 Q134 -16 129 -31.5 Q124 -47 114 -59.5 Q104 -72 90.5 -81 Q77 -90 62 -93 L62 -165 Q94 -160 122.5 -146.5 Q151 -133 172 -112 Q193 -91 205.5 -62.5 Q218 -34 218 0 L218 154 Z " />
<glyph glyph-name="hyphen" unicode="&#x2d;" horiz-adv-x="407" d="L53 334 L53 212 L354 212 L354 334 Z " />
<glyph glyph-name="period" unicode="&#x2e;" horiz-adv-x="278" d="L60 154 L60 0 L217 0 L217 154 Z " />
<glyph glyph-name="slash" unicode="&#x2f;" horiz-adv-x="371" d="L268 731 L-10 -16 L103 -16 L382 731 Z " />
<glyph glyph-name="zero" unicode="0" horiz-adv-x="556" d="L163 353 Q163 371 163.5 396.5 Q164 422 167 449 Q170 476 177 502.5 Q184 529 196.5 550 Q209 571 228.5 584 Q248 597 277 597 Q306 597 326 584 Q346 571 359 550 Q372 529 378.5 502.5 Q385 476 388.5 449 Q392 422 392.5 396.5 Q393 371 393 353 Q393 323 391 280.5 Q389 238 378.5 198.5 Q368 159 344.5 131 Q321 103 277 103 Q234 103 211 131 Q188 159 177.5 198.5 Q167 238 165 280.5 Z L21 353 Q21 248 41.5 177.5 Q62 107 97 65 Q132 23 178.5 5 Q225 -13 277 -13 Q330 -13 376.5 5 Q423 23 458.5 65 Q494 107 514.5 177.5 Q535 248 535 353 Q535 455 514.5 524.5 Q494 594 458.5 636 Q423 678 376.5 696 Q330 714 277 714 Q225 714 178.5 696 Q132 678 97 636 Q62 594 41.5 524.5 Z " />
<glyph glyph-name="one" unicode="1" horiz-adv-x="556" d="L392 0 L392 700 L279 700 Q273 660 254 633 Q235 606 207.5 589.5 Q180 573 145.5 566.5 Q111 560 74 561 L74 454 L250 454 L250 0 Z " />
<glyph glyph-name="two" unicode="2" horiz-adv-x="556" d="L37 431 L173 431 Q173 459 178.5 487.5 Q184 516 197 539.5 Q210 563 231.5 577.5 Q253 592 284 592 Q330 592 359.5 563.5 Q389 535 389 484 Q389 452 374.5 427 Q360 402 338.5 382 Q317 362 291 345.5 Q265 329 242 313 Q197 282 156.5 252 Q116 222 86 186.5 Q56 151 38.5 106 Q21 61 21 0 L535 0 L535 122 L204 122 Q230 158 264 185 Q298 212 334 235.5 Q370 259 405.5 283 Q441 307 469 336.5 Q497 366 514 404 Q531 442 531 495 Q531 546 511.5 587 Q492 628 459 656 Q426 684 382.5 699 Q339 714 291 714 Q228 714 179.5 692.5 Q131 671 99 632.5 Q67 594 51 542.5 Z " />
<glyph glyph-name="three" unicode="3" horiz-adv-x="556" d="L228 417 L228 317 Q254 317 282.5 315.5 Q311 314 335 304.5 Q359 295 374.5 274 Q390 253 390 213 Q390 162 357 132.5 Q324 103 276 103 Q245 103 222.5 114 Q200 125 185 143.5 Q170 162 162 187.5 Q154 213 153 241 L18 241 Q17 180 35.5 133 Q54 86 88 53.5 Q122 21 170.5 4 Q219 -13 278 -13 Q329 -13 376 2 Q423 17 459 46 Q495 75 516.5 118 Q538 161 538 216 Q538 276 505 319 Q472 362 414 375 L414 377 Q463 391 487.5 430 Q512 469 512 520 Q512 567 491 603 Q470 639 436.5 664 Q403 689 361 701.5 Q319 714 277 714 Q223 714 179 696.5 Q135 679 103.5 647 Q72 615 54.5 570.5 Q37 526 35 472 L170 472 Q169 526 196.5 561.5 Q224 597 278 597 Q317 597 347 573 Q377 549 377 504 Q377 474 362.5 456 Q348 438 325.5 428.5 Q303 419 277 417 Z " />
<glyph glyph-name="four" unicode="4" horiz-adv-x="556" d="L312 522 L312 279 L128 279 L309 522 Z L312 162 L312 0 L447 0 L447 162 L540 162 L540 279 L447 279 L447 700 L320 700 L16 292 L16 162 Z " />
<glyph glyph-name="five" unicode="5" horiz-adv-x="556" d="L500 583 L500 700 L109 700 L40 313 L168 313 Q189 342 213 355.5 Q237 369 275 369 Q304 369 326 359 Q348 349 364 331 Q380 313 388 289 Q396 265 396 238 Q396 212 387.5 187.5 Q379 163 363.5 144.5 Q348 126 325.5 114.5 Q303 103 275 103 Q227 103 196 131.5 Q165 160 160 208 L18 208 Q19 153 40.5 111.5 Q62 70 98 42 Q134 14 180.5 0.5 Q227 -13 278 -13 Q331 -14 378 4.5 Q425 23 460.5 57 Q496 91 517 137.5 Q538 184 538 238 Q538 287 523.5 330.5 Q509 374 481.5 406 Q454 438 414 457 Q374 476 322 476 Q280 476 247 463.5 Q214 451 185 422 L183 424 L211 583 Z " />
<glyph glyph-name="six" unicode="6" horiz-adv-x="556" d="L286 363 Q313 363 333.5 351.5 Q354 340 367 321.5 Q380 303 386.5 279.5 Q393 256 393 231 Q393 207 386 184 Q379 161 365 143 Q351 125 331.5 114 Q312 103 286 103 Q259 103 238 114 Q217 125 202.5 143.5 Q188 162 180.5 185.5 Q173 209 173 233 Q173 259 180 282.5 Q187 306 201 324 Q215 342 236.5 352.5 Z L388 520 L523 520 Q517 567 498 603 Q479 639 449 663.5 Q419 688 380 701 Q341 714 296 714 Q221 714 169 681 Q117 648 84 595.5 Q51 543 36 478 Q21 413 21 348 Q21 281 33 216.5 Q45 152 76 101 Q107 50 159 18.5 Q211 -13 290 -13 Q345 -13 390 6.5 Q435 26 467.5 60.5 Q500 95 517.5 141.5 Q535 188 535 242 Q535 284 522 325 Q509 366 481 398 Q451 431 408 450.5 Q365 470 320 470 Q269 470 230 452 Q191 434 162 392 L160 394 Q161 423 168 460 Q175 497 190 529.5 Q205 562 230.5 584.5 Q256 607 294 607 Q331 607 356 581 Z " />
<glyph glyph-name="seven" unicode="7" horiz-adv-x="556" d="L517 578 L517 700 L39 700 L39 568 L371 568 Q271 447 209.5 302 Q148 157 136 0 L288 0 Q289 70 304.5 151 Q320 232 348.5 311 Q377 390 419.5 460 Z " />
<glyph glyph-name="eight" unicode="8" horiz-adv-x="556" d="L172 510 Q172 534 180.5 552 Q189 570 204 582 Q219 594 238.5 600.5 Q258 607 279 607 Q312 607 332.5 597 Q353 587 364.5 572 Q376 557 380 540.5 Q384 524 384 510 Q384 465 354 441.5 Q324 418 279 418 Q236 418 204 441.5 Z L43 523 Q43 471 69 432 Q95 393 146 379 L146 377 Q83 362 48.5 317 Q14 272 14 205 Q14 148 36.5 107 Q59 66 96.5 39 Q134 12 181.5 -0.5 Q229 -13 280 -13 Q329 -13 376 0.5 Q423 14 460 41 Q497 68 519.5 109 Q542 150 542 206 Q542 272 508 317.5 Q474 363 411 377 L411 379 Q462 396 487.5 435 Q513 474 513 526 Q513 552 501 584.5 Q489 617 461.5 645.5 Q434 674 389 694 Q344 714 279 714 Q236 714 194 702 Q152 690 118.5 666 Q85 642 64 606 Z L156 212 Q156 266 192 294.5 Q228 323 280 323 Q305 323 326.5 315 Q348 307 364.5 292 Q381 277 390.5 256.5 Q400 236 400 211 Q400 185 391 163 Q382 141 365.5 125.5 Q349 110 327.5 101.5 Q306 93 280 93 Q255 93 232 101.5 Q209 110 192.5 125.5 Q176 141 166 163 Z " />
<glyph glyph-name="nine" unicode="9" horiz-adv-x="556" d="L270 337 Q243 337 222.5 348.5 Q202 360 189 378.5 Q176 397 169.5 420.5 Q163 444 163 469 Q163 493 170 516 Q177 539 191 557 Q205 575 225 586 Q245 597 270 597 Q297 597 318 586 Q339 575 353.5 556.5 Q368 538 375.5 514.5 Q383 491 383 467 Q383 441 376 417.5 Q369 394 355 376 Q341 358 320 347.5 Z L168 180 L33 180 Q39 134 58 98 Q77 62 107 37 Q137 12 176 -0.5 Q215 -13 260 -13 Q335 -13 387 19.5 Q439 52 472 104.5 Q505 157 520 222 Q535 287 535 352 Q535 418 523 483 Q511 548 480 599.5 Q449 651 397.5 682.5 Q346 714 266 714 Q211 714 166 694 Q121 674 88.5 639.5 Q56 605 38.5 558.5 Q21 512 21 458 Q21 416 34 375 Q47 334 75 302 Q105 269 148 249.5 Q191 230 236 230 Q287 230 326 248 Q365 266 394 308 L396 306 Q394 277 387.5 240 Q381 203 366 170.5 Q351 138 326 115.5 Q301 93 262 93 Q225 93 200 119 Z " />
<glyph glyph-name="colon" unicode="&#x3a;" horiz-adv-x="278" d="L218 354 L218 508 L61 508 L61 354 Z L61 154 L61 0 L218 0 L218 154 Z " />
<glyph glyph-name="semicolon" unicode="&#x3b;" horiz-adv-x="278" d="L218 354 L218 508 L61 508 L61 354 Z L61 154 L61 0 L133 0 Q134 -16 129 -31.5 Q124 -47 114 -59.5 Q104 -72 90.5 -81 Q77 -90 62 -93 L62 -165 Q94 -160 122.5 -146.5 Q151 -133 172 -112 Q193 -91 205.5 -62.5 Q218 -34 218 0 L218 154 Z " />
<glyph glyph-name="less" unicode="&#x3c;" horiz-adv-x="600" d="L554 399 L554 514 L46 312 L46 194 L554 -7 L554 107 L187 253 Z " />
<glyph glyph-name="equal" unicode="&#x3d;" horiz-adv-x="600" d="L553 92 L553 199 L48 199 L48 92 Z L553 306 L553 413 L48 413 L48 306 Z " />
<glyph glyph-name="greater" unicode="&#x3e;" horiz-adv-x="600" d="L46 107 L46 -7 L554 194 L554 312 L46 514 L46 399 L413 253 Z " />
<glyph glyph-name="question" unicode="&#x3f;" horiz-adv-x="556" d="L193 154 L193 0 L350 0 L350 154 Z L32 484 L179 484 Q179 511 185 534.5 Q191 558 203.5 575.5 Q216 593 235.5 603.5 Q255 614 282 614 Q322 614 344.5 592 Q367 570 367 524 Q368 497 357.5 479 Q347 461 330 446 Q313 431 293 416 Q273 401 255 380.5 Q237 360 223.5 331 Q210 302 207 259 L207 214 L342 214 L342 252 Q346 282 361.5 302 Q377 322 397 337.5 Q417 353 439.5 368.5 Q462 384 480.5 406 Q499 428 511.5 459 Q524 490 524 538 Q524 567 511.5 600.5 Q499 634 470 663 Q441 692 393.5 711.5 Q346 731 275 731 Q220 731 175.5 712.5 Q131 694 99.5 661 Q68 628 50.5 583 Z " />
<glyph glyph-name="at" unicode="&#x40;" horiz-adv-x="800" d="L559 287 L622 545 L540 545 L524 491 Q507 530 473 545.5 Q439 561 407 561 Q358 561 317.5 539 Q277 517 248.5 481 Q220 445 204.5 399 Q189 353 189 306 Q189 271 201.5 240 Q214 209 235.5 185.5 Q257 162 285.5 148.5 Q314 135 346 135 Q378 135 407 149 Q436 163 454 193 L456 193 Q458 168 477.5 152 Q497 136 529 136 Q553 136 592.5 152.5 Q632 169 670.5 204 Q709 239 736.5 294 Q764 349 764 426 Q764 495 735 551.5 Q706 608 658 647.5 Q610 687 547 709 Q484 731 416 731 Q338 731 269 702 Q200 673 148 623 Q96 573 66 504.5 Q36 436 36 357 Q36 277 66 208.5 Q96 140 148.5 90 Q201 40 271 12 Q341 -16 421 -16 Q515 -16 595 25.5 Q675 67 726 145 L642 145 Q603 106 546.5 84.5 Q490 63 427 63 Q363 63 308.5 84 Q254 105 215 143.5 Q176 182 154 235.5 Q132 289 132 355 Q132 418 152 472.5 Q172 527 209 566.5 Q246 606 298.5 628.5 Q351 651 415 651 Q472 651 521.5 635 Q571 619 607.5 587.5 Q644 556 665 510.5 Q686 465 686 405 Q686 365 675.5 331 Q665 297 648.5 272.5 Q632 248 610.5 234.5 Q589 221 568 221 Q559 221 555 227.5 Q551 234 551 244 Q551 254 553.5 265.5 Z L291 319 Q291 344 300 370 Q309 396 325.5 417.5 Q342 439 365 452.5 Q388 466 415 466 Q447 466 469.5 442 Q492 418 492 381 Q492 355 483 328 Q474 301 457.5 279.5 Q441 258 418.5 244 Q396 230 369 230 Q334 230 312.5 254.5 Z " />
<glyph glyph-name="A" unicode="A" horiz-adv-x="685" d="L249 276 L342 538 L344 538 L434 276 Z L264 714 L-6 0 L152 0 L208 159 L475 159 L529 0 L692 0 L425 714 Z " />
<glyph glyph-name="B" unicode="B" horiz-adv-x="704" d="L226 425 L226 592 L373 592 Q394 592 413.5 588.5 Q433 585 448 576 Q463 567 472 551 Q481 535 481 510 Q481 465 454 445 Q427 425 385 425 Z L69 714 L69 0 L415 0 Q463 0 508.5 12 Q554 24 589.5 49 Q625 74 646 113.5 Q667 153 667 207 Q667 274 634.5 321.5 Q602 369 536 388 Q584 411 608.5 447 Q633 483 633 537 Q633 587 616.5 621 Q600 655 570 675.5 Q540 696 498 705 Q456 714 405 714 Z L226 122 L226 318 L397 318 Q448 318 479 294.5 Q510 271 510 216 Q510 188 500.5 170 Q491 152 475 141.5 Q459 131 438 126.5 Q417 122 394 122 Z " />
<glyph glyph-name="C" unicode="C" horiz-adv-x="741" d="L545 474 L697 474 Q690 536 663 584 Q636 632 594.5 664.5 Q553 697 500.5 714 Q448 731 389 731 Q307 731 241.5 702 Q176 673 131 622 Q86 571 62 502.5 Q38 434 38 354 Q38 276 62 208.5 Q86 141 131 91 Q176 41 241.5 12.5 Q307 -16 389 -16 Q455 -16 510 4 Q565 24 606 62 Q647 100 672 154 Q697 208 703 275 L551 275 Q542 203 501.5 159 Q461 115 389 115 Q336 115 299 135.5 Q262 156 239 190 Q216 224 205.5 266.5 Q195 309 195 354 Q195 401 205.5 445 Q216 489 239 523.5 Q262 558 299 578.5 Q336 599 389 599 Q418 599 444.5 589.5 Q471 580 492 563 Q513 546 527 523.5 Z " />
<glyph glyph-name="D" unicode="D" horiz-adv-x="741" d="L226 132 L226 582 L338 582 Q396 582 435.5 565.5 Q475 549 499 518 Q523 487 533.5 443.5 Q544 400 544 346 Q544 287 529 246 Q514 205 489 179.5 Q464 154 432 143 Q400 132 366 132 Z L69 714 L69 0 L377 0 Q459 0 519.5 27.5 Q580 55 620.5 103 Q661 151 681 217 Q701 283 701 361 Q701 450 676.5 516 Q652 582 608.5 626 Q565 670 505.5 692 Q446 714 377 714 Z " />
<glyph glyph-name="E" unicode="E" horiz-adv-x="648" d="L69 714 L69 0 L611 0 L611 132 L226 132 L226 307 L572 307 L572 429 L226 429 L226 582 L603 582 L603 714 Z " />
<glyph glyph-name="F" unicode="F" horiz-adv-x="593" d="L69 714 L69 0 L226 0 L226 295 L525 295 L525 417 L226 417 L226 582 L571 582 L571 714 Z " />
<glyph glyph-name="G" unicode="G" horiz-adv-x="759" d="L585 81 L601 0 L701 0 L701 386 L401 386 L401 269 L559 269 Q552 194 509.5 154.5 Q467 115 389 115 Q336 115 299 135.5 Q262 156 239 190 Q216 224 205.5 266.5 Q195 309 195 354 Q195 401 205.5 445 Q216 489 239 523.5 Q262 558 299 578.5 Q336 599 389 599 Q446 599 486 569 Q526 539 540 479 L690 479 Q684 540 657 587 Q630 634 588.5 666 Q547 698 495.5 714.5 Q444 731 389 731 Q307 731 241.5 702 Q176 673 131 622 Q86 571 62 502.5 Q38 434 38 354 Q38 276 62 208.5 Q86 141 131 91 Q176 41 241.5 12.5 Q307 -16 389 -16 Q441 -16 492 5.5 Z " />
<glyph glyph-name="H" unicode="H" horiz-adv-x="741" d="L69 714 L69 0 L226 0 L226 308 L515 308 L515 0 L672 0 L672 714 L515 714 L515 440 L226 440 L226 714 Z " />
<glyph glyph-name="I" unicode="I" horiz-adv-x="295" d="L69 714 L69 0 L226 0 L226 714 Z " />
<glyph glyph-name="J" unicode="J" horiz-adv-x="556" d="L487 225 L487 714 L330 714 L330 232 Q330 213 328.5 192.5 Q327 172 319.5 154.5 Q312 137 295 126 Q278 115 247 115 Q219 115 201.5 124 Q184 133 174 148.5 Q164 164 160 186 Q156 208 156 234 L156 266 L14 266 L14 204 Q14 145 34 103.5 Q54 62 87 35.5 Q120 9 162 -3.5 Q204 -16 249 -16 Q329 -16 376 8.5 Q423 33 448 69.5 Q473 106 480 148 Z " />
<glyph glyph-name="K" unicode="K" horiz-adv-x="722" d="L69 714 L69 0 L226 0 L226 230 L316 321 L531 0 L728 0 L422 432 L701 714 L505 714 L226 418 L226 714 Z " />
<glyph glyph-name="L" unicode="L" horiz-adv-x="593" d="L69 714 L69 0 L574 0 L574 132 L226 132 L226 714 Z " />
<glyph glyph-name="M" unicode="M" horiz-adv-x="907" d="L69 714 L69 0 L216 0 L216 501 L218 501 L393 0 L514 0 L689 506 L691 506 L691 0 L838 0 L838 714 L617 714 L459 223 L457 223 L290 714 Z " />
<glyph glyph-name="N" unicode="N" horiz-adv-x="741" d="L69 714 L69 0 L216 0 L216 478 L218 478 L515 0 L672 0 L672 714 L525 714 L525 235 L523 235 L225 714 Z " />
<glyph glyph-name="O" unicode="O" horiz-adv-x="778" d="L195 354 Q195 401 205.5 445 Q216 489 239 523.5 Q262 558 299 578.5 Q336 599 389 599 Q442 599 479 578.5 Q516 558 539 523.5 Q562 489 572.5 445 Q583 401 583 354 Q583 309 572.5 266.5 Q562 224 539 190 Q516 156 479 135.5 Q442 115 389 115 Q336 115 299 135.5 Q262 156 239 190 Q216 224 205.5 266.5 Z L38 354 Q38 276 62 208.5 Q86 141 131 91 Q176 41 241.5 12.5 Q307 -16 389 -16 Q472 -16 537 12.5 Q602 41 647 91 Q692 141 716 208.5 Q740 276 740 354 Q740 434 716 502.5 Q692 571 647 622 Q602 673 537 702 Q472 731 389 731 Q307 731 241.5 702 Q176 673 131 622 Q86 571 62 502.5 Z " />
<glyph glyph-name="P" unicode="P" horiz-adv-x="667" d="L226 378 L226 592 L348 592 Q375 592 400 588 Q425 584 444 572.5 Q463 561 474.5 540 Q486 519 486 485 Q486 451 474.5 430 Q463 409 444 397.5 Q425 386 400 382 Q375 378 348 378 Z L69 714 L69 0 L226 0 L226 256 L391 256 Q458 256 505 275.5 Q552 295 581.5 327 Q611 359 624.5 400.5 Q638 442 638 485 Q638 529 624.5 570 Q611 611 581.5 643 Q552 675 505 694.5 Q458 714 391 714 Z " />
<glyph glyph-name="Q" unicode="Q" horiz-adv-x="778" d="L458 264 L385 186 L452 125 Q444 117 425 116 Q406 115 389 115 Q336 115 299 135.5 Q262 156 239 190 Q216 224 205.5 266.5 Q195 309 195 354 Q195 401 205.5 445 Q216 489 239 523.5 Q262 558 299 578.5 Q336 599 389 599 Q442 599 479 578.5 Q516 558 539 523.5 Q562 489 572.5 445 Q583 401 583 354 Q583 297 571 257 Q559 217 539 190 Z L663 -66 L736 10 L647 91 Q692 142 716 209 Q740 276 740 354 Q740 434 716 502.5 Q692 571 647 622 Q602 673 537 702 Q472 731 389 731 Q307 731 241.5 702 Q176 673 131 622 Q86 571 62 502.5 Q38 434 38 354 Q38 276 62 208.5 Q86 141 131 91 Q176 41 241.5 12.5 Q307 -16 389 -16 Q491 -16 562 25 Z " />
<glyph glyph-name="R" unicode="R" horiz-adv-x="722" d="L226 391 L226 592 L398 592 Q452 592 479 568.5 Q506 545 506 493 Q506 439 479 415 Q452 391 398 391 Z L69 714 L69 0 L226 0 L226 279 L383 279 Q442 279 468 253 Q494 227 502 171 Q508 128 511 81 Q514 34 527 0 L684 0 Q673 15 667.5 36.5 Q662 58 659.5 82 Q657 106 656 129 Q655 152 654 169 Q652 196 646.5 223 Q641 250 629 272.5 Q617 295 598 311.5 Q579 328 550 336 L550 338 Q610 362 636.5 408 Q663 454 663 517 Q663 558 648.5 593.5 Q634 629 606.5 656 Q579 683 540.5 698.5 Q502 714 454 714 Z " />
<glyph glyph-name="S" unicode="S" horiz-adv-x="649" d="L176 237 L24 237 Q23 171 48 123 Q73 75 115.5 44 Q158 13 213.5 -1.5 Q269 -16 328 -16 Q401 -16 456.5 1 Q512 18 549.5 48.5 Q587 79 606 121 Q625 163 625 212 Q625 272 599.5 310.5 Q574 349 539 372 Q504 395 468.5 405.5 Q433 416 413 420 Q346 437 304.5 448 Q263 459 239.5 470 Q216 481 208 494 Q200 507 200 528 Q200 551 210 566 Q220 581 235.5 591 Q251 601 270 605 Q289 609 308 609 Q337 609 361.5 604 Q386 599 405 587 Q424 575 435.5 554 Q447 533 449 501 L601 501 Q601 563 577.5 606.5 Q554 650 514 678 Q474 706 422.5 718.5 Q371 731 315 731 Q267 731 219 718 Q171 705 133 678 Q95 651 71.5 610.5 Q48 570 48 515 Q48 466 66.5 431.5 Q85 397 115 374 Q145 351 183 336.5 Q221 322 261 312 Q300 301 338 292 Q376 283 406 271 Q436 259 454.5 241 Q473 223 473 194 Q473 167 459 149.5 Q445 132 424 122 Q403 112 379 108.5 Q355 105 334 105 Q303 105 274 112.5 Q245 120 223.5 135.5 Q202 151 189 176 Z " />
<glyph glyph-name="T" unicode="T" horiz-adv-x="611" d="L227 582 L227 0 L384 0 L384 582 L598 582 L598 714 L13 714 L13 582 Z " />
<glyph glyph-name="U" unicode="U" horiz-adv-x="741" d="L675 270 L675 714 L518 714 L518 270 Q518 190 486 152.5 Q454 115 370 115 Q322 115 293.5 128.5 Q265 142 249 163.5 Q233 185 228 213 Q223 241 223 270 L223 714 L66 714 L66 270 Q66 124 145.5 54 Q225 -16 370 -16 Q513 -16 594 54.5 Z " />
<glyph glyph-name="V" unicode="V" horiz-adv-x="630" d="L401 0 L638 714 L476 714 L315 212 L313 212 L154 714 L-7 714 L224 0 Z " />
<glyph glyph-name="W" unicode="W" horiz-adv-x="944" d="L749 0 L941 714 L787 714 L670 222 L668 222 L546 714 L399 714 L275 228 L273 228 L160 714 L3 714 L192 0 L351 0 L470 486 L472 486 L593 0 Z " />
<glyph glyph-name="X" unicode="X" horiz-adv-x="667" d="L244 374 L-5 0 L171 0 L330 247 L486 0 L673 0 L424 373 L653 714 L481 714 L336 486 L196 714 L14 714 Z " />
<glyph glyph-name="Y" unicode="Y" horiz-adv-x="667" d="L254 278 L254 0 L411 0 L411 274 L676 714 L501 714 L335 432 L168 714 L-8 714 Z " />
<glyph glyph-name="Z" unicode="Z" horiz-adv-x="648" d="L23 124 L23 0 L625 0 L625 132 L232 132 L615 590 L615 714 L53 714 L53 582 L406 582 Z " />
<glyph glyph-name="bracketleft" unicode="&#x5b;" horiz-adv-x="333" d="L68 731 L68 -181 L332 -181 L332 -69 L210 -69 L210 619 L332 619 L332 731 Z " />
<glyph glyph-name="backslash" unicode="&#x5c;" horiz-adv-x="371" d="L382 -16 L103 731 L-10 731 L268 -16 Z " />
<glyph glyph-name="bracketright" unicode="&#x5d;" horiz-adv-x="333" d="L265 -181 L265 731 L1 731 L1 619 L123 619 L123 -69 L1 -69 L1 -181 Z " />
<glyph glyph-name="asciicircum" unicode="&#x5e;" horiz-adv-x="600" d="L233 700 L61 315 L178 315 L300 590 L422 315 L539 315 L367 700 Z " />
<glyph glyph-name="underscore" unicode="&#x5f;" horiz-adv-x="500" d="L0 -74 L0 -124 L500 -124 L500 -74 Z " />
<glyph glyph-name="grave" unicode="&#x60;" horiz-adv-x="259" d="L109 723 L205 581 L106 581 L-47 723 Z " />
<glyph glyph-name="a" unicode="a" horiz-adv-x="574" d="L48 358 L190 358 Q194 400 218 418 Q242 436 284 436 Q303 436 319.5 433.5 Q336 431 348.5 423.5 Q361 416 368.5 402.5 Q376 389 376 366 Q377 344 363 332.5 Q349 321 325 315 Q301 309 270 306 Q239 303 207 298 Q175 293 143.5 284.5 Q112 276 87.5 259 Q63 242 47.5 213.5 Q32 185 32 141 Q32 101 45.5 72 Q59 43 83 24 Q107 5 139 -4 Q171 -13 208 -13 Q256 -13 302 1 Q348 15 382 50 Q383 37 385.5 24.5 Q388 12 392 0 L536 0 Q526 16 522 48 Q518 80 518 115 L518 384 Q518 431 497 459.5 Q476 488 443 504 Q410 520 370 525.5 Q330 531 291 531 Q248 531 205.5 522.5 Q163 514 129 494 Q95 474 73 441 Z L376 253 L376 200 Q376 188 373.5 168 Q371 148 360 128.5 Q349 109 326 95 Q303 81 261 81 Q244 81 228 84 Q212 87 200 94.5 Q188 102 181 115 Q174 128 174 147 Q174 167 181 180 Q188 193 199.5 201.5 Q211 210 226.5 215 Q242 220 258 223 Q275 226 292 228 Q309 230 324.5 233 Q340 236 353.5 240.5 Z " />
<glyph glyph-name="b" unicode="b" horiz-adv-x="611" d="L433 258 Q433 226 426 196 Q419 166 404 143 Q389 120 366.5 106.5 Q344 93 312 93 Q281 93 258 106.5 Q235 120 220 143 Q205 166 198 196 Q191 226 191 258 Q191 291 198 321 Q205 351 220 374 Q235 397 258 410.5 Q281 424 312 424 Q344 424 366.5 410.5 Q389 397 404 374 Q419 351 426 321 Z L54 714 L54 0 L189 0 L189 66 L191 66 Q214 23 259 5 Q304 -13 361 -13 Q400 -13 438 3 Q476 19 506.5 52 Q537 85 556 136.5 Q575 188 575 259 Q575 330 556 381.5 Q537 433 506.5 466 Q476 499 438 515 Q400 531 361 531 Q313 531 268.5 512.5 Q224 494 198 454 L196 454 L196 714 Z " />
<glyph glyph-name="c" unicode="c" horiz-adv-x="574" d="L406 335 L545 335 Q542 385 521 421.5 Q500 458 466.5 482.5 Q433 507 390.5 519 Q348 531 302 531 Q239 531 190 510 Q141 489 107 451.5 Q73 414 55.5 362.5 Q38 311 38 251 Q38 193 57 144.5 Q76 96 110 61 Q144 26 192.5 6.5 Q241 -13 299 -13 Q402 -13 468 41 Q534 95 548 198 L411 198 Q404 150 376.5 121.5 Q349 93 298 93 Q265 93 242 108 Q219 123 205.5 146.5 Q192 170 186 199 Q180 228 180 256 Q180 285 186 314.5 Q192 344 206.5 368.5 Q221 393 244 408.5 Q267 424 301 424 Z " />
<glyph glyph-name="d" unicode="d" horiz-adv-x="611" d="L421 260 Q421 228 415 198 Q409 168 395 144.5 Q381 121 357.5 107 Q334 93 299 93 Q266 93 242.5 107.5 Q219 122 203.5 145.5 Q188 169 181 199 Q174 229 174 259 Q174 291 180.5 320.5 Q187 350 201.5 373 Q216 396 240 410 Q264 424 299 424 Q334 424 357 410 Q380 396 394.5 373.5 Q409 351 415 321.5 Z L423 66 L423 0 L558 0 L558 714 L416 714 L416 454 L414 454 Q390 492 348.5 511.5 Q307 531 261 531 Q204 531 161 508.5 Q118 486 89.5 449 Q61 412 46.5 363.5 Q32 315 32 263 Q32 209 46.5 159 Q61 109 89.5 70.5 Q118 32 162 9.5 Q206 -13 264 -13 Q315 -13 355.5 5.5 Q396 24 421 66 Z " />
<glyph glyph-name="e" unicode="e" horiz-adv-x="574" d="L402 314 L171 314 Q172 329 177.5 348 Q183 367 196.5 384 Q210 401 232.5 412.5 Q255 424 289 424 Q341 424 366.5 396 Z L171 224 L544 224 Q548 284 534 339 Q520 394 488.5 437 Q457 480 408 505.5 Q359 531 293 531 Q234 531 185.5 510 Q137 489 102 452.5 Q67 416 48 366 Q29 316 29 258 Q29 198 47.5 148 Q66 98 100 62 Q134 26 183 6.5 Q232 -13 293 -13 Q381 -13 443 27 Q505 67 535 160 L410 160 Q403 136 372 114.5 Q341 93 298 93 Q238 93 206 124 Z " />
<glyph glyph-name="f" unicode="f" horiz-adv-x="333" d="L85 422 L85 0 L227 0 L227 422 L325 422 L325 517 L227 517 L227 548 Q227 580 239.5 593.5 Q252 607 281 607 Q308 607 333 604 L333 710 Q315 711 296 712.5 Q277 714 258 714 Q171 714 128 670 Q85 626 85 557 L85 517 L0 517 L0 422 Z " />
<glyph glyph-name="g" unicode="g" horiz-adv-x="611" d="L295 122 Q262 122 240 136 Q218 150 204.5 172 Q191 194 185.5 221.5 Q180 249 180 277 Q180 306 186.5 332.5 Q193 359 207.5 379.5 Q222 400 243.5 412 Q265 424 295 424 Q330 424 353 411 Q376 398 390 376 Q404 354 410 325.5 Q416 297 416 265 Q416 237 408.5 211.5 Q401 186 386 166 Q371 146 348 134 Z L551 33 L551 517 L416 517 L416 448 L414 448 Q388 493 349.5 512 Q311 531 260 531 Q206 531 164.5 510 Q123 489 95 453.5 Q67 418 52.5 371.5 Q38 325 38 275 Q38 222 50.5 174.5 Q63 127 90 91.5 Q117 56 159 35.5 Q201 15 259 15 Q306 15 348.5 34.5 Q391 54 414 95 L416 95 L416 27 Q417 -28 389.5 -64 Q362 -100 302 -100 Q264 -100 235 -84.5 Q206 -69 196 -29 L55 -29 Q58 -73 79.5 -104.5 Q101 -136 133.5 -156 Q166 -176 205.5 -185.5 Q245 -195 283 -195 Q372 -195 425 -171 Q478 -147 506 -112.5 Q534 -78 542.5 -38 Z " />
<glyph glyph-name="h" unicode="h" horiz-adv-x="593" d="L54 714 L54 0 L196 0 L196 271 Q196 350 222 384.5 Q248 419 306 419 Q357 419 377 387.5 Q397 356 397 292 L397 0 L539 0 L539 318 Q539 366 530.5 405.5 Q522 445 501 472.5 Q480 500 443.5 515.5 Q407 531 350 531 Q310 531 268 510.5 Q226 490 199 445 L196 445 L196 714 Z " />
<glyph glyph-name="i" unicode="i" horiz-adv-x="258" d="L200 597 L200 714 L58 714 L58 597 Z L58 517 L58 0 L200 0 L200 517 Z " />
<glyph glyph-name="j" unicode="j" horiz-adv-x="278" d="L209 597 L209 714 L67 714 L67 597 Z L-18 -60 L-18 -177 Q2 -181 27 -181 Q81 -181 116 -171.5 Q151 -162 171.5 -142.5 Q192 -123 200.5 -94 Q209 -65 209 -25 L209 517 L67 517 L67 -18 Q67 -47 50.5 -55.5 Q34 -64 12 -64 Z " />
<glyph glyph-name="k" unicode="k" horiz-adv-x="574" d="L67 714 L67 0 L209 0 L209 178 L264 231 L406 0 L578 0 L361 327 L556 517 L388 517 L209 331 L209 714 Z " />
<glyph glyph-name="l" unicode="l" horiz-adv-x="258" d="L58 714 L58 0 L200 0 L200 714 Z " />
<glyph glyph-name="m" unicode="m" horiz-adv-x="906" d="L58 517 L58 0 L200 0 L200 300 Q200 338 211 361.5 Q222 385 237.5 397.5 Q253 410 269.5 414.5 Q286 419 296 419 Q330 419 347.5 407.5 Q365 396 372.5 377 Q380 358 381 335.5 Q382 313 382 290 L382 0 L524 0 L524 288 Q524 312 527.5 335.5 Q531 359 541.5 377.5 Q552 396 570.5 407.5 Q589 419 619 419 Q649 419 666.5 409 Q684 399 693 382 Q702 365 704 342 Q706 319 706 293 L706 0 L848 0 L848 346 Q848 396 834 431.5 Q820 467 795 489 Q770 511 735 521 Q700 531 659 531 Q605 531 565.5 505 Q526 479 503 445 Q482 493 441.5 512 Q401 531 352 531 Q301 531 261.5 509 Q222 487 194 447 L192 447 L192 517 Z " />
<glyph glyph-name="n" unicode="n" horiz-adv-x="593" d="L54 517 L54 0 L196 0 L196 271 Q196 350 222 384.5 Q248 419 306 419 Q357 419 377 387.5 Q397 356 397 292 L397 0 L539 0 L539 318 Q539 366 530.5 405.5 Q522 445 501 472.5 Q480 500 443.5 515.5 Q407 531 350 531 Q305 531 262 510.5 Q219 490 192 445 L189 445 L189 517 Z " />
<glyph glyph-name="o" unicode="o" horiz-adv-x="611" d="L180 258 Q180 289 186 319 Q192 349 206.5 372 Q221 395 245 409.5 Q269 424 305 424 Q341 424 365.5 409.5 Q390 395 404.5 372 Q419 349 425 319 Q431 289 431 258 Q431 227 425 197.5 Q419 168 404.5 144.5 Q390 121 365.5 107 Q341 93 305 93 Q269 93 245 107 Q221 121 206.5 144.5 Q192 168 186 197.5 Z L38 258 Q38 196 57 146 Q76 96 111 60.5 Q146 25 195 6 Q244 -13 305 -13 Q366 -13 415.5 6 Q465 25 500 60.5 Q535 96 554 146 Q573 196 573 258 Q573 320 554 370.5 Q535 421 500 456.5 Q465 492 415.5 511.5 Q366 531 305 531 Q244 531 195 511.5 Q146 492 111 456.5 Q76 421 57 370.5 Z " />
<glyph glyph-name="p" unicode="p" horiz-adv-x="611" d="L315 93 Q281 93 257 107 Q233 121 218.5 143.5 Q204 166 197.5 196 Q191 226 191 257 Q191 289 197 319 Q203 349 217.5 372 Q232 395 255.5 409.5 Q279 424 314 424 Q348 424 371.5 409.5 Q395 395 410 371.5 Q425 348 431.5 318 Q438 288 438 257 Q438 226 432 196 Q426 166 411.5 143.5 Q397 121 373.5 107 Z L54 517 L54 -181 L196 -181 L196 64 L198 64 Q224 26 264.5 6.5 Q305 -13 353 -13 Q410 -13 452.5 9 Q495 31 523.5 68 Q552 105 566 153 Q580 201 580 253 Q580 308 566 358.5 Q552 409 523 447 Q494 485 450 508 Q406 531 345 531 Q297 531 257 512 Q217 493 191 451 L189 451 L189 517 Z " />
<glyph glyph-name="q" unicode="q" horiz-adv-x="611" d="L174 258 Q174 290 180.5 319.5 Q187 349 202 372.5 Q217 396 241 410 Q265 424 300 424 Q333 424 356.5 409 Q380 394 394 370 Q408 346 414.5 316 Q421 286 421 256 Q421 224 414.5 194.5 Q408 165 393.5 142.5 Q379 120 355.5 106.5 Q332 93 297 93 Q262 93 238.5 107 Q215 121 200.5 144.5 Q186 168 180 197.5 Z L558 -181 L558 517 L423 517 L423 451 L421 451 Q397 494 354.5 512.5 Q312 531 264 531 Q205 531 161.5 508 Q118 485 89 446.5 Q60 408 46 358 Q32 308 32 255 Q32 180 53 128.5 Q74 77 106 45.5 Q138 14 176.5 0.5 Q215 -13 251 -13 Q299 -13 344 5 Q389 23 414 65 L416 65 L416 -181 Z " />
<glyph glyph-name="r" unicode="r" horiz-adv-x="389" d="L54 517 L54 0 L196 0 L196 233 Q196 268 203 298 Q210 328 226.5 350.5 Q243 373 270 386 Q297 399 336 399 Q349 399 363 397.5 Q377 396 387 394 L387 526 Q370 531 356 531 Q329 531 304 523 Q279 515 257 500.5 Q235 486 218 465.5 Q201 445 191 421 L189 421 L189 517 Z " />
<glyph glyph-name="s" unicode="s" horiz-adv-x="537" d="L164 168 L29 168 Q31 116 52.5 81.5 Q74 47 107.5 26 Q141 5 184 -4 Q227 -13 272 -13 Q316 -13 358.5 -4.5 Q401 4 434 25 Q467 46 487.5 80.5 Q508 115 508 166 Q508 202 494 226.5 Q480 251 457 267.5 Q434 284 404.5 294 Q375 304 344 311 Q314 318 285 324 Q256 330 233.5 337.5 Q211 345 197 357 Q183 369 183 388 Q183 404 191 413.5 Q199 423 210.5 428 Q222 433 236 434.5 Q250 436 262 436 Q300 436 328 421.5 Q356 407 359 366 L494 366 Q490 414 469.5 445.5 Q449 477 418 496 Q387 515 347.5 523 Q308 531 266 531 Q224 531 184 523.5 Q144 516 112 497.5 Q80 479 60.5 447 Q41 415 41 365 Q41 331 55 307.5 Q69 284 92 268.5 Q115 253 144.5 243.5 Q174 234 205 227 Q281 211 323.5 195 Q366 179 366 147 Q366 128 357 115.5 Q348 103 334.5 95.5 Q321 88 304.5 84.5 Q288 81 273 81 Q252 81 232.5 86 Q213 91 198 101.5 Q183 112 173.5 128.5 Z " />
<glyph glyph-name="t" unicode="t" horiz-adv-x="352" d="L234 517 L234 672 L92 672 L92 517 L6 517 L6 422 L92 422 L92 117 Q92 78 105 54 Q118 30 140.5 17 Q163 4 192.5 -0.5 Q222 -5 255 -5 Q276 -5 298 -4 Q320 -3 338 0 L338 110 Q328 108 317 107 Q306 106 294 106 Q258 106 246 118 Q234 130 234 166 L234 422 L338 422 L338 517 Z " />
<glyph glyph-name="u" unicode="u" horiz-adv-x="593" d="L539 0 L539 517 L397 517 L397 246 Q397 167 371 132.5 Q345 98 287 98 Q236 98 216 129.5 Q196 161 196 225 L196 517 L54 517 L54 199 Q54 151 62.5 111.5 Q71 72 92 44.5 Q113 17 149.5 2 Q186 -13 243 -13 Q288 -13 331 7 Q374 27 401 72 L404 72 L404 0 Z " />
<glyph glyph-name="v" unicode="v" horiz-adv-x="520" d="L340 0 L515 517 L374 517 L265 164 L263 164 L154 517 L5 517 L182 0 Z " />
<glyph glyph-name="w" unicode="w" horiz-adv-x="814" d="L645 0 L808 517 L662 517 L567 167 L565 167 L477 517 L339 517 L253 166 L251 166 L156 517 L6 517 L170 0 L317 0 L405 347 L407 347 L499 0 Z " />
<glyph glyph-name="x" unicode="x" horiz-adv-x="537" d="L186 272 L0 0 L159 0 L267 163 L375 0 L537 0 L346 275 L516 517 L359 517 L269 382 L178 517 L16 517 Z " />
<glyph glyph-name="y" unicode="y" horiz-adv-x="519" d="L309 -64 L525 517 L378 517 L265 163 L263 163 L146 517 L-5 517 L176 32 Q182 17 182 0 Q182 -23 168.5 -42 Q155 -61 127 -64 Q106 -65 85 -63 Q64 -61 44 -59 L44 -176 Q66 -178 87.5 -179.5 Q109 -181 131 -181 Q204 -181 245 -154 Z " />
<glyph glyph-name="z" unicode="z" horiz-adv-x="519" d="L22 107 L22 0 L497 0 L497 107 L209 107 L478 410 L478 517 L42 517 L42 410 L291 410 Z " />
<glyph glyph-name="braceleft" unicode="&#x7b;" horiz-adv-x="333" d="L333 619 L333 731 L206 731 Q189 731 167.5 722.5 Q146 714 127.5 697.5 Q109 681 96 655.5 Q83 630 83 596 L83 408 Q83 383 73 365.5 Q63 348 49 337.5 Q35 327 19 322.5 Q3 318 -8 318 L-8 231 Q3 231 19 226.5 Q35 222 49 212.5 Q63 203 73 187 Q83 171 83 148 L83 -46 Q83 -80 96 -105.5 Q109 -131 127.5 -147.5 Q146 -164 167.5 -172.5 Q189 -181 206 -181 L333 -181 L333 -69 L279 -69 Q261 -69 250.5 -62 Q240 -55 234 -44.5 Q228 -34 226.5 -21 Q225 -8 225 3 L225 163 Q225 195 213.5 215.5 Q202 236 186.5 248.5 Q171 261 154 266.5 Q137 272 126 273 L126 276 Q137 277 154 282 Q171 287 186.5 299.5 Q202 312 213.5 334.5 Q225 357 225 394 L225 546 Q225 558 226.5 571 Q228 584 234 594.5 Q240 605 250.5 612 Q261 619 279 619 Z " />
<glyph glyph-name="bar" unicode="&#x7c;" horiz-adv-x="223" d="L58 786 L58 -213 L165 -213 L165 786 Z " />
<glyph glyph-name="braceright" unicode="&#x7d;" horiz-adv-x="333" d="L0 -69 L0 -181 L127 -181 Q144 -181 165.5 -172.5 Q187 -164 205.5 -147.5 Q224 -131 237 -105.5 Q250 -80 250 -46 L250 148 Q250 171 260 187 Q270 203 284 212.5 Q298 222 314 226.5 Q330 231 342 231 L342 318 Q330 318 314 322.5 Q298 327 284 337.5 Q270 348 260 365.5 Q250 383 250 408 L250 596 Q250 630 237 655.5 Q224 681 205.5 697.5 Q187 714 165.5 722.5 Q144 731 127 731 L0 731 L0 619 L54 619 Q72 619 82.5 612 Q93 605 99 594.5 Q105 584 106.5 571 Q108 558 108 546 L108 394 Q108 357 119.5 334.5 Q131 312 146.5 299.5 Q162 287 179 282 Q196 277 207 276 L207 273 Q196 272 179 266.5 Q162 261 146.5 248.5 Q131 236 119.5 215.5 Q108 195 108 163 L108 3 Q108 -8 106.5 -21 Q105 -34 99 -44.5 Q93 -55 82.5 -62 Q72 -69 54 -69 Z " />
<glyph glyph-name="asciitilde" unicode="&#x7e;" horiz-adv-x="600" d="L533 251 L493 344 Q484 331 475 318 Q466 305 455.5 295 Q445 285 432.5 278.5 Q420 272 405 272 Q385 272 358 284 Q331 296 303 308 Q274 321 246 330.5 Q218 340 192 340 Q167 340 147.5 332.5 Q128 325 112.5 313 Q97 301 86 285.5 Q75 270 67 254 L107 161 Q113 174 120.5 187 Q128 200 138.5 210 Q149 220 162 226.5 Q175 233 191 233 Q226 233 254 222.5 Q282 212 306 198 Q331 184 355.5 174.5 Q380 165 408 165 Q431 165 449.5 172.5 Q468 180 483 192 Q498 204 510 219.5 Z " />
<glyph glyph-name="Adieresis" unicode="&#xc4;" horiz-adv-x="685" d="L172 911 L172 794 L307 794 L307 911 Z L378 911 L378 794 L513 794 L513 911 Z L249 276 L342 538 L344 538 L434 276 Z L264 714 L-6 0 L152 0 L208 159 L475 159 L529 0 L692 0 L425 714 Z " />
<glyph glyph-name="Aring" unicode="&#xc5;" horiz-adv-x="685" d="L220 853 Q220 828 229.5 805.5 Q239 783 255.5 766.5 Q272 750 294.5 740.5 Q317 731 342 731 Q368 731 390 740.5 Q412 750 429 766.5 Q446 783 455.5 805.5 Q465 828 465 853 Q465 879 455.5 901 Q446 923 429 939.5 Q412 956 390 965.5 Q368 975 342 975 Q317 975 294.5 965.5 Q272 956 255.5 939.5 Q239 923 229.5 901 Z L279 853 Q279 882 296 902.5 Q313 923 342 923 Q371 923 388.5 902.5 Q406 882 406 853 Q406 824 388.5 803.5 Q371 783 342 783 Q313 783 296 803.5 Z L249 276 L342 538 L344 538 L434 276 Z L264 714 L-6 0 L152 0 L208 159 L475 159 L529 0 L692 0 L425 714 Z " />
<glyph glyph-name="Ccedilla" unicode="&#xc7;" horiz-adv-x="741" d="L545 474 L697 474 Q690 536 663 584 Q636 632 594.5 664.5 Q553 697 500.5 714 Q448 731 389 731 Q307 731 241.5 702 Q176 673 131 622 Q86 571 62 502.5 Q38 434 38 354 Q38 282 58.5 218.5 Q79 155 118.5 106 Q158 57 215 25.5 Q272 -6 345 -13 L297 -82 L318 -106 Q336 -99 358 -99 Q375 -99 386.5 -105.5 Q398 -112 398 -131 Q398 -149 387 -157 Q376 -165 358 -165 Q332 -165 311 -159.5 Q290 -154 274 -147 L253 -195 Q267 -200 279.5 -204 Q292 -208 305.5 -211 Q319 -214 336 -215.5 Q353 -217 377 -217 Q399 -217 420 -212.5 Q441 -208 457.5 -196.5 Q474 -185 484 -165.5 Q494 -146 494 -117 Q494 -99 486 -85.5 Q478 -72 465 -63.5 Q452 -55 435.5 -51 Q419 -47 402 -47 Q380 -47 368 -52 L366 -52 L392 -16 Q457 -15 511.5 5.5 Q566 26 606.5 63.5 Q647 101 672 154.5 Q697 208 703 275 L551 275 Q542 203 501.5 159 Q461 115 389 115 Q336 115 299 135.5 Q262 156 239 190 Q216 224 205.5 266.5 Q195 309 195 354 Q195 401 205.5 445 Q216 489 239 523.5 Q262 558 299 578.5 Q336 599 389 599 Q418 599 444.5 589.5 Q471 580 492 563 Q513 546 527 523.5 Z " />
<glyph glyph-name="Eacute" unicode="&#xc9;" horiz-adv-x="648" d="L348 778 L502 920 L345 920 L249 778 Z L69 714 L69 0 L611 0 L611 132 L226 132 L226 307 L572 307 L572 429 L226 429 L226 582 L603 582 L603 714 Z " />
<glyph glyph-name="Ntilde" unicode="&#xd1;" horiz-adv-x="741" d="L554 911 L485 911 Q486 897 476 886.5 Q466 876 443 876 Q426 876 409.5 881.5 Q393 887 377 894 Q361 900 345.5 905.5 Q330 911 313 911 Q280 911 258 900 Q236 889 222 871.5 Q208 854 200 832.5 Q192 811 187 789 L248 789 Q253 808 261.5 819.5 Q270 831 290 831 Q307 831 324 826 Q341 821 360 814 Q379 808 399 802.5 Q419 797 442 797 Q472 797 491.5 808.5 Q511 820 523.5 837 Q536 854 542.5 874 Z L69 714 L69 0 L216 0 L216 478 L218 478 L515 0 L672 0 L672 714 L525 714 L525 235 L523 235 L225 714 Z " />
<glyph glyph-name="Odieresis" unicode="&#xd6;" horiz-adv-x="778" d="L219 911 L219 794 L354 794 L354 911 Z L425 911 L425 794 L560 794 L560 911 Z L195 354 Q195 401 205.5 445 Q216 489 239 523.5 Q262 558 299 578.5 Q336 599 389 599 Q442 599 479 578.5 Q516 558 539 523.5 Q562 489 572.5 445 Q583 401 583 354 Q583 309 572.5 266.5 Q562 224 539 190 Q516 156 479 135.5 Q442 115 389 115 Q336 115 299 135.5 Q262 156 239 190 Q216 224 205.5 266.5 Z L38 354 Q38 276 62 208.5 Q86 141 131 91 Q176 41 241.5 12.5 Q307 -16 389 -16 Q472 -16 537 12.5 Q602 41 647 91 Q692 141 716 208.5 Q740 276 740 354 Q740 434 716 502.5 Q692 571 647 622 Q602 673 537 702 Q472 731 389 731 Q307 731 241.5 702 Q176 673 131 622 Q86 571 62 502.5 Z " />
<glyph glyph-name="Udieresis" unicode="&#xdc;" horiz-adv-x="741" d="L200 911 L200 794 L335 794 L335 911 Z L406 911 L406 794 L541 794 L541 911 Z L675 270 L675 714 L518 714 L518 270 Q518 190 486 152.5 Q454 115 370 115 Q322 115 293.5 128.5 Q265 142 249 163.5 Q233 185 228 213 Q223 241 223 270 L223 714 L66 714 L66 270 Q66 124 145.5 54 Q225 -16 370 -16 Q513 -16 594 54.5 Z " />
<glyph glyph-name="aacute" unicode="&#xe1;" horiz-adv-x="574" d="L311 581 L465 723 L308 723 L212 581 Z L48 358 L190 358 Q194 400 218 418 Q242 436 284 436 Q303 436 319.5 433.5 Q336 431 348.5 423.5 Q361 416 368.5 402.5 Q376 389 376 366 Q377 344 363 332.5 Q349 321 325 315 Q301 309 270 306 Q239 303 207 298 Q175 293 143.5 284.5 Q112 276 87.5 259 Q63 242 47.5 213.5 Q32 185 32 141 Q32 101 45.5 72 Q59 43 83 24 Q107 5 139 -4 Q171 -13 208 -13 Q256 -13 302 1 Q348 15 382 50 Q383 37 385.5 24.5 Q388 12 392 0 L536 0 Q526 16 522 48 Q518 80 518 115 L518 384 Q518 431 497 459.5 Q476 488 443 504 Q410 520 370 525.5 Q330 531 291 531 Q248 531 205.5 522.5 Q163 514 129 494 Q95 474 73 441 Z L376 253 L376 200 Q376 188 373.5 168 Q371 148 360 128.5 Q349 109 326 95 Q303 81 261 81 Q244 81 228 84 Q212 87 200 94.5 Q188 102 181 115 Q174 128 174 147 Q174 167 181 180 Q188 193 199.5 201.5 Q211 210 226.5 215 Q242 220 258 223 Q275 226 292 228 Q309 230 324.5 233 Q340 236 353.5 240.5 Z " />
<glyph glyph-name="agrave" unicode="&#xe0;" horiz-adv-x="574" d="L110 723 L264 581 L363 581 L267 723 Z L48 358 L190 358 Q194 400 218 418 Q242 436 284 436 Q303 436 319.5 433.5 Q336 431 348.5 423.5 Q361 416 368.5 402.5 Q376 389 376 366 Q377 344 363 332.5 Q349 321 325 315 Q301 309 270 306 Q239 303 207 298 Q175 293 143.5 284.5 Q112 276 87.5 259 Q63 242 47.5 213.5 Q32 185 32 141 Q32 101 45.5 72 Q59 43 83 24 Q107 5 139 -4 Q171 -13 208 -13 Q256 -13 302 1 Q348 15 382 50 Q383 37 385.5 24.5 Q388 12 392 0 L536 0 Q526 16 522 48 Q518 80 518 115 L518 384 Q518 431 497 459.5 Q476 488 443 504 Q410 520 370 525.5 Q330 531 291 531 Q248 531 205.5 522.5 Q163 514 129 494 Q95 474 73 441 Z L376 253 L376 200 Q376 188 373.5 168 Q371 148 360 128.5 Q349 109 326 95 Q303 81 261 81 Q244 81 228 84 Q212 87 200 94.5 Q188 102 181 115 Q174 128 174 147 Q174 167 181 180 Q188 193 199.5 201.5 Q211 210 226.5 215 Q242 220 258 223 Q275 226 292 228 Q309 230 324.5 233 Q340 236 353.5 240.5 Z " />
<glyph glyph-name="acircumflex" unicode="&#xe2;" horiz-adv-x="574" d="L223 723 L112 581 L220 581 L284 662 L346 581 L463 581 L353 723 Z L48 358 L190 358 Q194 400 218 418 Q242 436 284 436 Q303 436 319.5 433.5 Q336 431 348.5 423.5 Q361 416 368.5 402.5 Q376 389 376 366 Q377 344 363 332.5 Q349 321 325 315 Q301 309 270 306 Q239 303 207 298 Q175 293 143.5 284.5 Q112 276 87.5 259 Q63 242 47.5 213.5 Q32 185 32 141 Q32 101 45.5 72 Q59 43 83 24 Q107 5 139 -4 Q171 -13 208 -13 Q256 -13 302 1 Q348 15 382 50 Q383 37 385.5 24.5 Q388 12 392 0 L536 0 Q526 16 522 48 Q518 80 518 115 L518 384 Q518 431 497 459.5 Q476 488 443 504 Q410 520 370 525.5 Q330 531 291 531 Q248 531 205.5 522.5 Q163 514 129 494 Q95 474 73 441 Z L376 253 L376 200 Q376 188 373.5 168 Q371 148 360 128.5 Q349 109 326 95 Q303 81 261 81 Q244 81 228 84 Q212 87 200 94.5 Q188 102 181 115 Q174 128 174 147 Q174 167 181 180 Q188 193 199.5 201.5 Q211 210 226.5 215 Q242 220 258 223 Q275 226 292 228 Q309 230 324.5 233 Q340 236 353.5 240.5 Z " />
<glyph glyph-name="adieresis" unicode="&#xe4;" horiz-adv-x="574" d="L117 714 L117 597 L252 597 L252 714 Z L323 714 L323 597 L458 597 L458 714 Z L48 358 L190 358 Q194 400 218 418 Q242 436 284 436 Q303 436 319.5 433.5 Q336 431 348.5 423.5 Q361 416 368.5 402.5 Q376 389 376 366 Q377 344 363 332.5 Q349 321 325 315 Q301 309 270 306 Q239 303 207 298 Q175 293 143.5 284.5 Q112 276 87.5 259 Q63 242 47.5 213.5 Q32 185 32 141 Q32 101 45.5 72 Q59 43 83 24 Q107 5 139 -4 Q171 -13 208 -13 Q256 -13 302 1 Q348 15 382 50 Q383 37 385.5 24.5 Q388 12 392 0 L536 0 Q526 16 522 48 Q518 80 518 115 L518 384 Q518 431 497 459.5 Q476 488 443 504 Q410 520 370 525.5 Q330 531 291 531 Q248 531 205.5 522.5 Q163 514 129 494 Q95 474 73 441 Z L376 253 L376 200 Q376 188 373.5 168 Q371 148 360 128.5 Q349 109 326 95 Q303 81 261 81 Q244 81 228 84 Q212 87 200 94.5 Q188 102 181 115 Q174 128 174 147 Q174 167 181 180 Q188 193 199.5 201.5 Q211 210 226.5 215 Q242 220 258 223 Q275 226 292 228 Q309 230 324.5 233 Q340 236 353.5 240.5 Z " />
<glyph glyph-name="atilde" unicode="&#xe3;" horiz-adv-x="574" d="L471 714 L402 714 Q403 700 393 689.5 Q383 679 360 679 Q343 679 326.5 684.5 Q310 690 294 697 Q278 703 262.5 708.5 Q247 714 230 714 Q197 714 175 703 Q153 692 139 674.5 Q125 657 117 635.5 Q109 614 104 592 L165 592 Q170 611 178.5 622.5 Q187 634 207 634 Q224 634 241 629 Q258 624 277 617 Q296 611 316 605.5 Q336 600 359 600 Q389 600 408.5 611.5 Q428 623 440.5 640 Q453 657 459.5 677 Z L48 358 L190 358 Q194 400 218 418 Q242 436 284 436 Q303 436 319.5 433.5 Q336 431 348.5 423.5 Q361 416 368.5 402.5 Q376 389 376 366 Q377 344 363 332.5 Q349 321 325 315 Q301 309 270 306 Q239 303 207 298 Q175 293 143.5 284.5 Q112 276 87.5 259 Q63 242 47.5 213.5 Q32 185 32 141 Q32 101 45.5 72 Q59 43 83 24 Q107 5 139 -4 Q171 -13 208 -13 Q256 -13 302 1 Q348 15 382 50 Q383 37 385.5 24.5 Q388 12 392 0 L536 0 Q526 16 522 48 Q518 80 518 115 L518 384 Q518 431 497 459.5 Q476 488 443 504 Q410 520 370 525.5 Q330 531 291 531 Q248 531 205.5 522.5 Q163 514 129 494 Q95 474 73 441 Z L376 253 L376 200 Q376 188 373.5 168 Q371 148 360 128.5 Q349 109 326 95 Q303 81 261 81 Q244 81 228 84 Q212 87 200 94.5 Q188 102 181 115 Q174 128 174 147 Q174 167 181 180 Q188 193 199.5 201.5 Q211 210 226.5 215 Q242 220 258 223 Q275 226 292 228 Q309 230 324.5 233 Q340 236 353.5 240.5 Z " />
<glyph glyph-name="aring" unicode="&#xe5;" horiz-adv-x="574" d="L165 656 Q165 631 174.5 608.5 Q184 586 200.5 569.5 Q217 553 239.5 543.5 Q262 534 287 534 Q313 534 335 543.5 Q357 553 374 569.5 Q391 586 400.5 608.5 Q410 631 410 656 Q410 682 400.5 704 Q391 726 374 742.5 Q357 759 335 768.5 Q313 778 287 778 Q262 778 239.5 768.5 Q217 759 200.5 742.5 Q184 726 174.5 704 Z L224 656 Q224 685 241 705.5 Q258 726 287 726 Q316 726 333.5 705.5 Q351 685 351 656 Q351 627 333.5 606.5 Q316 586 287 586 Q258 586 241 606.5 Z L48 358 L190 358 Q194 400 218 418 Q242 436 284 436 Q303 436 319.5 433.5 Q336 431 348.5 423.5 Q361 416 368.5 402.5 Q376 389 376 366 Q377 344 363 332.5 Q349 321 325 315 Q301 309 270 306 Q239 303 207 298 Q175 293 143.5 284.5 Q112 276 87.5 259 Q63 242 47.5 213.5 Q32 185 32 141 Q32 101 45.5 72 Q59 43 83 24 Q107 5 139 -4 Q171 -13 208 -13 Q256 -13 302 1 Q348 15 382 50 Q383 37 385.5 24.5 Q388 12 392 0 L536 0 Q526 16 522 48 Q518 80 518 115 L518 384 Q518 431 497 459.5 Q476 488 443 504 Q410 520 370 525.5 Q330 531 291 531 Q248 531 205.5 522.5 Q163 514 129 494 Q95 474 73 441 Z L376 253 L376 200 Q376 188 373.5 168 Q371 148 360 128.5 Q349 109 326 95 Q303 81 261 81 Q244 81 228 84 Q212 87 200 94.5 Q188 102 181 115 Q174 128 174 147 Q174 167 181 180 Q188 193 199.5 201.5 Q211 210 226.5 215 Q242 220 258 223 Q275 226 292 228 Q309 230 324.5 233 Q340 236 353.5 240.5 Z " />
<glyph glyph-name="ccedilla" unicode="&#xe7;" horiz-adv-x="574" d="L406 335 L545 335 Q542 385 521 421.5 Q500 458 466.5 482.5 Q433 507 390.5 519 Q348 531 302 531 Q239 531 190 510 Q141 489 107 451.5 Q73 414 55.5 362.5 Q38 311 38 251 Q38 197 54 151.5 Q70 106 100 71.5 Q130 37 171.5 16 Q213 -5 264 -10 L214 -82 L235 -106 Q253 -99 275 -99 Q292 -99 303.5 -105.5 Q315 -112 315 -131 Q315 -149 304 -157 Q293 -165 275 -165 Q249 -165 228 -159.5 Q207 -154 191 -147 L170 -195 Q184 -200 196.5 -204 Q209 -208 222.5 -211 Q236 -214 253 -215.5 Q270 -217 294 -217 Q316 -217 337 -212.5 Q358 -208 374.5 -196.5 Q391 -185 401 -165.5 Q411 -146 411 -117 Q411 -99 403 -85.5 Q395 -72 382 -63.5 Q369 -55 352.5 -51 Q336 -47 319 -47 Q297 -47 285 -52 L283 -52 L311 -12 Q410 -9 472.5 44.5 Q535 98 548 198 L411 198 Q404 150 376.5 121.5 Q349 93 298 93 Q265 93 242 108 Q219 123 205.5 146.5 Q192 170 186 199 Q180 228 180 256 Q180 285 186 314.5 Q192 344 206.5 368.5 Q221 393 244 408.5 Q267 424 301 424 Z " />
<glyph glyph-name="eacute" unicode="&#xe9;" horiz-adv-x="574" d="L311 581 L465 723 L308 723 L212 581 Z L402 314 L171 314 Q172 329 177.5 348 Q183 367 196.5 384 Q210 401 232.5 412.5 Q255 424 289 424 Q341 424 366.5 396 Z L171 224 L544 224 Q548 284 534 339 Q520 394 488.5 437 Q457 480 408 505.5 Q359 531 293 531 Q234 531 185.5 510 Q137 489 102 452.5 Q67 416 48 366 Q29 316 29 258 Q29 198 47.5 148 Q66 98 100 62 Q134 26 183 6.5 Q232 -13 293 -13 Q381 -13 443 27 Q505 67 535 160 L410 160 Q403 136 372 114.5 Q341 93 298 93 Q238 93 206 124 Z " />
<glyph glyph-name="egrave" unicode="&#xe8;" horiz-adv-x="574" d="L110 723 L264 581 L363 581 L267 723 Z L402 314 L171 314 Q172 329 177.5 348 Q183 367 196.5 384 Q210 401 232.5 412.5 Q255 424 289 424 Q341 424 366.5 396 Z L171 224 L544 224 Q548 284 534 339 Q520 394 488.5 437 Q457 480 408 505.5 Q359 531 293 531 Q234 531 185.5 510 Q137 489 102 452.5 Q67 416 48 366 Q29 316 29 258 Q29 198 47.5 148 Q66 98 100 62 Q134 26 183 6.5 Q232 -13 293 -13 Q381 -13 443 27 Q505 67 535 160 L410 160 Q403 136 372 114.5 Q341 93 298 93 Q238 93 206 124 Z " />
<glyph glyph-name="ecircumflex" unicode="&#xea;" horiz-adv-x="574" d="L223 723 L112 581 L220 581 L284 662 L346 581 L463 581 L353 723 Z L402 314 L171 314 Q172 329 177.5 348 Q183 367 196.5 384 Q210 401 232.5 412.5 Q255 424 289 424 Q341 424 366.5 396 Z L171 224 L544 224 Q548 284 534 339 Q520 394 488.5 437 Q457 480 408 505.5 Q359 531 293 531 Q234 531 185.5 510 Q137 489 102 452.5 Q67 416 48 366 Q29 316 29 258 Q29 198 47.5 148 Q66 98 100 62 Q134 26 183 6.5 Q232 -13 293 -13 Q381 -13 443 27 Q505 67 535 160 L410 160 Q403 136 372 114.5 Q341 93 298 93 Q238 93 206 124 Z " />
<glyph glyph-name="edieresis" unicode="&#xeb;" horiz-adv-x="574" d="L117 714 L117 597 L252 597 L252 714 Z L323 714 L323 597 L458 597 L458 714 Z L402 314 L171 314 Q172 329 177.5 348 Q183 367 196.5 384 Q210 401 232.5 412.5 Q255 424 289 424 Q341 424 366.5 396 Z L171 224 L544 224 Q548 284 534 339 Q520 394 488.5 437 Q457 480 408 505.5 Q359 531 293 531 Q234 531 185.5 510 Q137 489 102 452.5 Q67 416 48 366 Q29 316 29 258 Q29 198 47.5 148 Q66 98 100 62 Q134 26 183 6.5 Q232 -13 293 -13 Q381 -13 443 27 Q505 67 535 160 L410 160 Q403 136 372 114.5 Q341 93 298 93 Q238 93 206 124 Z " />
<glyph glyph-name="iacute" unicode="&#xed;" horiz-adv-x="258" d="L153 581 L307 723 L150 723 L54 581 Z L58 517 L58 0 L200 0 L200 517 Z " />
<glyph glyph-name="igrave" unicode="&#xec;" horiz-adv-x="258" d="L-47 723 L106 581 L205 581 L109 723 Z L58 517 L58 0 L200 0 L200 517 Z " />
<glyph glyph-name="icircumflex" unicode="&#xee;" horiz-adv-x="258" d="L65 723 L-45 581 L62 581 L126 662 L188 581 L305 581 L195 723 Z L58 517 L58 0 L200 0 L200 517 Z " />
<glyph glyph-name="idieresis" unicode="&#xef;" horiz-adv-x="258" d="L-40 714 L-40 597 L94 597 L94 714 Z L165 714 L165 597 L300 597 L300 714 Z L58 517 L58 0 L200 0 L200 517 Z " />
<glyph glyph-name="ntilde" unicode="&#xf1;" horiz-adv-x="593" d="L480 714 L411 714 Q412 700 402 689.5 Q392 679 369 679 Q352 679 335.5 684.5 Q319 690 303 697 Q287 703 271.5 708.5 Q256 714 239 714 Q206 714 184 703 Q162 692 148 674.5 Q134 657 126 635.5 Q118 614 113 592 L174 592 Q179 611 187.5 622.5 Q196 634 216 634 Q233 634 250 629 Q267 624 286 617 Q305 611 325 605.5 Q345 600 368 600 Q398 600 417.5 611.5 Q437 623 449.5 640 Q462 657 468.5 677 Z L54 517 L54 0 L196 0 L196 271 Q196 350 222 384.5 Q248 419 306 419 Q357 419 377 387.5 Q397 356 397 292 L397 0 L539 0 L539 318 Q539 366 530.5 405.5 Q522 445 501 472.5 Q480 500 443.5 515.5 Q407 531 350 531 Q305 531 262 510.5 Q219 490 192 445 L189 445 L189 517 Z " />
<glyph glyph-name="oacute" unicode="&#xf3;" horiz-adv-x="611" d="L329 581 L483 723 L326 723 L230 581 Z L180 258 Q180 289 186 319 Q192 349 206.5 372 Q221 395 245 409.5 Q269 424 305 424 Q341 424 365.5 409.5 Q390 395 404.5 372 Q419 349 425 319 Q431 289 431 258 Q431 227 425 197.5 Q419 168 404.5 144.5 Q390 121 365.5 107 Q341 93 305 93 Q269 93 245 107 Q221 121 206.5 144.5 Q192 168 186 197.5 Z L38 258 Q38 196 57 146 Q76 96 111 60.5 Q146 25 195 6 Q244 -13 305 -13 Q366 -13 415.5 6 Q465 25 500 60.5 Q535 96 554 146 Q573 196 573 258 Q573 320 554 370.5 Q535 421 500 456.5 Q465 492 415.5 511.5 Q366 531 305 531 Q244 531 195 511.5 Q146 492 111 456.5 Q76 421 57 370.5 Z " />
<glyph glyph-name="ograve" unicode="&#xf2;" horiz-adv-x="611" d="L128 723 L282 581 L381 581 L285 723 Z L180 258 Q180 289 186 319 Q192 349 206.5 372 Q221 395 245 409.5 Q269 424 305 424 Q341 424 365.5 409.5 Q390 395 404.5 372 Q419 349 425 319 Q431 289 431 258 Q431 227 425 197.5 Q419 168 404.5 144.5 Q390 121 365.5 107 Q341 93 305 93 Q269 93 245 107 Q221 121 206.5 144.5 Q192 168 186 197.5 Z L38 258 Q38 196 57 146 Q76 96 111 60.5 Q146 25 195 6 Q244 -13 305 -13 Q366 -13 415.5 6 Q465 25 500 60.5 Q535 96 554 146 Q573 196 573 258 Q573 320 554 370.5 Q535 421 500 456.5 Q465 492 415.5 511.5 Q366 531 305 531 Q244 531 195 511.5 Q146 492 111 456.5 Q76 421 57 370.5 Z " />
<glyph glyph-name="ocircumflex" unicode="&#xf4;" horiz-adv-x="611" d="L241 723 L130 581 L238 581 L302 662 L364 581 L481 581 L371 723 Z L180 258 Q180 289 186 319 Q192 349 206.5 372 Q221 395 245 409.5 Q269 424 305 424 Q341 424 365.5 409.5 Q390 395 404.5 372 Q419 349 425 319 Q431 289 431 258 Q431 227 425 197.5 Q419 168 404.5 144.5 Q390 121 365.5 107 Q341 93 305 93 Q269 93 245 107 Q221 121 206.5 144.5 Q192 168 186 197.5 Z L38 258 Q38 196 57 146 Q76 96 111 60.5 Q146 25 195 6 Q244 -13 305 -13 Q366 -13 415.5 6 Q465 25 500 60.5 Q535 96 554 146 Q573 196 573 258 Q573 320 554 370.5 Q535 421 500 456.5 Q465 492 415.5 511.5 Q366 531 305 531 Q244 531 195 511.5 Q146 492 111 456.5 Q76 421 57 370.5 Z " />
<glyph glyph-name="odieresis" unicode="&#xf6;" horiz-adv-x="611" d="L135 714 L135 597 L270 597 L270 714 Z L341 714 L341 597 L476 597 L476 714 Z L180 258 Q180 289 186 319 Q192 349 206.5 372 Q221 395 245 409.5 Q269 424 305 424 Q341 424 365.5 409.5 Q390 395 404.5 372 Q419 349 425 319 Q431 289 431 258 Q431 227 425 197.5 Q419 168 404.5 144.5 Q390 121 365.5 107 Q341 93 305 93 Q269 93 245 107 Q221 121 206.5 144.5 Q192 168 186 197.5 Z L38 258 Q38 196 57 146 Q76 96 111 60.5 Q146 25 195 6 Q244 -13 305 -13 Q366 -13 415.5 6 Q465 25 500 60.5 Q535 96 554 146 Q573 196 573 258 Q573 320 554 370.5 Q535 421 500 456.5 Q465 492 415.5 511.5 Q366 531 305 531 Q244 531 195 511.5 Q146 492 111 456.5 Q76 421 57 370.5 Z " />
<glyph glyph-name="otilde" unicode="&#xf5;" horiz-adv-x="611" d="L489 714 L420 714 Q421 700 411 689.5 Q401 679 378 679 Q361 679 344.5 684.5 Q328 690 312 697 Q296 703 280.5 708.5 Q265 714 248 714 Q215 714 193 703 Q171 692 157 674.5 Q143 657 135 635.5 Q127 614 122 592 L183 592 Q188 611 196.5 622.5 Q205 634 225 634 Q242 634 259 629 Q276 624 295 617 Q314 611 334 605.5 Q354 600 377 600 Q407 600 426.5 611.5 Q446 623 458.5 640 Q471 657 477.5 677 Z L180 258 Q180 289 186 319 Q192 349 206.5 372 Q221 395 245 409.5 Q269 424 305 424 Q341 424 365.5 409.5 Q390 395 404.5 372 Q419 349 425 319 Q431 289 431 258 Q431 227 425 197.5 Q419 168 404.5 144.5 Q390 121 365.5 107 Q341 93 305 93 Q269 93 245 107 Q221 121 206.5 144.5 Q192 168 186 197.5 Z L38 258 Q38 196 57 146 Q76 96 111 60.5 Q146 25 195 6 Q244 -13 305 -13 Q366 -13 415.5 6 Q465 25 500 60.5 Q535 96 554 146 Q573 196 573 258 Q573 320 554 370.5 Q535 421 500 456.5 Q465 492 415.5 511.5 Q366 531 305 531 Q244 531 195 511.5 Q146 492 111 456.5 Q76 421 57 370.5 Z " />
<glyph glyph-name="uacute" unicode="&#xfa;" horiz-adv-x="593" d="L320 581 L474 723 L317 723 L221 581 Z L539 0 L539 517 L397 517 L397 246 Q397 167 371 132.5 Q345 98 287 98 Q236 98 216 129.5 Q196 161 196 225 L196 517 L54 517 L54 199 Q54 151 62.5 111.5 Q71 72 92 44.5 Q113 17 149.5 2 Q186 -13 243 -13 Q288 -13 331 7 Q374 27 401 72 L404 72 L404 0 Z " />
<glyph glyph-name="ugrave" unicode="&#xf9;" horiz-adv-x="593" d="L119 723 L273 581 L372 581 L276 723 Z L539 0 L539 517 L397 517 L397 246 Q397 167 371 132.5 Q345 98 287 98 Q236 98 216 129.5 Q196 161 196 225 L196 517 L54 517 L54 199 Q54 151 62.5 111.5 Q71 72 92 44.5 Q113 17 149.5 2 Q186 -13 243 -13 Q288 -13 331 7 Q374 27 401 72 L404 72 L404 0 Z " />
<glyph glyph-name="ucircumflex" unicode="&#xfb;" horiz-adv-x="593" d="L232 723 L121 581 L229 581 L293 662 L355 581 L472 581 L362 723 Z L539 0 L539 517 L397 517 L397 246 Q397 167 371 132.5 Q345 98 287 98 Q236 98 216 129.5 Q196 161 196 225 L196 517 L54 517 L54 199 Q54 151 62.5 111.5 Q71 72 92 44.5 Q113 17 149.5 2 Q186 -13 243 -13 Q288 -13 331 7 Q374 27 401 72 L404 72 L404 0 Z " />
<glyph glyph-name="udieresis" unicode="&#xfc;" horiz-adv-x="593" d="L126 714 L126 597 L261 597 L261 714 Z L332 714 L332 597 L467 597 L467 714 Z L539 0 L539 517 L397 517 L397 246 Q397 167 371 132.5 Q345 98 287 98 Q236 98 216 129.5 Q196 161 196 225 L196 517 L54 517 L54 199 Q54 151 62.5 111.5 Q71 72 92 44.5 Q113 17 149.5 2 Q186 -13 243 -13 Q288 -13 331 7 Q374 27 401 72 L404 72 L404 0 Z " />
<glyph glyph-name="dagger" unicode="&#x2020;" horiz-adv-x="556" d="L210 400 L210 -165 L345 -165 L345 400 L532 400 L532 517 L345 517 L345 714 L210 714 L210 517 L24 517 L24 400 Z " />
<glyph glyph-name="degree" unicode="&#xb0;" horiz-adv-x="400" d="L117 566 Q117 584 124 600 Q131 616 142.5 628 Q154 640 169 647 Q184 654 200 654 Q216 654 231 647 Q246 640 257.5 628 Q269 616 276 600 Q283 584 283 566 Q283 548 276 532 Q269 516 257.5 504 Q246 492 231 485 Q216 478 200 478 Q184 478 169 485 Q154 492 142.5 504 Q131 516 124 532 Z L52 566 Q52 535 63.5 508 Q75 481 95 461 Q115 441 142 429.5 Q169 418 200 418 Q231 418 258 429.5 Q285 441 305 461 Q325 481 336.5 508 Q348 535 348 566 Q348 597 336.5 624 Q325 651 305 671 Q285 691 258 702.5 Q231 714 200 714 Q169 714 142 702.5 Q115 691 95 671 Q75 651 63.5 624 Z " />
<glyph glyph-name="cent" unicode="&#xa2;" horiz-adv-x="556" d="L260 -13 L260 -114 L319 -114 L319 -13 Q365 -9 404.5 7 Q444 23 474 50.5 Q504 78 522.5 116.5 Q541 155 545 203 L406 203 Q406 184 399 165.5 Q392 147 380.5 132 Q369 117 353 106.5 Q337 96 319 93 L319 424 Q353 421 377 395.5 Q401 370 404 334 L543 334 Q541 379 521.5 415.5 Q502 452 470.5 477.5 Q439 503 399.5 517 Q360 531 319 531 L319 616 L260 616 L260 531 Q202 526 157.5 503 Q113 480 82.5 442.5 Q52 405 36.5 356 Q21 307 21 250 Q21 197 38 150.5 Q55 104 86.5 68.5 Q118 33 162 11.5 Z L260 423 L260 93 Q232 102 213.5 119.5 Q195 137 184 160.5 Q173 184 168 210.5 Q163 237 163 264 Q163 290 168 315.5 Q173 341 184.5 362.5 Q196 384 214.5 400 Z " />
<glyph glyph-name="sterling" unicode="&#xa3;" horiz-adv-x="556" d="L26 76 L88 -16 Q117 6 146.5 13.5 Q176 21 203 21 Q236 21 258 15 Q280 9 302 1 Q323 -6 348 -11 Q373 -16 411 -16 Q449 -16 490 -2 Q531 12 567 47 L507 148 Q480 119 459.5 112 Q439 105 419 105 Q399 105 380 108.5 Q361 112 341 117 Q321 121 301.5 124.5 Q282 128 262 128 Q248 128 233 124 Q218 120 194 105 L192 107 Q225 133 249.5 166.5 Q274 200 274 247 Q274 264 272.5 279 Q271 294 266 309 L371 309 L371 394 L238 394 Q223 421 214.5 440 Q206 459 202.5 473.5 Q199 488 198 499 Q197 510 197 522 Q197 564 223.5 589 Q250 614 295 614 Q333 614 354.5 598.5 Q376 583 386.5 562 Q397 541 400 518.5 Q403 496 404 481 L539 481 Q539 603 475 667 Q411 731 296 731 Q233 731 185 715 Q137 699 105 671.5 Q73 644 56.5 608 Q40 572 40 532 Q40 487 55 450 Q70 413 85 394 L21 394 L21 309 L120 309 Q128 292 133.5 275.5 Q139 259 139 242 Q139 215 129 190.5 Q119 166 103.5 145 Q88 124 67.5 106.5 Z " />
<glyph glyph-name="section" unicode="&#xa7;" horiz-adv-x="556" d="L370 538 L494 538 Q494 585 477.5 620.5 Q461 656 432.5 681 Q404 706 365.5 718.5 Q327 731 283 731 Q245 731 207.5 720 Q170 709 140.5 687 Q111 665 92.5 632.5 Q74 600 74 558 Q74 526 85 503 Q96 480 117 457 Q66 439 38 402 Q10 365 10 311 Q10 262 36 227 Q62 192 101 166 Q140 140 185 120.5 Q230 101 268 82 Q306 63 331 42 Q356 21 355 -8 Q355 -41 333.5 -57.5 Q312 -74 281 -74 Q236 -74 210.5 -52.5 Q185 -31 183 12 L59 12 Q59 -38 76 -74.5 Q93 -111 123.5 -134.5 Q154 -158 195 -169.5 Q236 -181 284 -181 Q322 -181 360 -170.5 Q398 -160 428.5 -139 Q459 -118 478 -86.5 Q497 -55 497 -13 Q497 22 484 52 Q471 82 442 104 Q490 121 518 160 Q546 199 546 250 Q546 297 521.5 330.5 Q497 364 460 389.5 Q423 415 379 434 Q335 453 297.5 472 Q260 491 235 511.5 Q210 532 209 560 Q209 590 233.5 607 Q258 624 285 624 Q325 624 347.5 599.5 Z L212 380 L377 287 Q395 277 408.5 262 Q422 247 422 224 Q422 216 418.5 206.5 Q415 197 409 188.5 Q403 180 394.5 174.5 Q386 169 376 169 Q367 169 359 171.5 Q351 174 346 176 L166 274 Q149 283 141.5 296 Q134 309 134 323 Q134 334 138 345.5 Q142 357 148.5 366.5 Q155 376 164.5 382.5 Q174 389 185 390 Q193 391 199.5 387 Z " />
<glyph glyph-name="bullet" unicode="&#x2022;" horiz-adv-x="501" d="L72 357 Q72 320 86 287.5 Q100 255 124 230.5 Q148 206 180.5 192 Q213 178 250 178 Q287 178 319.5 192 Q352 206 376.5 230.5 Q401 255 415 287.5 Q429 320 429 357 Q429 394 415 426.5 Q401 459 376.5 483 Q352 507 319.5 521 Q287 535 250 535 Q213 535 180.5 521 Q148 507 124 483 Q100 459 86 426.5 Z " />
<glyph glyph-name="paragraph" unicode="&#xb6;" horiz-adv-x="620" d="L221 357 L221 -165 L323 -165 L323 634 L433 634 L433 -165 L535 -165 L535 714 L242 714 Q190 714 146 705 Q102 696 70 675 Q38 654 20 619 Q2 584 2 532 Q2 451 58.5 404 Z " />
<glyph glyph-name="germandbls" unicode="&#xdf;" horiz-adv-x="611" d="L56 491 L56 0 L198 0 L198 516 Q198 561 221 587.5 Q244 614 287 614 Q298 614 314.5 612 Q331 610 346 601 Q361 592 372 574.5 Q383 557 383 525 Q383 502 374 485 Q365 468 350.5 457 Q336 446 317 441 Q298 436 278 436 Q273 436 267.5 436.5 Q262 437 256 438 L256 344 Q265 345 274 345.5 Q283 346 291 346 Q354 346 383.5 312 Q413 278 413 224 Q413 199 404.5 177 Q396 155 380.5 138.5 Q365 122 344 112.5 Q323 103 297 103 Q286 103 276 104 Q266 105 256 108 L256 -7 Q297 -13 338 -13 Q386 -13 425.5 5.5 Q465 24 494 56 Q523 88 539 130 Q555 172 555 219 Q555 251 547 280.5 Q539 310 522.5 334 Q506 358 482 374.5 Q458 391 425 398 L425 400 Q467 413 492.5 452 Q518 491 518 539 Q518 589 499.5 625 Q481 661 449.5 684.5 Q418 708 377 719.5 Q336 731 291 731 Q216 731 170 709 Q124 687 98.5 652.5 Q73 618 64.5 575.5 Z " />
<glyph glyph-name="registered" unicode="&#xae;" horiz-adv-x="800" d="L334 393 L334 503 L404 503 Q418 503 433.5 501 Q449 499 461.5 493.5 Q474 488 482 478 Q490 468 490 451 Q490 413 467 403 Q444 393 408 393 Z L251 568 L251 149 L334 149 L334 328 L386 328 L488 149 L575 149 L463 332 Q486 334 506 341 Q526 348 541 361 Q556 374 564.5 394.5 Q573 415 573 444 Q573 512 530.5 540 Q488 568 409 568 Z L118 358 Q118 422 140 475.5 Q162 529 200 568 Q238 607 289.5 629 Q341 651 400 651 Q458 651 509.5 629 Q561 607 599 568 Q637 529 659.5 475.5 Q682 422 682 358 Q682 294 659.5 240 Q637 186 599 146.5 Q561 107 509.5 85 Q458 63 400 63 Q341 63 289.5 85 Q238 107 200 146.5 Q162 186 140 240 Z L16 358 Q16 272 47.5 203 Q79 134 132 85 Q185 36 254.5 10 Q324 -16 400 -16 Q476 -16 545.5 10 Q615 36 668 85 Q721 134 752.5 203 Q784 272 784 358 Q784 443 752.5 512 Q721 581 668 629.5 Q615 678 545.5 704.5 Q476 731 400 731 Q324 731 254.5 704.5 Q185 678 132 629.5 Q79 581 47.5 512 Z " />
<glyph glyph-name="copyright" unicode="&#xa9;" horiz-adv-x="800" d="L596 295 L515 295 Q510 259 483 238 Q456 217 414 217 Q387 217 365 228.5 Q343 240 327.5 259.5 Q312 279 303.5 305.5 Q295 332 295 361 Q295 424 325 463.5 Q355 503 412 503 Q451 503 479 483 Q507 463 515 428 L593 428 Q588 466 572 495 Q556 524 532 543.5 Q508 563 477.5 573 Q447 583 412 583 Q362 583 322.5 566 Q283 549 255.5 519 Q228 489 213.5 448 Q199 407 199 359 Q199 312 214.5 271.5 Q230 231 258 201 Q286 171 325.5 154 Q365 137 414 137 Q447 137 477.5 147.5 Q508 158 532.5 178.5 Q557 199 573.5 228.5 Z L118 357 Q118 421 140 475 Q162 529 200 568 Q238 607 289.5 629 Q341 651 400 651 Q458 651 509.5 629 Q561 607 599 568 Q637 529 659.5 475 Q682 421 682 357 Q682 293 659.5 239 Q637 185 599 146 Q561 107 509.5 85 Q458 63 400 63 Q341 63 289.5 85 Q238 107 200 146 Q162 185 140 239 Z L16 357 Q16 272 47.5 203 Q79 134 132 85 Q185 36 254.5 10 Q324 -16 400 -16 Q476 -16 545.5 10 Q615 36 668 85 Q721 134 752.5 203 Q784 272 784 357 Q784 443 752.5 512 Q721 581 668 629.5 Q615 678 545.5 704.5 Q476 731 400 731 Q324 731 254.5 704.5 Q185 678 132 629.5 Q79 581 47.5 512 Z " />
<glyph glyph-name="trademark" unicode="&#x2122;" horiz-adv-x="1000" d="L398 634 L398 714 L62 714 L62 634 L179 634 L179 302 L281 302 L281 634 Z L928 302 L928 714 L793 714 L690 443 L587 714 L451 714 L451 302 L547 302 L547 594 L549 594 L655 302 L724 302 L830 594 L832 594 L832 302 Z " />
<glyph glyph-name="acute" unicode="&#xb4;" horiz-adv-x="259" d="L54 581 L150 723 L307 723 L153 581 Z " />
<glyph glyph-name="dieresis" unicode="&#xa8;" horiz-adv-x="259" d="L94 714 L94 597 L-40 597 L-40 714 Z L300 714 L300 597 L165 597 L165 714 Z " />
<glyph glyph-name="notequal" unicode="&#x2260;" horiz-adv-x="600" d="L106 -7 L156 92 L48 92 L48 199 L211 199 L265 306 L48 306 L48 413 L320 413 L401 571 L490 526 L432 413 L553 413 L553 306 L378 306 L323 199 L553 199 L553 92 L269 92 L195 -53 Z " />
<glyph glyph-name="AE" unicode="&#xc6;" horiz-adv-x="981" d="L330 714 L-10 0 L156 0 L228 159 L452 159 L452 0 L944 0 L944 132 L604 132 L604 307 L916 307 L916 429 L604 429 L604 582 L936 582 L936 714 Z L280 276 L418 582 L452 582 L452 276 Z " />
<glyph glyph-name="Oslash" unicode="&#xd8;" horiz-adv-x="778" d="L261 164 L556 490 Q570 459 576.5 424.5 Q583 390 583 354 Q583 309 572.5 266.5 Q562 224 539 190 Q516 156 479 135.5 Q442 115 389 115 Q347 115 315.5 128 Z L519 548 L223 219 Q208 250 201.5 284.5 Q195 319 195 354 Q195 401 205.5 445 Q216 489 239 523.5 Q262 558 299 578.5 Q336 599 389 599 Q432 599 464 585 Z L120 105 L34 10 L83 -32 L166 59 Q208 24 264 4 Q320 -16 389 -16 Q472 -16 537 12.5 Q602 41 647 91 Q692 141 716 208.5 Q740 276 740 354 Q740 429 719.5 492 Q699 555 660 606 L744 699 L694 743 L614 654 Q571 691 514.5 711 Q458 731 389 731 Q307 731 241.5 702 Q176 673 131 622 Q86 571 62 502.5 Q38 434 38 354 Q38 282 58 219 Z " />
<glyph glyph-name="infinity" unicode="&#x221e;" horiz-adv-x="823" d="L220 69 Q179 69 147 83.5 Q115 98 92 122.5 Q69 147 57 181 Q45 215 45 254 Q45 293 56.5 326.5 Q68 360 90 384.5 Q112 409 144 423.5 Q176 438 216 438 Q249 438 276.5 428 Q304 418 327.5 401.5 Q351 385 371.5 363.5 Q392 342 412 318 Q431 341 451.5 363 Q472 385 495.5 401.5 Q519 418 546.5 428 Q574 438 606 438 Q646 438 678 424 Q710 410 732 385.5 Q754 361 766 328 Q778 295 778 256 Q778 217 766 183 Q754 149 732 123.5 Q710 98 677.5 83.5 Q645 69 605 69 Q574 69 547 78.5 Q520 88 496.5 103.5 Q473 119 452 139.5 Q431 160 412 182 Q391 160 371 139.5 Q351 119 328.5 103.5 Q306 88 279.5 78.5 Z L219 170 Q238 170 257 177.5 Q276 185 293 196.5 Q310 208 325 222.5 Q340 237 352 251 Q340 264 324 279.5 Q308 295 290.5 308 Q273 321 254 329.5 Q235 338 216 338 Q181 338 160.5 311.5 Q140 285 140 252 Q140 216 161 193 Z L607 170 Q644 170 664 194 Q684 218 684 253 Q684 288 662.5 313 Q641 338 604 338 Q584 338 565.5 329.5 Q547 321 530.5 308 Q514 295 499 279.5 Q484 264 472 251 Q485 236 500 221.5 Q515 207 532 195.5 Q549 184 567.5 177 Z " />
<glyph glyph-name="plusminus" unicode="&#xb1;" horiz-adv-x="600" d="L48 107 L48 0 L553 0 L553 107 Z L354 375 L354 506 L247 506 L247 375 L48 375 L48 268 L247 268 L247 137 L354 137 L354 268 L553 268 L553 375 Z " />
<glyph glyph-name="lessequal" unicode="&#x2264;" horiz-adv-x="600" d="L48 66 L553 66 L553 -35 L48 -35 Z L48 272 L48 375 L553 554 L553 447 L186 324 L553 207 L553 100 Z " />
<glyph glyph-name="greaterequal" unicode="&#x2265;" horiz-adv-x="600" d="L49 -35 L49 66 L554 66 L554 -35 Z L49 100 L49 207 L416 324 L49 447 L49 554 L554 375 L554 272 Z " />
<glyph glyph-name="yen" unicode="&#xa5;" horiz-adv-x="556" d="L207 0 L359 0 L359 138 L517 138 L517 233 L359 233 L359 279 L374 308 L517 308 L517 403 L422 403 L577 714 L415 714 L286 403 L154 714 L-8 714 L145 403 L50 403 L50 308 L193 308 L207 279 L207 233 L50 233 L50 138 L207 138 Z " />
<glyph glyph-name="mu" unicode="&#xb5;" horiz-adv-x="593" d="L539 0 L539 517 L397 517 L397 246 Q397 167 371 132.5 Q345 98 287 98 Q236 98 216 129.5 Q196 161 196 225 L196 517 L54 517 L54 -181 L196 -181 L196 10 Q205 0 223 -6.5 Q241 -13 271 -13 Q283 -13 299.5 -8 Q316 -3 334 7.5 Q352 18 369.5 34 Q387 50 401 72 L404 72 L404 0 Z " />
<glyph glyph-name="partialdiff" unicode="&#x2202;" horiz-adv-x="560" d="L259 -13 Q208 -13 167 4 Q126 21 96.5 52 Q67 83 51 125 Q35 167 35 217 Q35 265 51 305.5 Q67 346 95.5 376 Q124 406 164.5 422.5 Q205 439 253 439 Q293 439 326.5 426 Q360 413 391 388 L391 406 Q391 440 384.5 479 Q378 518 362 551 Q346 584 318 605.5 Q290 627 247 627 Q209 627 182 613.5 Q155 600 126 577 L61 651 Q103 684 144.5 702.5 Q186 721 241 721 Q319 721 371.5 689 Q424 657 456 606 Q488 555 501.5 490 Q515 425 515 359 Q515 295 504.5 229 Q494 163 466 109 Q438 55 388 21 Z L262 78 Q297 78 321.5 97 Q346 116 361 146 Q376 176 383 214 Q390 252 390 290 Q367 318 337.5 333.5 Q308 349 271 349 Q241 349 219 337.5 Q197 326 182 307 Q167 288 160 263 Q153 238 153 211 Q153 185 159.5 161.5 Q166 138 179 119 Q192 100 212.5 89 Z " />
<glyph glyph-name="summation" unicode="&#x2211;" horiz-adv-x="618" d="L5 -114 L304 292 L18 687 L18 786 L602 786 L602 671 L182 671 L451 293 L164 -100 L613 -100 L613 -214 L5 -214 Z " />
<glyph glyph-name="product" unicode="&#x220f;" horiz-adv-x="749" d="L69 786 L680 786 L680 -214 L545 -214 L545 669 L204 669 L204 -214 L69 -214 Z " />
<glyph glyph-name="pi" unicode="&#x3c0;" horiz-adv-x="666" d="L532 -7 Q499 -7 477 3 Q455 13 442.5 30.5 Q430 48 424.5 72 Q419 96 419 123 L419 410 L235 410 L235 0 L100 0 L100 410 L30 410 L30 517 L633 517 L633 410 L554 410 L554 168 Q554 157 554.5 146.5 Q555 136 559 127.5 Q563 119 570.5 114 Q578 109 592 109 Q613 109 636 119 L636 13 Q615 3 585 -2 Z " />
<glyph glyph-name="integral" unicode="&#x222b;" horiz-adv-x="417" d="L117 -213 Q99 -213 78.5 -208 Q58 -203 40.5 -193 Q23 -183 11.5 -167.5 Q0 -152 0 -131 Q0 -107 16.5 -92 Q33 -77 57 -77 Q81 -77 91.5 -89.5 Q102 -102 107.5 -117 Q113 -132 116.5 -144.5 Q120 -157 131 -157 Q144 -157 147 -145.5 Q150 -134 150 -124 Q150 -92 147.5 -60.5 Q145 -29 145 3 L145 524 Q145 568 148 614 Q151 660 166 698 Q181 736 213.5 760.5 Q246 785 305 785 Q322 785 341.5 780.5 Q361 776 378 766.5 Q395 757 406 742.5 Q417 728 417 707 Q417 683 401.5 665.5 Q386 648 361 648 Q337 648 326 660.5 Q315 673 309.5 687.5 Q304 702 299.5 714.5 Q295 727 285 727 Q273 727 270 716.5 Q267 706 267 697 Q267 659 269 621.5 Q271 584 271 546 L271 67 Q271 23 269 -26.5 Q267 -76 253 -117.5 Q239 -159 207.5 -186 Z " />
<glyph glyph-name="ordfeminine" unicode="&#xaa;" horiz-adv-x="344" d="L20 605 L122 605 Q124 628 139 638.5 Q154 649 171 649 Q196 649 213.5 642.5 Q231 636 231 610 Q231 598 222.5 591.5 Q214 585 200 581.5 Q186 578 166.5 576.5 Q147 575 124 572 Q103 569 82.5 564 Q62 559 46 548.5 Q30 538 20 520.5 Q10 503 10 475 Q10 422 42.5 398.5 Q75 375 122 375 Q149 375 178.5 383.5 Q208 392 230 415 Q231 407 233 399.5 Q235 392 237 384 L338 384 Q326 407 326 459 L326 625 Q326 653 312.5 670.5 Q299 688 277.5 697.5 Q256 707 229 710.5 Q202 714 176 714 Q148 714 122 709 Q96 704 75 692 Q54 680 39.5 659 Z L230 535 L230 515 Q230 503 228 490 Q226 477 218.5 466 Q211 455 196.5 447.5 Q182 440 157 440 Q143 440 127.5 447.5 Q112 455 112 477 Q112 496 127 504 Q142 512 163 517 Q178 520 198.5 522.5 Z " />
<glyph glyph-name="ordmasculine" unicode="&#xba;" horiz-adv-x="367" d="L119 544 Q119 561 122.5 578 Q126 595 134 608.5 Q142 622 154 630.5 Q166 639 183 639 Q200 639 212.5 630.5 Q225 622 233 608.5 Q241 595 244.5 578 Q248 561 248 544 Q248 528 244.5 511 Q241 494 233 480.5 Q225 467 212.5 458.5 Q200 450 183 450 Q166 450 154 458.5 Q142 467 134 480.5 Q126 494 122.5 511 Z L12 544 Q12 465 58.5 420 Q105 375 183 375 Q261 375 308 420 Q355 465 355 544 Q355 623 308 668.5 Q261 714 183 714 Q105 714 58.5 668.5 Z " />
<glyph glyph-name="Omegagreek" unicode="&#x3a9;" horiz-adv-x="773" d="L57 107 L237 107 L237 144 Q192 157 158 182.5 Q124 208 100.5 243 Q77 278 65.5 320 Q54 362 54 407 Q54 477 80.5 535 Q107 593 152.5 634.5 Q198 676 258.5 698.5 Q319 721 387 721 Q455 721 515.5 698.5 Q576 676 621 635.5 Q666 595 692.5 537 Q719 479 719 409 Q719 364 707.5 321.5 Q696 279 673 243.5 Q650 208 615.5 182 Q581 156 535 144 L535 107 L716 107 L716 0 L435 0 L435 200 Q510 217 547 270 Q584 323 584 398 Q584 441 570 479 Q556 517 530.5 545.5 Q505 574 469 590.5 Q433 607 388 607 Q343 607 306.5 590 Q270 573 243.5 544 Q217 515 203 476.5 Q189 438 189 395 Q189 320 225.5 268.5 Q262 217 337 200 L337 0 L57 0 Z " />
<glyph glyph-name="ae" unicode="&#xe6;" horiz-adv-x="907" d="L736 314 L509 314 Q509 338 517 360 Q525 382 540 399 Q555 416 576.5 426 Q598 436 625 436 Q652 436 672.5 426 Q693 416 707.5 399 Q722 382 729 360 Z L509 224 L878 224 Q878 284 865 339.5 Q852 395 823.5 437.5 Q795 480 750 505.5 Q705 531 640 531 Q577 531 537 513.5 Q497 496 467 461 Q453 481 433 494.5 Q413 508 390 516 Q367 524 343 527.5 Q319 531 296 531 Q251 531 207.5 522 Q164 513 130.5 492.5 Q97 472 75.5 438.5 Q54 405 52 356 L194 356 Q196 401 223.5 418.5 Q251 436 293 436 Q310 436 326.5 433.5 Q343 431 356 423.5 Q369 416 377 403 Q385 390 385 370 Q385 350 375 339 Q365 328 343.5 321.5 Q322 315 289 310 Q256 305 211 298 Q179 293 148 284.5 Q117 276 92.5 258.5 Q68 241 53 212.5 Q38 184 38 140 Q38 97 54.5 67.5 Q71 38 98 20 Q125 2 159.5 -5.5 Q194 -13 231 -13 Q260 -13 290 -8.5 Q320 -4 347.5 6.5 Q375 17 399.5 33.5 Q424 50 442 74 Q475 27 527 7 Q579 -13 635 -13 Q677 -13 715.5 -1.5 Q754 10 785 32.5 Q816 55 839 87.5 Q862 120 873 162 L735 162 Q728 124 704 102.5 Q680 81 632 81 Q602 81 579 94 Q556 107 540 127 Q524 147 516 173 Z L385 252 L385 188 Q385 160 374 139.5 Q363 119 346 106 Q329 93 308.5 87 Q288 81 268 81 Q252 81 236 84 Q220 87 207.5 95 Q195 103 187.5 116 Q180 129 180 148 Q180 173 191.5 187 Q203 201 221.5 209 Q240 217 263 220.5 Q286 224 308.5 227.5 Q331 231 351.5 236 Z " />
<glyph glyph-name="oslash" unicode="&#xf8;" horiz-adv-x="611" d="L104 69 L44 1 L81 -30 L140 36 Q207 -13 305 -13 Q366 -13 415.5 6 Q465 25 500 60.5 Q535 96 554 146 Q573 196 573 258 Q573 318 555 367 Q537 416 504 451 L558 512 L521 544 L468 483 Q401 531 305 531 Q244 531 195 511.5 Q146 492 111 456.5 Q76 421 57 370.5 Q38 320 38 258 Z L220 127 L415 349 Q423 329 427 305.5 Q431 282 431 258 Q431 227 425 197.5 Q419 168 404.5 144.5 Q390 121 365.5 107 Q341 93 305 93 Q276 93 255 102 Z L388 392 L195 172 Q187 191 183.5 213 Q180 235 180 258 Q180 289 186 319 Q192 349 206.5 372 Q221 395 245 409.5 Q269 424 305 424 Z " />
<glyph glyph-name="questiondown" unicode="&#xbf;" horiz-adv-x="556" d="L363 377 L363 531 L206 531 L206 377 Z L522 51 L375 51 Q375 25 369 1.5 Q363 -22 350.5 -39.5 Q338 -57 319 -67.5 Q300 -78 274 -78 Q234 -78 211.5 -56 Q189 -34 189 11 Q188 38 198.5 56 Q209 74 226 89 Q243 104 263 119 Q283 134 301 154.5 Q319 175 332.5 204 Q346 233 349 276 L349 321 L214 321 L214 283 Q210 253 195 233 Q180 213 159.5 197 Q139 181 117 166 Q95 151 76 129 Q57 107 44.5 76 Q32 45 32 -2 Q32 -31 44.5 -64.5 Q57 -98 86 -127 Q115 -156 163 -175.5 Q211 -195 281 -195 Q335 -195 379 -176.5 Q423 -158 454.5 -125 Q486 -92 503.5 -47 Z " />
<glyph glyph-name="exclamdown" unicode="&#xa1;" horiz-adv-x="278" d="L65 9 L65 -182 L213 -182 L213 9 L175 317 L104 317 Z L218 377 L218 531 L61 531 L61 377 Z " />
<glyph glyph-name="logicalnot" unicode="&#xac;" horiz-adv-x="600" d="L552 99 L552 406 L48 406 L48 299 L445 299 L445 99 Z " />
<glyph glyph-name="radical" unicode="&#x221a;" horiz-adv-x="565" d="L92 96 L40 71 L-5 168 L155 241 L278 -23 L443 786 L570 786 L356 -214 L242 -214 Z " />
<glyph glyph-name="florin" unicode="&#x192;" horiz-adv-x="556" d="L14 -59 L-4 -166 Q16 -168 33 -168.5 Q50 -169 69 -169 Q125 -169 161 -157 Q197 -145 220 -120.5 Q243 -96 256 -59.5 Q269 -23 278 27 L334 337 L434 337 L450 432 L352 432 L377 562 Q383 594 398.5 609 Q414 624 453 624 Q463 624 472.5 623 Q482 622 493 617 L511 724 Q479 731 436 731 Q387 731 352 722 Q317 713 293 692.5 Q269 672 254 639 Q239 606 230 559 L206 432 L115 432 L97 337 L189 337 L126 8 Q120 -26 106 -44.5 Q92 -63 54 -62 Z " />
<glyph glyph-name="approxequal" unicode="&#x2248;" horiz-adv-x="600" d="L32 65 Q35 96 44.5 127 Q54 158 71.5 183 Q89 208 115.5 223 Q142 238 178 238 Q209 238 241.5 227.5 Q274 217 307 205 Q340 193 372.5 182.5 Q405 172 435 172 Q463 172 477.5 192.5 Q492 213 497 238 L568 238 Q565 205 555.5 174 Q546 143 528.5 119 Q511 95 484.5 80 Q458 65 420 65 Q390 65 355 76 Q320 87 285 99.5 Q250 112 219 123 Q188 134 167 134 Q139 134 123.5 111.5 Q108 89 103 65 L32 65 Z L32 272 Q35 303 44.5 334 Q54 365 71.5 390 Q89 415 115.5 430 Q142 445 178 445 Q209 445 241.5 434.5 Q274 424 307 412 Q340 400 372.5 389.5 Q405 379 435 379 Q463 379 477.5 399.5 Q492 420 497 445 L568 445 Q565 412 555.5 381 Q546 350 528.5 326 Q511 302 484.5 287 Q458 272 420 272 Q390 272 355 283 Q320 294 285 306.5 Q250 319 219 330 Q188 341 167 341 Q139 341 123.5 318.5 Q108 296 103 272 L32 272 Z " />
<glyph glyph-name="increment" unicode="&#x2206;" horiz-adv-x="686" d="L264 714 L425 714 L692 0 L-6 0 Z L499 117 L344 553 L342 553 L182 117 Z " />
<glyph glyph-name="guillemotleft" unicode="&#xab;" horiz-adv-x="444" d="L42 205 L199 80 L199 200 L109 272 L199 343 L199 463 L42 340 Z L245 205 L402 80 L402 200 L312 272 L402 343 L402 463 L245 340 Z " />
<glyph glyph-name="guillemotright" unicode="&#xbb;" horiz-adv-x="444" d="L199 340 L42 463 L42 343 L132 272 L42 200 L42 80 L199 205 Z L402 340 L245 463 L245 343 L335 272 L245 200 L245 80 L402 205 Z " />
<glyph glyph-name="ellipsis" unicode="&#x2026;" horiz-adv-x="1000" d="L754 154 L754 0 L911 0 L911 154 Z L421 154 L421 0 L578 0 L578 154 Z L88 154 L88 0 L245 0 L245 154 Z " />
<glyph glyph-name="nbspace" unicode="&#xa0;" horiz-adv-x="278" />
<glyph glyph-name="Agrave" unicode="&#xc0;" horiz-adv-x="685" d="L165 920 L319 778 L418 778 L322 920 Z L249 276 L342 538 L344 538 L434 276 Z L264 714 L-6 0 L152 0 L208 159 L475 159 L529 0 L692 0 L425 714 Z " />
<glyph glyph-name="Atilde" unicode="&#xc3;" horiz-adv-x="685" d="L526 911 L457 911 Q458 897 448 886.5 Q438 876 415 876 Q398 876 381.5 881.5 Q365 887 349 894 Q333 900 317.5 905.5 Q302 911 285 911 Q252 911 230 900 Q208 889 194 871.5 Q180 854 172 832.5 Q164 811 159 789 L220 789 Q225 808 233.5 819.5 Q242 831 262 831 Q279 831 296 826 Q313 821 332 814 Q351 808 371 802.5 Q391 797 414 797 Q444 797 463.5 808.5 Q483 820 495.5 837 Q508 854 514.5 874 Z L249 276 L342 538 L344 538 L434 276 Z L264 714 L-6 0 L152 0 L208 159 L475 159 L529 0 L692 0 L425 714 Z " />
<glyph glyph-name="Otilde" unicode="&#xd5;" horiz-adv-x="778" d="L573 911 L504 911 Q505 897 495 886.5 Q485 876 462 876 Q445 876 428.5 881.5 Q412 887 396 894 Q380 900 364.5 905.5 Q349 911 332 911 Q299 911 277 900 Q255 889 241 871.5 Q227 854 219 832.5 Q211 811 206 789 L267 789 Q272 808 280.5 819.5 Q289 831 309 831 Q326 831 343 826 Q360 821 379 814 Q398 808 418 802.5 Q438 797 461 797 Q491 797 510.5 808.5 Q530 820 542.5 837 Q555 854 561.5 874 Z L195 354 Q195 401 205.5 445 Q216 489 239 523.5 Q262 558 299 578.5 Q336 599 389 599 Q442 599 479 578.5 Q516 558 539 523.5 Q562 489 572.5 445 Q583 401 583 354 Q583 309 572.5 266.5 Q562 224 539 190 Q516 156 479 135.5 Q442 115 389 115 Q336 115 299 135.5 Q262 156 239 190 Q216 224 205.5 266.5 Z L38 354 Q38 276 62 208.5 Q86 141 131 91 Q176 41 241.5 12.5 Q307 -16 389 -16 Q472 -16 537 12.5 Q602 41 647 91 Q692 141 716 208.5 Q740 276 740 354 Q740 434 716 502.5 Q692 571 647 622 Q602 673 537 702 Q472 731 389 731 Q307 731 241.5 702 Q176 673 131 622 Q86 571 62 502.5 Z " />
<glyph glyph-name="OE" unicode="&#x152;" horiz-adv-x="1093" d="L538 448 L538 278 Q538 205 495.5 160 Q453 115 381 115 Q331 115 295.5 136 Q260 157 237.5 191 Q215 225 205 268 Q195 311 195 355 Q195 400 205 443.5 Q215 487 237.5 521.5 Q260 556 296 577.5 Q332 599 384 599 Q417 599 445.5 588 Q474 577 494.5 557 Q515 537 526.5 509.5 Z L544 54 L544 0 L1051 0 L1051 132 L690 132 L690 307 L1014 307 L1014 429 L690 429 L690 582 L1044 582 L1044 714 L544 714 L544 663 L542 663 Q512 701 466 716 Q420 731 373 731 Q294 731 231.5 700 Q169 669 126 616.5 Q83 564 60.5 495.5 Q38 427 38 353 Q38 279 60 212 Q82 145 124.5 94.5 Q167 44 229 14 Q291 -16 370 -16 Q418 -16 464 1.5 Q510 19 542 54 Z " />
<glyph glyph-name="oe" unicode="&#x153;" horiz-adv-x="926" d="L528 224 L897 224 Q897 286 883 341.5 Q869 397 838.5 439 Q808 481 760 506 Q712 531 643 531 Q620 531 595 525.5 Q570 520 546.5 509.5 Q523 499 503 484 Q483 469 470 449 Q441 494 392 512.5 Q343 531 292 531 Q234 531 187 510 Q140 489 107 453 Q74 417 56 367.5 Q38 318 38 261 Q38 206 53.5 156 Q69 106 99.5 68.5 Q130 31 175.5 9 Q221 -13 281 -13 Q307 -13 333.5 -8.5 Q360 -4 384.5 6.5 Q409 17 429.5 33.5 Q450 50 464 74 Q494 26 545.5 6.5 Q597 -13 651 -13 Q739 -13 803.5 33 Q868 79 893 164 L755 164 Q741 129 715.5 111 Q690 93 651 93 Q589 93 558.5 130.5 Z L290 93 Q258 93 237 108.5 Q216 124 203 148 Q190 172 185 200.5 Q180 229 180 256 Q180 286 185.5 316 Q191 346 204 370 Q217 394 238.5 409 Q260 424 293 424 Q329 424 350.5 408 Q372 392 384 368 Q396 344 400 315 Q404 286 404 260 Q404 232 399.5 202.5 Q395 173 382.5 148.5 Q370 124 348 108.5 Z L755 314 L528 314 Q530 360 558 392 Q586 424 640 424 Q697 424 725 394.5 Z " />
<glyph glyph-name="endash" unicode="&#x2013;" horiz-adv-x="500" d="L0 334 L0 212 L500 212 L500 334 Z " />
<glyph glyph-name="emdash" unicode="&#x2014;" horiz-adv-x="1000" d="L130 334 L130 212 L870 212 L870 334 Z " />
<glyph glyph-name="quotedblleft" unicode="&#x201c;" horiz-adv-x="463" d="L196 393 L196 547 L130 547 Q130 584 144 609.5 Q158 635 196 648 L196 714 Q165 710 138.5 695.5 Q112 681 93 659 Q74 637 63.5 608 Q53 579 54 546 L54 393 Z L409 393 L409 547 L343 547 Q343 584 357 609.5 Q371 635 409 648 L409 714 Q378 710 351.5 695.5 Q325 681 306 659 Q287 637 276.5 608 Q266 579 267 546 L267 393 Z " />
<glyph glyph-name="quotedblright" unicode="&#x201d;" horiz-adv-x="463" d="L54 714 L54 560 L120 560 Q120 523 106 497.5 Q92 472 54 459 L54 393 Q85 397 111.5 411.5 Q138 426 157 448 Q176 470 186.5 499 Q197 528 196 561 L196 714 Z L267 714 L267 560 L333 560 Q333 523 319 497.5 Q305 472 267 459 L267 393 Q298 397 324.5 411.5 Q351 426 370 448 Q389 470 399.5 499 Q410 528 409 561 L409 714 Z " />
<glyph glyph-name="quoteleft" unicode="&#x2018;" horiz-adv-x="278" d="L210 393 L210 547 L144 547 Q144 584 158 609.5 Q172 635 210 648 L210 714 Q179 710 152.5 695.5 Q126 681 107 659 Q88 637 77.5 608 Q67 579 68 546 L68 393 Z " />
<glyph glyph-name="quoteright" unicode="&#x2019;" horiz-adv-x="278" d="L68 714 L68 560 L134 560 Q134 523 120 497.5 Q106 472 68 459 L68 393 Q99 397 125.5 411.5 Q152 426 171 448 Q190 470 200.5 499 Q211 528 210 561 L210 714 Z " />
<glyph glyph-name="divide" unicode="&#xf7;" horiz-adv-x="600" d="L216 45 Q216 29 223 13.5 Q230 -2 241.5 -13.5 Q253 -25 268.5 -32 Q284 -39 302 -39 Q319 -39 334 -31.5 Q349 -24 360 -12 Q371 0 378 15 Q385 30 385 45 Q385 63 378 78 Q371 93 359.5 104.5 Q348 116 333 122.5 Q318 129 301 129 Q284 129 268.5 122.5 Q253 116 241.5 104.5 Q230 93 223 78 Z L216 460 Q216 443 223 427.5 Q230 412 241.5 400.5 Q253 389 268.5 382.5 Q284 376 302 376 Q319 376 334 383 Q349 390 360 402 Q371 414 378 429 Q385 444 385 460 Q385 478 378 493.5 Q371 509 359.5 520.5 Q348 532 333 538.5 Q318 545 301 545 Q267 545 241.5 520.5 Z L48 306 L48 199 L553 199 L553 306 Z " />
<glyph glyph-name="lozenge" unicode="&#x25ca;" horiz-adv-x="600" d="L65 349 L245 733 L355 733 L536 349 L355 -35 L245 -35 Z L415 349 L300 615 L185 349 L300 82 Z " />
<glyph glyph-name="ydieresis" unicode="&#xff;" horiz-adv-x="519" d="L89 714 L89 597 L224 597 L224 714 Z L295 714 L295 597 L430 597 L430 714 Z L309 -64 L525 517 L378 517 L265 163 L263 163 L146 517 L-5 517 L176 32 Q182 17 182 0 Q182 -23 168.5 -42 Q155 -61 127 -64 Q106 -65 85 -63 Q64 -61 44 -59 L44 -176 Q66 -178 87.5 -179.5 Q109 -181 131 -181 Q204 -181 245 -154 Z " />
<glyph glyph-name="Ydieresis" unicode="&#x178;" horiz-adv-x="667" d="L163 911 L163 794 L298 794 L298 911 Z L369 911 L369 794 L504 794 L504 911 Z L254 278 L254 0 L411 0 L411 274 L676 714 L501 714 L335 432 L168 714 L-8 714 Z " />
<glyph glyph-name="fraction" unicode="&#x2044;" horiz-adv-x="167" d="L248 722 L-165 -21 L-78 -21 L333 722 Z " />
<glyph glyph-name="Euro" unicode="&#x20ac;" horiz-adv-x="556" d="L515 547 L576 672 Q478 722 394 722 Q275 722 196 646 Q121 576 97 455 L46 455 L15 383 L88 383 Q87 381 87 367 L87 341 L47 341 L16 269 L93 269 Q114 138 184 65 Q261 -16 387 -16 Q474 -16 541 23 L542 174 Q463 111 388 111 Q272 111 240 269 L414 269 L445 341 L232 341 L233 383 L457 383 L488 455 L244 455 Q279 592 384 592 Z " />
<glyph glyph-name="guilsinglleft" unicode="&#x2039;" horiz-adv-x="241" d="L42 205 L199 80 L199 200 L109 272 L199 343 L199 463 L42 340 Z " />
<glyph glyph-name="guilsinglright" unicode="&#x203a;" horiz-adv-x="241" d="L199 340 L42 463 L42 343 L132 272 L42 200 L42 80 L199 205 Z " />
<glyph glyph-name="fi" unicode="&#xfb01;" horiz-adv-x="611" d="L85 422 L85 0 L227 0 L227 422 L325 422 L325 517 L227 517 L227 548 Q227 580 239.5 593.5 Q252 607 281 607 Q308 607 333 604 L333 710 Q315 711 296 712.5 Q277 714 258 714 Q171 714 128 670 Q85 626 85 557 L85 517 L0 517 L0 422 Z L411 517 L411 0 L553 0 L553 517 Z L553 597 L553 714 L411 714 L411 597 Z " />
<glyph glyph-name="fl" unicode="&#xfb02;" horiz-adv-x="611" d="L85 422 L85 0 L227 0 L227 422 L325 422 L325 517 L227 517 L227 548 Q227 580 239.5 593.5 Q252 607 281 607 Q308 607 333 604 L333 710 Q315 711 296 712.5 Q277 714 258 714 Q171 714 128 670 Q85 626 85 557 L85 517 L0 517 L0 422 Z L411 714 L411 0 L553 0 L553 714 Z " />
<glyph glyph-name="daggerdbl" unicode="&#x2021;" horiz-adv-x="556" d="L210 27 L210 -165 L345 -165 L345 27 L532 27 L532 144 L345 144 L345 400 L532 400 L532 517 L345 517 L345 714 L210 714 L210 517 L24 517 L24 400 L210 400 L210 144 L24 144 L24 27 Z " />
<glyph glyph-name="middot" unicode="&#xb7;" horiz-adv-x="278" d="L55 287 Q55 270 62 254.5 Q69 239 80.5 227.5 Q92 216 107.5 209.5 Q123 203 141 203 Q158 203 173 210 Q188 217 199 229 Q210 241 217 256 Q224 271 224 287 Q224 305 217 320.5 Q210 336 198.5 347.5 Q187 359 172 365.5 Q157 372 140 372 Q106 372 80.5 347.5 Z " />
<glyph glyph-name="quotesinglbase" unicode="&#x201a;" horiz-adv-x="278" d="L68 154 L68 0 L134 0 Q134 -36 120 -61.5 Q106 -87 68 -100 L68 -166 Q99 -162 125.5 -147.5 Q152 -133 171 -110.5 Q190 -88 200.5 -59.5 Q211 -31 210 1 L210 154 Z " />
<glyph glyph-name="quotedblbase" unicode="&#x201e;" horiz-adv-x="463" d="L54 154 L54 0 L120 0 Q120 -36 106 -61.5 Q92 -87 54 -100 L54 -166 Q85 -162 111.5 -147.5 Q138 -133 157 -110.5 Q176 -88 186.5 -59.5 Q197 -31 196 1 L196 154 Z L267 154 L267 0 L333 0 Q333 -36 319 -61.5 Q305 -87 267 -100 L267 -166 Q298 -162 324.5 -147.5 Q351 -133 370 -110.5 Q389 -88 399.5 -59.5 Q410 -31 409 1 L409 154 Z " />
<glyph glyph-name="perthousand" unicode="&#x2030;" horiz-adv-x="1147" d="L440 155 Q440 80 478 33.5 Q516 -13 586 -13 Q625 -13 652.5 -0.5 Q680 12 697.5 34.5 Q715 57 723.5 88 Q732 119 732 156 Q732 192 724.5 224 Q717 256 700 279.5 Q683 303 655.5 316.5 Q628 330 587 330 Q548 330 520 316 Q492 302 474.5 278 Q457 254 448.5 222 Z L564 722 L150 -21 L237 -21 L649 722 Z L159 556 Q159 570 160 586.5 Q161 603 167 617 Q173 631 184.5 640 Q196 649 217 649 Q237 649 248 639.5 Q259 630 264 615 Q269 600 270 581 Q271 562 271 542 Q271 524 270.5 505 Q270 486 264.5 470.5 Q259 455 247.5 445 Q236 435 215 435 Q196 435 184.5 446 Q173 457 167.5 474 Q162 491 160.5 513 Z L69 539 Q69 464 107 417 Q145 370 215 370 Q254 370 281.5 383 Q309 396 326.5 418.5 Q344 441 352.5 472.5 Q361 504 361 540 Q361 576 353.5 608 Q346 640 329 663.5 Q312 687 284.5 700.5 Q257 714 216 714 Q177 714 149 700 Q121 686 103.5 662 Q86 638 77.5 606 Z L876 172 Q876 186 877 202.5 Q878 219 884 233 Q890 247 901.5 256 Q913 265 934 265 Q954 265 965 255.5 Q976 246 981 231 Q986 216 987 197 Q988 178 988 158 Q988 140 987.5 121 Q987 102 981.5 86.5 Q976 71 964.5 61 Q953 51 932 51 Q913 51 901.5 62 Q890 73 884.5 90 Q879 107 877.5 129 Z L786 155 Q786 80 824 33.5 Q862 -13 932 -13 Q971 -13 998.5 -0.5 Q1026 12 1043.5 34.5 Q1061 57 1069.5 88 Q1078 119 1078 156 Q1078 192 1070.5 224 Q1063 256 1046 279.5 Q1029 303 1001.5 316.5 Q974 330 933 330 Q894 330 866 316 Q838 302 820.5 278 Q803 254 794.5 222 Z L530 172 Q530 186 531 202.5 Q532 219 538 233 Q544 247 555.5 256 Q567 265 588 265 Q608 265 619 255.5 Q630 246 635 231 Q640 216 641 197 Q642 178 642 158 Q642 140 641.5 121 Q641 102 635.5 86.5 Q630 71 618.5 61 Q607 51 586 51 Q567 51 555.5 62 Q544 73 538.5 90 Q533 107 531.5 129 Z " />
<glyph glyph-name="Acircumflex" unicode="&#xc2;" horiz-adv-x="685" d="L278 920 L167 778 L275 778 L339 859 L401 778 L518 778 L408 920 Z L249 276 L342 538 L344 538 L434 276 Z L264 714 L-6 0 L152 0 L208 159 L475 159 L529 0 L692 0 L425 714 Z " />
<glyph glyph-name="Ecircumflex" unicode="&#xca;" horiz-adv-x="648" d="L260 920 L149 778 L257 778 L321 859 L383 778 L500 778 L390 920 Z L69 714 L69 0 L611 0 L611 132 L226 132 L226 307 L572 307 L572 429 L226 429 L226 582 L603 582 L603 714 Z " />
<glyph glyph-name="Aacute" unicode="&#xc1;" horiz-adv-x="685" d="L366 778 L520 920 L363 920 L267 778 Z L249 276 L342 538 L344 538 L434 276 Z L264 714 L-6 0 L152 0 L208 159 L475 159 L529 0 L692 0 L425 714 Z " />
<glyph glyph-name="Edieresis" unicode="&#xcb;" horiz-adv-x="648" d="L154 911 L154 794 L289 794 L289 911 Z L360 911 L360 794 L495 794 L495 911 Z L69 714 L69 0 L611 0 L611 132 L226 132 L226 307 L572 307 L572 429 L226 429 L226 582 L603 582 L603 714 Z " />
<glyph glyph-name="Egrave" unicode="&#xc8;" horiz-adv-x="648" d="L147 920 L301 778 L400 778 L304 920 Z L69 714 L69 0 L611 0 L611 132 L226 132 L226 307 L572 307 L572 429 L226 429 L226 582 L603 582 L603 714 Z " />
<glyph glyph-name="Iacute" unicode="&#xcd;" horiz-adv-x="295" d="L171 778 L325 920 L168 920 L72 778 Z L69 714 L69 0 L226 0 L226 714 Z " />
<glyph glyph-name="Icircumflex" unicode="&#xce;" horiz-adv-x="295" d="L83 920 L-27 778 L80 778 L144 859 L206 778 L323 778 L213 920 Z L69 714 L69 0 L226 0 L226 714 Z " />
<glyph glyph-name="Idieresis" unicode="&#xcf;" horiz-adv-x="295" d="L-22 911 L-22 794 L112 794 L112 911 Z L183 911 L183 794 L318 794 L318 911 Z L69 714 L69 0 L226 0 L226 714 Z " />
<glyph glyph-name="Igrave" unicode="&#xcc;" horiz-adv-x="295" d="L-29 920 L124 778 L223 778 L127 920 Z L69 714 L69 0 L226 0 L226 714 Z " />
<glyph glyph-name="Oacute" unicode="&#xd3;" horiz-adv-x="778" d="L413 778 L567 920 L410 920 L314 778 Z L195 354 Q195 401 205.5 445 Q216 489 239 523.5 Q262 558 299 578.5 Q336 599 389 599 Q442 599 479 578.5 Q516 558 539 523.5 Q562 489 572.5 445 Q583 401 583 354 Q583 309 572.5 266.5 Q562 224 539 190 Q516 156 479 135.5 Q442 115 389 115 Q336 115 299 135.5 Q262 156 239 190 Q216 224 205.5 266.5 Z L38 354 Q38 276 62 208.5 Q86 141 131 91 Q176 41 241.5 12.5 Q307 -16 389 -16 Q472 -16 537 12.5 Q602 41 647 91 Q692 141 716 208.5 Q740 276 740 354 Q740 434 716 502.5 Q692 571 647 622 Q602 673 537 702 Q472 731 389 731 Q307 731 241.5 702 Q176 673 131 622 Q86 571 62 502.5 Z " />
<glyph glyph-name="Ocircumflex" unicode="&#xd4;" horiz-adv-x="778" d="L325 920 L214 778 L322 778 L386 859 L448 778 L565 778 L455 920 Z L195 354 Q195 401 205.5 445 Q216 489 239 523.5 Q262 558 299 578.5 Q336 599 389 599 Q442 599 479 578.5 Q516 558 539 523.5 Q562 489 572.5 445 Q583 401 583 354 Q583 309 572.5 266.5 Q562 224 539 190 Q516 156 479 135.5 Q442 115 389 115 Q336 115 299 135.5 Q262 156 239 190 Q216 224 205.5 266.5 Z L38 354 Q38 276 62 208.5 Q86 141 131 91 Q176 41 241.5 12.5 Q307 -16 389 -16 Q472 -16 537 12.5 Q602 41 647 91 Q692 141 716 208.5 Q740 276 740 354 Q740 434 716 502.5 Q692 571 647 622 Q602 673 537 702 Q472 731 389 731 Q307 731 241.5 702 Q176 673 131 622 Q86 571 62 502.5 Z " />
<glyph glyph-name="apple" unicode="&#xf8ff;" horiz-adv-x="790" d="L408 588 Q392 588 339 603 Q287 618 250 618 Q164 618 107 546 Q51 473 51 359 Q51 235 125 107 Q199 -22 275 -22 Q299 -22 341 -5 Q380 11 413 11 Q445 11 488 -4 Q532 -20 559 -20 Q624 -20 688 77 Q709 109 724 140.5 Q739 172 749 202 Q704 216 670 265 Q635 315 635 377 Q635 434 668 480 Q686 506 725 540 Q712 556 699 568 Q686 580 673 590 Q626 622 566 622 Q530 622 479 605 Z L561 790 Q561 794 560.5 799 Q560 804 558 811 Q470 791 432.5 736.5 Q395 682 394 608 Q426 611 445 616 Q471 625 500 652 Q531 684 546 721 Z " />
<glyph glyph-name="Ograve" unicode="&#xd2;" horiz-adv-x="778" d="L212 920 L366 778 L465 778 L369 920 Z L195 354 Q195 401 205.5 445 Q216 489 239 523.5 Q262 558 299 578.5 Q336 599 389 599 Q442 599 479 578.5 Q516 558 539 523.5 Q562 489 572.5 445 Q583 401 583 354 Q583 309 572.5 266.5 Q562 224 539 190 Q516 156 479 135.5 Q442 115 389 115 Q336 115 299 135.5 Q262 156 239 190 Q216 224 205.5 266.5 Z L38 354 Q38 276 62 208.5 Q86 141 131 91 Q176 41 241.5 12.5 Q307 -16 389 -16 Q472 -16 537 12.5 Q602 41 647 91 Q692 141 716 208.5 Q740 276 740 354 Q740 434 716 502.5 Q692 571 647 622 Q602 673 537 702 Q472 731 389 731 Q307 731 241.5 702 Q176 673 131 622 Q86 571 62 502.5 Z " />
<glyph glyph-name="Uacute" unicode="&#xda;" horiz-adv-x="741" d="L394 778 L548 920 L391 920 L295 778 Z L675 270 L675 714 L518 714 L518 270 Q518 190 486 152.5 Q454 115 370 115 Q322 115 293.5 128.5 Q265 142 249 163.5 Q233 185 228 213 Q223 241 223 270 L223 714 L66 714 L66 270 Q66 124 145.5 54 Q225 -16 370 -16 Q513 -16 594 54.5 Z " />
<glyph glyph-name="Ucircumflex" unicode="&#xdb;" horiz-adv-x="741" d="L306 920 L195 778 L303 778 L367 859 L429 778 L546 778 L436 920 Z L675 270 L675 714 L518 714 L518 270 Q518 190 486 152.5 Q454 115 370 115 Q322 115 293.5 128.5 Q265 142 249 163.5 Q233 185 228 213 Q223 241 223 270 L223 714 L66 714 L66 270 Q66 124 145.5 54 Q225 -16 370 -16 Q513 -16 594 54.5 Z " />
<glyph glyph-name="Ugrave" unicode="&#xd9;" horiz-adv-x="741" d="L193 920 L347 778 L446 778 L350 920 Z L675 270 L675 714 L518 714 L518 270 Q518 190 486 152.5 Q454 115 370 115 Q322 115 293.5 128.5 Q265 142 249 163.5 Q233 185 228 213 Q223 241 223 270 L223 714 L66 714 L66 270 Q66 124 145.5 54 Q225 -16 370 -16 Q513 -16 594 54.5 Z " />
<glyph glyph-name="dotlessi" unicode="&#x131;" horiz-adv-x="258" d="L58 517 L58 0 L200 0 L200 517 Z " />
<glyph glyph-name="circumflex" unicode="&#x2c6;" horiz-adv-x="259" d="L65 723 L-45 581 L62 581 L126 662 L188 581 L305 581 L195 723 Z " />
<glyph glyph-name="tilde" unicode="&#x2dc;" horiz-adv-x="259" d="L313 714 L244 714 Q245 700 235 689.5 Q225 679 202 679 Q185 679 168.5 684.5 Q152 690 136 697 Q120 703 104.5 708.5 Q89 714 72 714 Q39 714 17.5 703 Q-4 692 -18 674.5 Q-32 657 -40 635.5 Q-48 614 -53 592 L7 592 Q12 611 20.5 622.5 Q29 634 49 634 Q66 634 83 629 Q100 624 119 617 Q138 611 158 605.5 Q178 600 201 600 Q231 600 250.5 611.5 Q270 623 282.5 640 Q295 657 301.5 677 Z " />
<glyph glyph-name="overscore" unicode="&#xaf;" horiz-adv-x="259" d="L316 691 L316 616 L-56 616 L-56 691 Z " />
<glyph glyph-name="breve" unicode="&#x2d8;" horiz-adv-x="259" d="L26 727 L-38 727 Q-26 581 120 581 Q195 581 241.5 615 Q288 649 298 727 L235 727 Q226 689 198 672.5 Q170 656 125 656 Q110 656 94 659.5 Q78 663 63.5 671.5 Q49 680 39 693.5 Z " />
<glyph glyph-name="dotaccent" unicode="&#x2d9;" horiz-adv-x="259" d="L62 714 L62 597 L197 597 L197 714 Z " />
<glyph glyph-name="ring" unicode="&#x2da;" horiz-adv-x="259" d="L7 656 Q7 631 16.5 608.5 Q26 586 42.5 569.5 Q59 553 81.5 543.5 Q104 534 129 534 Q155 534 177 543.5 Q199 553 216 569.5 Q233 586 242.5 608.5 Q252 631 252 656 Q252 682 242.5 704 Q233 726 216 742.5 Q199 759 177 768.5 Q155 778 129 778 Q104 778 81.5 768.5 Q59 759 42.5 742.5 Q26 726 16.5 704 Z L66 656 Q66 685 83 705.5 Q100 726 129 726 Q158 726 175.5 705.5 Q193 685 193 656 Q193 627 175.5 606.5 Q158 586 129 586 Q100 586 83 606.5 Z " />
<glyph glyph-name="cedilla" unicode="&#xb8;" horiz-adv-x="259" d="L33 -147 L12 -195 Q26 -200 38.5 -204 Q51 -208 64.5 -211 Q78 -214 95 -215.5 Q112 -217 136 -217 Q158 -217 179 -212.5 Q200 -208 216.5 -196.5 Q233 -185 243 -165.5 Q253 -146 253 -117 Q253 -99 245 -85.5 Q237 -72 224 -63.5 Q211 -55 194.5 -51 Q178 -47 161 -47 Q139 -47 127 -52 L125 -52 L164 2 L115 2 L56 -82 L77 -106 Q95 -99 117 -99 Q134 -99 145.5 -105.5 Q157 -112 157 -131 Q157 -149 146 -157 Q135 -165 117 -165 Q91 -165 70 -159.5 Z " />
<glyph glyph-name="hungarumlaut" unicode="&#x2dd;" horiz-adv-x="259" d="L151 581 L242 723 L399 723 L250 581 Z L-55 581 L35 723 L192 723 L43 581 Z " />
<glyph glyph-name="ogonek" unicode="&#x2db;" horiz-adv-x="259" d="L250 -149 L202 -127 Q188 -146 174 -151.5 Q160 -157 144 -157 Q129 -157 117 -147.5 Q105 -138 105 -123 Q105 -97 122.5 -68.5 Q140 -40 188 3 L123 3 Q81 -21 58 -42 Q35 -63 24 -79.5 Q13 -96 11 -108 Q9 -120 9 -127 Q9 -159 22 -177 Q35 -195 53 -204 Q71 -213 89 -215 Q107 -217 116 -217 Q150 -217 185 -202 Z " />
<glyph glyph-name="caron" unicode="&#x2c7;" horiz-adv-x="259" d="L195 581 L305 723 L195 723 L130 642 L66 723 L-45 723 L65 581 Z " />
<glyph glyph-name="Omega" unicode="&#x2126;" horiz-adv-x="773" d="L57 107 L237 107 L237 144 Q192 157 158 182.5 Q124 208 100.5 243 Q77 278 65.5 320 Q54 362 54 407 Q54 477 80.5 535 Q107 593 152.5 634.5 Q198 676 258.5 698.5 Q319 721 387 721 Q455 721 515.5 698.5 Q576 676 621 635.5 Q666 595 692.5 537 Q719 479 719 409 Q719 364 707.5 321.5 Q696 279 673 243.5 Q650 208 615.5 182 Q581 156 535 144 L535 107 L716 107 L716 0 L435 0 L435 200 Q510 217 547 270 Q584 323 584 398 Q584 441 570 479 Q556 517 530.5 545.5 Q505 574 469 590.5 Q433 607 388 607 Q343 607 306.5 590 Q270 573 243.5 544 Q217 515 203 476.5 Q189 438 189 395 Q189 320 225.5 268.5 Q262 217 337 200 L337 0 L57 0 Z " />
<glyph glyph-name="currency" unicode="&#xa4;" horiz-adv-x="556" d="L280 491 Q310 491 333 479 Q356 467 371 447.5 Q386 428 393.5 402.5 Q401 377 401 351 Q401 324 393.5 298.5 Q386 273 371 253 Q356 233 333 221 Q310 209 279 209 Q248 209 224.5 220.5 Q201 232 185 251.5 Q169 271 161 296.5 Q153 322 153 349 Q153 377 161 402.5 Q169 428 185 447.5 Q201 467 225 479 Z L77 207 L20 149 L76 93 L132 151 Q158 127 196 114.5 Q234 102 279 102 Q321 102 359 115 Q397 128 422 152 L479 94 L534 149 L479 205 Q502 233 513.5 271 Q525 309 525 351 Q525 393 513.5 431.5 Q502 470 480 494 L536 549 L475 610 L417 553 Q394 573 357 585.5 Q320 598 280 598 Q238 598 198.5 585.5 Q159 573 134 552 L77 608 L20 551 L77 493 Q52 468 40.5 429.5 Q29 391 29 349 Z " />
<glyph glyph-name="Lslash" unicode="&#x141;" horiz-adv-x="593" d="L69 214 L69 0 L574 0 L574 132 L226 132 L226 324 L437 472 L437 584 L226 436 L226 714 L69 714 L69 326 L-10 270 L-10 158 Z " />
<glyph glyph-name="lslash" unicode="&#x142;" horiz-adv-x="258" d="L58 286 L58 0 L200 0 L200 398 L267 451 L267 553 L200 500 L200 714 L58 714 L58 388 L-8 335 L-8 233 Z " />
<glyph glyph-name="threequarters" unicode="&#xbe;" horiz-adv-x="889" d="L709 313 L709 169 L593 169 L707 313 Z L709 89 L709 0 L805 0 L805 89 L862 89 L862 169 L805 169 L805 420 L705 420 L517 182 L517 89 Z L181 534 L181 464 Q198 464 216 463 Q234 462 249.5 457 Q265 452 275 440 Q285 428 285 407 Q285 379 263.5 361.5 Q242 344 212 344 Q174 344 155.5 368 Q137 392 135 424 L39 424 Q37 346 85 305 Q133 264 214 264 Q249 264 280.5 273 Q312 282 335.5 300.5 Q359 319 373 346 Q387 373 387 409 Q387 444 365.5 470 Q344 496 306 503 L306 505 Q339 513 355.5 537 Q372 561 372 591 Q372 622 358.5 645 Q345 668 322.5 683.5 Q300 699 271.5 706.5 Q243 714 213 714 Q138 714 95.5 673 Q53 632 51 562 L147 562 Q146 592 164 613 Q182 634 214 634 Q238 634 257 620 Q276 606 276 581 Q276 563 266.5 553.5 Q257 544 242.5 539.5 Q228 535 211.5 534.5 Z L653 722 L239 -21 L326 -21 L738 722 Z " />
<glyph glyph-name="onequarter" unicode="&#xbc;" horiz-adv-x="892" d="L689 313 L689 169 L573 169 L687 313 Z L689 89 L689 0 L785 0 L785 89 L842 89 L842 169 L785 169 L785 420 L685 420 L497 182 L497 89 Z L236 273 L236 705 L152 705 Q149 681 137.5 664.5 Q126 648 108.5 638.5 Q91 629 69.5 625 Q48 621 24 622 L24 547 L134 547 L134 273 Z L566 722 L152 -21 L239 -21 L651 722 Z " />
<glyph glyph-name="onesuperior" unicode="&#xb9;" horiz-adv-x="392" d="L289 273 L289 705 L205 705 Q202 681 190.5 664.5 Q179 648 161.5 638.5 Q144 629 122.5 625 Q101 621 77 622 L77 547 L187 547 L187 273 Z " />
<glyph glyph-name="multiply" unicode="&#xd7;" horiz-adv-x="600" d="L64 93 L140 17 L301 178 L461 17 L537 93 L376 253 L537 413 L461 489 L301 329 L142 489 L66 413 L225 253 Z " />
<glyph glyph-name="Thorn" unicode="&#xde;" horiz-adv-x="667" d="L226 281 L226 495 L348 495 Q375 495 400 491 Q425 487 444 475.5 Q463 464 474.5 443 Q486 422 486 388 Q486 354 474.5 333 Q463 312 444 300.5 Q425 289 400 285 Q375 281 348 281 Z L69 714 L69 0 L226 0 L226 159 L391 159 Q458 159 505 178.5 Q552 198 581.5 230 Q611 262 624.5 303.5 Q638 345 638 388 Q638 432 624.5 473 Q611 514 581.5 546 Q552 578 505 597.5 Q458 617 391 617 L226 617 L226 714 Z " />
<glyph glyph-name="brokenbar" unicode="&#xa6;" horiz-adv-x="223" d="L165 411 L165 661 L58 661 L58 411 Z L58 161 L58 -88 L165 -88 L165 161 Z " />
<glyph glyph-name="Eth" unicode="&#xd0;" horiz-adv-x="741" d="L226 427 L226 582 L338 582 Q396 582 435.5 565.5 Q475 549 499 518 Q523 487 533.5 443.5 Q544 400 544 346 Q544 287 529 246 Q514 205 489 179.5 Q464 154 432 143 Q400 132 366 132 L226 132 L226 310 L386 310 L386 427 Z L69 311 L69 0 L377 0 Q459 0 519.5 27.5 Q580 55 620.5 103 Q661 151 681 217 Q701 283 701 361 Q701 450 676.5 516 Q652 582 608.5 626 Q565 670 505.5 692 Q446 714 377 714 L69 714 L69 427 L3 427 L3 311 Z " />
<glyph glyph-name="onehalf" unicode="&#xbd;" horiz-adv-x="889" d="L509 267 L611 267 Q610 282 613.5 298.5 Q617 315 625.5 329 Q634 343 648 352 Q662 361 683 361 Q711 361 727.5 343 Q744 325 744 299 Q744 280 734.5 265 Q725 250 710.5 238 Q696 226 679.5 216 Q663 206 648 196 Q619 178 593.5 160 Q568 142 549 119.5 Q530 97 519 68.5 Q508 40 508 0 L842 0 L842 80 L633 80 Q659 114 695 135.5 Q731 157 765 179 Q799 201 822.5 229.5 Q846 258 846 306 Q846 339 833.5 364.5 Q821 390 799.5 407 Q778 424 750 432.5 Q722 441 690 441 Q598 441 553 392.5 Z L236 273 L236 705 L152 705 Q149 681 137.5 664.5 Q126 648 108.5 638.5 Q91 629 69.5 625 Q48 621 24 622 L24 547 L134 547 L134 273 Z L566 722 L152 -21 L239 -21 L651 722 Z " />
<glyph glyph-name="minus" unicode="&#x2212;" horiz-adv-x="600" d="L48 306 L48 199 L553 199 L553 306 Z " />
<glyph glyph-name="eth" unicode="&#xf0;" horiz-adv-x="611" d="L240 647 L133 593 L191 537 L303 593 Q328 571 357.5 539.5 Q387 508 405 466 L403 466 Q368 490 332.5 498 Q297 506 268 506 Q208 506 164.5 483 Q121 460 93 423 Q65 386 51.5 340 Q38 294 38 247 Q38 190 57 142 Q76 94 111 59.5 Q146 25 195 6 Q244 -13 305 -13 Q366 -13 415.5 8.5 Q465 30 500 68 Q535 106 554 158.5 Q573 211 573 273 Q575 390 532 479 Q489 568 408 646 L522 703 L470 762 L347 700 Q302 736 248 766 L156 697 Q176 687 197 675 Z L305 93 Q269 93 245 107 Q221 121 206.5 144.5 Q192 168 186 197.5 Q180 227 180 258 Q180 285 186.5 312.5 Q193 340 207.5 362 Q222 384 246 397.5 Q270 411 304 411 Q339 411 363 397.5 Q387 384 402 362.5 Q417 341 424 313.5 Q431 286 431 258 Q431 227 425 197.5 Q419 168 404.5 144.5 Q390 121 365.5 107 Z " />
<glyph glyph-name="thorn" unicode="&#xfe;" horiz-adv-x="611" d="L438 257 Q438 226 432 196 Q426 166 411.5 143.5 Q397 121 373.5 107 Q350 93 315 93 Q281 93 257 107 Q233 121 218.5 143.5 Q204 166 197.5 196 Q191 226 191 257 Q191 289 197 319 Q203 349 217.5 372 Q232 395 255.5 409.5 Q279 424 314 424 Q348 424 371.5 409.5 Q395 395 410 371.5 Q425 348 431.5 318 Z L54 714 L54 -181 L196 -181 L196 64 L198 64 Q224 26 264.5 6.5 Q305 -13 353 -13 Q410 -13 452.5 9 Q495 31 523.5 68 Q552 105 566 153 Q580 201 580 253 Q580 308 566 358.5 Q552 409 523 447 Q494 485 450 508 Q406 531 345 531 Q302 531 263 512 Q224 493 198 451 L196 451 L196 714 Z " />
<glyph glyph-name="twosuperior" unicode="&#xb2;" horiz-adv-x="392" d="L28 540 L130 540 Q129 555 132.5 571.5 Q136 588 144.5 602 Q153 616 167 625 Q181 634 202 634 Q230 634 246.5 616 Q263 598 263 572 Q263 553 253.5 538 Q244 523 229.5 511 Q215 499 198.5 489 Q182 479 167 469 Q138 451 112.5 433 Q87 415 68 392.5 Q49 370 38 341.5 Q27 313 27 273 L361 273 L361 353 L152 353 Q178 387 214 408.5 Q250 430 284 452 Q318 474 341.5 502.5 Q365 531 365 579 Q365 612 352.5 637.5 Q340 663 318.5 680 Q297 697 269 705.5 Q241 714 209 714 Q117 714 72 665.5 Z " />
<glyph glyph-name="threesuperior" unicode="&#xb3;" horiz-adv-x="392" d="L164 534 L164 464 Q181 464 199 463 Q217 462 232.5 457 Q248 452 258 440 Q268 428 268 407 Q268 379 246.5 361.5 Q225 344 195 344 Q157 344 138.5 368 Q120 392 118 424 L22 424 Q20 346 68 305 Q116 264 197 264 Q232 264 263.5 273 Q295 282 318.5 300.5 Q342 319 356 346 Q370 373 370 409 Q370 444 348.5 470 Q327 496 289 503 L289 505 Q322 513 338.5 537 Q355 561 355 591 Q355 622 341.5 645 Q328 668 305.5 683.5 Q283 699 254.5 706.5 Q226 714 196 714 Q121 714 78.5 673 Q36 632 34 562 L130 562 Q129 592 147 613 Q165 634 197 634 Q221 634 240 620 Q259 606 259 581 Q259 563 249.5 553.5 Q240 544 225.5 539.5 Q211 535 194.5 534.5 Z " />
<glyph glyph-name="Scaron" unicode="&#x160;" horiz-adv-x="649" d="L390 778 L500 920 L390 920 L325 839 L261 920 L149 920 L260 778 Z L176 237 L24 237 Q23 171 48 123 Q73 75 115.5 44 Q158 13 213.5 -1.5 Q269 -16 328 -16 Q401 -16 456.5 1 Q512 18 549.5 48.5 Q587 79 606 121 Q625 163 625 212 Q625 272 599.5 310.5 Q574 349 539 372 Q504 395 468.5 405.5 Q433 416 413 420 Q346 437 304.5 448 Q263 459 239.5 470 Q216 481 208 494 Q200 507 200 528 Q200 551 210 566 Q220 581 235.5 591 Q251 601 270 605 Q289 609 308 609 Q337 609 361.5 604 Q386 599 405 587 Q424 575 435.5 554 Q447 533 449 501 L601 501 Q601 563 577.5 606.5 Q554 650 514 678 Q474 706 422.5 718.5 Q371 731 315 731 Q267 731 219 718 Q171 705 133 678 Q95 651 71.5 610.5 Q48 570 48 515 Q48 466 66.5 431.5 Q85 397 115 374 Q145 351 183 336.5 Q221 322 261 312 Q300 301 338 292 Q376 283 406 271 Q436 259 454.5 241 Q473 223 473 194 Q473 167 459 149.5 Q445 132 424 122 Q403 112 379 108.5 Q355 105 334 105 Q303 105 274 112.5 Q245 120 223.5 135.5 Q202 151 189 176 Z " />
<glyph glyph-name="Yacute" unicode="&#xdd;" horiz-adv-x="667" d="L357 778 L511 920 L354 920 L258 778 Z L254 278 L254 0 L411 0 L411 274 L676 714 L501 714 L335 432 L168 714 L-8 714 Z " />
<glyph glyph-name="Zcaron" unicode="&#x17d;" horiz-adv-x="648" d="L390 778 L500 920 L390 920 L325 839 L261 920 L149 920 L260 778 Z L23 124 L23 0 L625 0 L625 132 L232 132 L615 590 L615 714 L53 714 L53 582 L406 582 Z " />
<glyph glyph-name="scaron" unicode="&#x161;" horiz-adv-x="537" d="L334 581 L444 723 L334 723 L269 642 L205 723 L93 723 L204 581 Z L164 168 L29 168 Q31 116 52.5 81.5 Q74 47 107.5 26 Q141 5 184 -4 Q227 -13 272 -13 Q316 -13 358.5 -4.5 Q401 4 434 25 Q467 46 487.5 80.5 Q508 115 508 166 Q508 202 494 226.5 Q480 251 457 267.5 Q434 284 404.5 294 Q375 304 344 311 Q314 318 285 324 Q256 330 233.5 337.5 Q211 345 197 357 Q183 369 183 388 Q183 404 191 413.5 Q199 423 210.5 428 Q222 433 236 434.5 Q250 436 262 436 Q300 436 328 421.5 Q356 407 359 366 L494 366 Q490 414 469.5 445.5 Q449 477 418 496 Q387 515 347.5 523 Q308 531 266 531 Q224 531 184 523.5 Q144 516 112 497.5 Q80 479 60.5 447 Q41 415 41 365 Q41 331 55 307.5 Q69 284 92 268.5 Q115 253 144.5 243.5 Q174 234 205 227 Q281 211 323.5 195 Q366 179 366 147 Q366 128 357 115.5 Q348 103 334.5 95.5 Q321 88 304.5 84.5 Q288 81 273 81 Q252 81 232.5 86 Q213 91 198 101.5 Q183 112 173.5 128.5 Z " />
<glyph glyph-name="yacute" unicode="&#xfd;" horiz-adv-x="519" d="L283 581 L437 723 L280 723 L184 581 Z L309 -64 L525 517 L378 517 L265 163 L263 163 L146 517 L-5 517 L176 32 Q182 17 182 0 Q182 -23 168.5 -42 Q155 -61 127 -64 Q106 -65 85 -63 Q64 -61 44 -59 L44 -176 Q66 -178 87.5 -179.5 Q109 -181 131 -181 Q204 -181 245 -154 Z " />
<glyph glyph-name="zcaron" unicode="&#x17e;" horiz-adv-x="519" d="L325 581 L435 723 L325 723 L260 642 L196 723 L84 723 L195 581 Z L22 107 L22 0 L497 0 L497 107 L209 107 L478 410 L478 517 L42 517 L42 410 L291 410 Z " />
<glyph glyph-name="gravecmb" unicode="&#x300;" d="L-126 723 L-30 581 L-129 581 L-282 723 Z " />
<glyph glyph-name="acutecmb" unicode="&#x301;" d="L-282 581 L-186 723 L-29 723 L-183 581 Z " />
<glyph glyph-name="circumflexcmb" unicode="&#x302;" d="L-91 723 L19 581 L-98 581 L-160 662 L-224 581 L-331 581 L-221 723 Z " />
<glyph glyph-name="tildecmb" unicode="&#x303;" d="L27 714 Q22 697 15.5 677 Q9 657 -3.5 640 Q-16 623 -35.5 611.5 Q-55 600 -85 600 Q-108 600 -128 605.5 Q-148 611 -167 617 Q-186 624 -203 629 Q-220 634 -237 634 Q-257 634 -265.5 622.5 Q-274 611 -279 592 L-339 592 Q-334 614 -326 635.5 Q-318 657 -304 674.5 Q-290 692 -268.5 703 Q-247 714 -214 714 Q-197 714 -181.5 708.5 Q-166 703 -150 697 Q-134 690 -117.5 684.5 Q-101 679 -84 679 Q-61 679 -51 689.5 Q-41 700 -42 714 L27 714 Z " />
<glyph glyph-name="macroncmb" unicode="&#x304;" d="L30 691 L30 616 L-342 616 L-342 691 Z " />
<glyph glyph-name="brevecmb" unicode="&#x306;" d="L-260 727 Q-257 707 -247 693.5 Q-237 680 -222.5 671.5 Q-208 663 -192 659.5 Q-176 656 -161 656 Q-116 656 -88 672.5 Q-60 689 -51 727 L12 727 Q2 649 -44.5 615 Q-91 581 -166 581 Q-312 581 -324 727 L-260 727 Z " />
<glyph glyph-name="dotaccentcmb" unicode="&#x307;" d="L-88 714 L-88 597 L-223 597 L-223 714 Z " />
<glyph glyph-name="dieresiscmb" unicode="&#x308;" d="L-192 714 L-192 597 L-326 597 L-326 714 Z L14 714 L14 597 L-121 597 L-121 714 Z " />
<glyph glyph-name="ringcmb" unicode="&#x30a;" d="L-278 656 Q-278 682 -268.5 704 Q-259 726 -242.5 742.5 Q-226 759 -203.5 768.5 Q-181 778 -156 778 Q-130 778 -108 768.5 Q-86 759 -69 742.5 Q-52 726 -42.5 704 Q-33 682 -33 656 Q-33 631 -42.5 608.5 Q-52 586 -69 569.5 Q-86 553 -108 543.5 Q-130 534 -156 534 Q-181 534 -203.5 543.5 Q-226 553 -242.5 569.5 Q-259 586 -268.5 608.5 Z L-219 656 Q-219 627 -202 606.5 Q-185 586 -156 586 Q-127 586 -109.5 606.5 Q-92 627 -92 656 Q-92 685 -109.5 705.5 Q-127 726 -156 726 Q-185 726 -202 705.5 Z " />
<glyph glyph-name="hungarumlautcmb" unicode="&#x30b;" d="L-177 581 L-86 723 L71 723 L-78 581 Z L-383 581 L-293 723 L-136 723 L-285 581 Z " />
<glyph glyph-name="caroncmb" unicode="&#x30c;" d="L-221 581 L-331 723 L-220 723 L-156 642 L-91 723 L19 723 L-91 581 Z " />
<glyph glyph-name="cedillacmb" unicode="&#x327;" d="L-255 -147 Q-239 -154 -218 -159.5 Q-197 -165 -171 -165 Q-153 -165 -142 -157 Q-131 -149 -131 -131 Q-131 -112 -142.5 -105.5 Q-154 -99 -171 -99 Q-193 -99 -211 -106 L-232 -82 L-173 2 L-124 2 L-163 -52 L-161 -52 Q-149 -47 -127 -47 Q-110 -47 -93.5 -51 Q-77 -55 -64 -63.5 Q-51 -72 -43 -85.5 Q-35 -99 -35 -117 Q-35 -146 -45 -165.5 Q-55 -185 -71.5 -196.5 Q-88 -208 -109 -212.5 Q-130 -217 -152 -217 Q-176 -217 -193 -215.5 Q-210 -214 -223.5 -211 Q-237 -208 -249.5 -204 Q-262 -200 -276 -195 L-255 -147 Z " />
<glyph glyph-name="ogonekcmb" unicode="&#x328;" d="L-35 -149 Q-65 -187 -100 -202 Q-135 -217 -169 -217 Q-178 -217 -196 -215 Q-214 -213 -232 -204 Q-250 -195 -263 -177 Q-276 -159 -276 -127 Q-276 -120 -274 -108 Q-272 -96 -261 -79.5 Q-250 -63 -227 -42 Q-204 -21 -162 3 L-97 3 Q-145 -40 -162.5 -68.5 Q-180 -97 -180 -123 Q-180 -138 -168 -147.5 Q-156 -157 -141 -157 Q-125 -157 -111 -151.5 Q-97 -146 -83 -127 L-35 -149 Z " />
<glyph glyph-name="soliduslongoverlaycmb" unicode="&#x338;" d="L40 731 L-239 -16 L-352 -16 L-74 731 Z " />
<glyph glyph-name="FL295" />
<glyph glyph-name="cyrbreve" horiz-adv-x="259" d="L129 579 Q94 579 65 587 Q36 595 15 612.5 Q-6 630 -18 657 Q-30 684 -30 723 L26 723 Q33 688 60 672.5 Q87 657 129 657 Q171 657 198 672.5 Q225 688 232 723 L288 723 Q288 684 276 657 Q264 630 243 612.5 Q222 595 192.5 587 Z " />
<glyph glyph-name="cyrBreve" horiz-adv-x="259" d="L129 775 Q56 775 11 813 Q-34 851 -34 929 L22 929 Q29 894 58 876 Q87 858 129 858 Q171 858 200 876 Q229 894 236 929 L292 929 Q292 851 247 813 Z " />
<glyph glyph-name="uni018F" unicode="&#x18f;" horiz-adv-x="748" d="L376 -16 Q290 -16 226.5 12.5 Q163 41 121 91 Q79 141 58.5 208.5 Q38 276 38 354 Q38 361 38.5 377 Q39 393 40 400 L553 400 Q542 494 490.5 547.5 Q439 601 363 601 Q303 601 258.5 572.5 Q214 544 200 490 L51 490 Q58 542 84 586 Q110 630 150.5 662.5 Q191 695 244.5 713 Q298 731 360 731 Q442 731 507 702 Q572 673 617 622.5 Q662 572 686 504 Q710 436 710 358 Q710 274 685.5 205 Q661 136 617 87 Q573 38 511.5 11 Z L375 114 Q441 114 486 155 Q531 196 548 278 L202 278 Q207 243 220 213 Q233 183 254.5 161 Q276 139 306 126.5 Z " />
<glyph glyph-name="uni01A2" unicode="&#x1a2;" horiz-adv-x="922" d="L696 582 L606 582 L606 53 Q563 21 509 2.5 Q455 -16 389 -16 Q306 -16 241 12.5 Q176 41 131 91 Q86 141 62 208.5 Q38 276 38 354 Q38 433 62 502 Q86 571 131 622 Q176 673 241 702 Q306 731 389 731 Q450 731 504 714 L853 714 L853 -181 L696 -181 Z L389 115 Q420 115 449 123 L449 591 Q420 599 389 599 Q336 599 299 578.5 Q262 558 239 523.5 Q216 489 205.5 445 Q195 401 195 354 Q195 309 205.5 266.5 Q216 224 239 190 Q262 156 299 135.5 Z " />
<glyph glyph-name="uni01A3" unicode="&#x1a3;" horiz-adv-x="764" d="L568 410 L500 410 L500 61 Q465 26 416 6.5 Q367 -13 305 -13 Q244 -13 195 6 Q146 25 111 60.5 Q76 96 57 146 Q38 196 38 258 Q38 320 57 370.5 Q76 421 111 456.5 Q146 492 195 511.5 Q244 531 305 531 Q355 531 399 517 L710 517 L710 -181 L568 -181 Z L305 93 Q333 93 358 103 L358 414 Q344 419 333 421.5 Q322 424 305 424 Q269 424 245 409.5 Q221 395 206.5 372 Q192 349 186 319 Q180 289 180 258 Q180 227 186 197.5 Q192 168 206.5 144.5 Q221 121 245 107 Z " />
<glyph glyph-name="uni01B5" unicode="&#x1b5;" horiz-adv-x="648" d="L23 124 L180 307 L91 307 L91 429 L284 429 L416 582 L53 582 L53 714 L615 714 L615 590 L477 429 L568 429 L568 307 L372 307 L222 132 L625 132 L625 0 L23 0 Z " />
<glyph glyph-name="uni01B6" unicode="&#x1b6;" horiz-adv-x="519" d="L22 107 L127 221 L76 221 L76 312 L211 312 L301 410 L42 410 L42 517 L478 517 L478 410 L388 312 L446 312 L446 221 L304 221 L199 107 L497 107 L497 0 L22 0 Z " />
<glyph glyph-name="uni0259" unicode="&#x259;" horiz-adv-x="574" d="L281 -13 Q215 -13 166 12.5 Q117 38 85.5 81 Q54 124 40 179 Q26 234 30 294 L403 294 Q400 363 368 394 Q336 425 276 425 Q233 425 202 403.5 Q171 382 164 358 L39 358 Q69 451 131 491 Q193 531 281 531 Q342 531 391 511.5 Q440 492 474 456 Q508 420 526.5 370 Q545 320 545 260 Q545 202 526 152 Q507 102 472 65.5 Q437 29 388.5 8 Z L285 94 Q319 94 341.5 105.5 Q364 117 377.5 134 Q391 151 396.5 170 Q402 189 403 204 L172 204 Q182 150 207.5 122 Z " />
<glyph glyph-name="uni0400" unicode="&#x400;" horiz-adv-x="648" d="L69 714 L603 714 L603 582 L226 582 L226 429 L572 429 L572 307 L226 307 L226 132 L611 132 L611 0 L69 0 Z L304 920 L400 778 L301 778 L148 920 Z " />
<glyph glyph-name="afii10023" unicode="&#x401;" horiz-adv-x="648" d="L69 714 L603 714 L603 582 L226 582 L226 429 L572 429 L572 307 L226 307 L226 132 L611 132 L611 0 L69 0 Z L308 911 L308 794 L174 794 L174 911 Z L514 911 L514 794 L379 794 L379 911 Z " />
<glyph glyph-name="afii10051" unicode="&#x402;" horiz-adv-x="804" d="L505 -11 Q484 -11 458.5 -8 Q433 -5 417 0 L417 118 Q421 116 429 114.5 Q437 113 445 112 Q453 111 460.5 111 Q468 111 472 111 Q500 111 524.5 117 Q549 123 567 136.5 Q585 150 595.5 173 Q606 196 606 230 Q606 284 573.5 313 Q541 342 484 342 Q426 342 390 300 Q354 258 354 183 L354 0 L197 0 L197 582 L13 582 L13 714 L588 714 L588 582 L354 582 L354 385 Q380 420 426 441.5 Q472 463 522 463 Q574 463 618.5 450 Q663 437 695 409 Q727 381 745.5 336.5 Q764 292 764 230 Q764 163 743 117 Q722 71 686.5 42.5 Q651 14 604 1.5 Z " />
<glyph glyph-name="afii10052" unicode="&#x403;" horiz-adv-x="574" d="L74 714 L570 714 L570 582 L231 582 L231 0 L74 0 Z L230 778 L326 920 L483 920 L329 778 Z " />
<glyph glyph-name="afii10053" unicode="&#x404;" horiz-adv-x="736" d="L382 -16 Q304 -16 240.5 11 Q177 38 132 87 Q87 136 62.5 205 Q38 274 38 358 Q38 436 62 504 Q86 572 131 622.5 Q176 673 241 702 Q306 731 388 731 Q450 731 503 713 Q556 695 596 662.5 Q636 630 661.5 586 Q687 542 694 490 L542 490 Q527 542 486 571 Q445 600 385 600 Q344 600 313 587 Q282 574 259.5 551.5 Q237 529 222.5 498.5 Q208 468 201 433 L459 433 L459 310 L196 310 Q207 219 254 166 Q301 113 383 113 Q516 113 545 252 L698 252 Q689 192 665 142.5 Q641 93 601.5 57.5 Q562 22 507 3 Z " />
<glyph glyph-name="afii10054" unicode="&#x405;" horiz-adv-x="649" d="L328 -16 Q269 -16 213.5 -1.5 Q158 13 115.5 44 Q73 75 48 123 Q23 171 24 237 L176 237 Q176 201 189 176 Q202 151 223.5 135.5 Q245 120 273.5 112.5 Q302 105 334 105 Q355 105 379 108.5 Q403 112 424 122 Q445 132 459 149.5 Q473 167 473 194 Q473 223 454.5 241 Q436 259 406 271 Q376 283 338 292 Q300 301 261 312 Q221 322 183 336 Q145 350 115 373.5 Q85 397 66.5 431 Q48 465 48 515 Q48 570 71.5 610.5 Q95 651 133 678 Q171 705 219 718 Q267 731 315 731 Q371 731 422.5 718.5 Q474 706 514 678 Q554 650 577.5 606.5 Q601 563 601 501 L449 501 Q447 533 435.5 554 Q424 575 405 587 Q386 599 361 604 Q336 609 308 609 Q289 609 270 605 Q251 601 235.5 591 Q220 581 210 565.5 Q200 550 200 528 Q200 507 208 494 Q216 481 239.5 470 Q263 459 304.5 448 Q346 437 413 420 Q433 416 468.5 405.5 Q504 395 539 372 Q574 349 599.5 310.5 Q625 272 625 212 Q625 162 606 120.5 Q587 79 549.5 48.5 Q512 18 456.5 1 Z " />
<glyph glyph-name="afii10055" unicode="&#x406;" horiz-adv-x="295" d="L69 714 L226 714 L226 0 L69 0 Z " />
<glyph glyph-name="afii10056" unicode="&#x407;" horiz-adv-x="295" d="L69 714 L226 714 L226 0 L69 0 Z L111 911 L111 794 L-23 794 L-23 911 Z L317 911 L317 794 L182 794 L182 911 Z " />
<glyph glyph-name="afii10057" unicode="&#x408;" horiz-adv-x="556" d="L249 -16 Q204 -16 162 -3.5 Q120 9 87 35.5 Q54 62 34 103.5 Q14 145 14 204 L14 266 L156 266 L156 234 Q156 208 160 186 Q164 164 174 148.5 Q184 133 201.5 124 Q219 115 247 115 Q278 115 295 126 Q312 137 319.5 154.5 Q327 172 328.5 192.5 Q330 213 330 232 L330 714 L487 714 L487 225 Q487 190 480 148 Q473 106 448 69.5 Q423 33 376 8.5 Z " />
<glyph glyph-name="afii10058" unicode="&#x409;" horiz-adv-x="1125" d="L101 -8 Q90 -8 76 -7 Q62 -6 47 -4.5 Q32 -3 19 -1 Q6 1 -2 4 L-2 124 Q2 122 10.5 121 Q19 120 28 119.5 Q37 119 45.5 118.5 Q54 118 58 118 Q65 118 76.5 120 Q88 122 100 129.5 Q112 137 122.5 152 Q133 167 139 193 Q146 223 150 268.5 Q154 314 156.5 377.5 Q159 441 159.5 524.5 Q160 608 160 714 L674 714 L674 456 L842 456 Q896 456 942 442.5 Q988 429 1022 401 Q1056 373 1075.5 330 Q1095 287 1095 229 Q1095 170 1076 127 Q1057 84 1022.5 55.5 Q988 27 940 13.5 Q892 0 834 0 L518 0 L518 582 L309 582 Q308 464 305.5 379.5 Q303 295 296 234.5 Q289 174 276 132.5 Q263 91 240 59 Q214 23 180 7.5 Z L822 128 Q879 128 911 151 Q943 174 943 231 Q943 259 934 278.5 Q925 298 908.5 310 Q892 322 869.5 327.5 Q847 333 821 333 L674 333 L674 128 Z " />
<glyph glyph-name="afii10059" unicode="&#x40a;" horiz-adv-x="1123" d="L69 714 L226 714 L226 446 L515 446 L515 714 L672 714 L672 446 L840 446 Q894 446 940 432.5 Q986 419 1020 391.5 Q1054 364 1073.5 322.5 Q1093 281 1093 224 Q1093 167 1074 125 Q1055 83 1020.5 55 Q986 27 938 13.5 Q890 0 832 0 L515 0 L515 314 L226 314 L226 0 L69 0 Z L820 128 Q877 128 909 150 Q941 172 941 226 Q941 253 932 271.5 Q923 290 906.5 301.5 Q890 313 867.5 318 Q845 323 819 323 L672 323 L672 128 Z " />
<glyph glyph-name="afii10060" unicode="&#x40b;" horiz-adv-x="804" d="L197 582 L13 582 L13 714 L588 714 L588 582 L354 582 L354 428 Q367 431 386 434.5 Q405 438 425.5 441 Q446 444 466.5 446 Q487 448 503 448 Q563 448 608 435 Q653 422 683.5 392.5 Q714 363 729 315.5 Q744 268 744 199 L744 0 L588 0 L588 201 Q588 266 562.5 292 Q537 318 477 318 Q461 318 443 316 Q425 314 408 311.5 Q391 309 377 306 Q363 303 354 302 L354 0 L197 0 Z " />
<glyph glyph-name="afii10061" unicode="&#x40c;" horiz-adv-x="722" d="L69 714 L226 714 L226 418 L505 714 L701 714 L422 432 L728 0 L531 0 L316 321 L226 230 L226 0 L69 0 Z L274 778 L370 920 L527 920 L373 778 Z " />
<glyph glyph-name="uni040D" unicode="&#x40d;" horiz-adv-x="745" d="L69 714 L225 714 L225 219 L228 219 L500 714 L676 714 L676 0 L520 0 L520 496 L517 496 L245 0 L69 0 Z L342 920 L438 778 L339 778 L186 920 Z " />
<glyph glyph-name="afii10062" unicode="&#x40e;" horiz-adv-x="647" d="L177 -13 Q151 -13 127.5 -8.5 Q104 -4 90 0 L90 127 Q119 119 165 119 Q201 119 219 137.5 Q237 156 237 180 Q237 203 226 227.5 Q215 252 204 274 L-5 714 L168 714 L332 342 L487 714 L654 714 L414 188 Q389 134 365 95.5 Q341 57 313.5 33 Q286 9 253 -2 Z L330 775 Q257 775 212 813 Q167 851 167 929 L223 929 Q230 894 259 876 Q288 858 330 858 Q372 858 401 876 Q430 894 437 929 L493 929 Q493 851 448 813 Z " />
<glyph glyph-name="afii10145" unicode="&#x40f;" horiz-adv-x="732" d="L290 0 L69 0 L69 714 L226 714 L226 132 L506 132 L506 714 L663 714 L663 0 L441 0 L441 -163 L290 -163 Z " />
<glyph glyph-name="afii10017" unicode="&#x410;" horiz-adv-x="685" d="L264 714 L425 714 L692 0 L529 0 L475 159 L208 159 L152 0 L-6 0 Z L434 276 L344 538 L342 538 L249 276 Z " />
<glyph glyph-name="afii10018" unicode="&#x411;" horiz-adv-x="702" d="L69 714 L599 714 L599 585 L226 585 L226 450 L412 450 Q466 450 512 437 Q558 424 592 396.5 Q626 369 645.5 326.5 Q665 284 665 226 Q665 167 646 124.5 Q627 82 592.5 54 Q558 26 510 13 Q462 0 404 0 L69 0 Z L392 128 Q449 128 481 149.5 Q513 171 513 228 Q513 256 504 275 Q495 294 478.5 305.5 Q462 317 439.5 322 Q417 327 391 327 L226 327 L226 128 Z " />
<glyph glyph-name="afii10019" unicode="&#x412;" horiz-adv-x="704" d="L69 714 L405 714 Q456 714 498 705 Q540 696 570 675.5 Q600 655 616.5 621 Q633 587 633 537 Q633 483 608.5 447 Q584 411 536 388 Q602 369 634.5 321.5 Q667 274 667 207 Q667 153 646 113.5 Q625 74 589.5 49 Q554 24 508.5 12 Q463 0 415 0 L69 0 Z L394 122 Q417 122 438 126.5 Q459 131 475 141.5 Q491 152 500.5 170 Q510 188 510 216 Q510 271 479 294.5 Q448 318 397 318 L226 318 L226 122 Z L385 425 Q427 425 454 445 Q481 465 481 510 Q481 535 472 551 Q463 567 448 576 Q433 585 413.5 588.5 Q394 592 373 592 L226 592 L226 425 Z " />
<glyph glyph-name="afii10020" unicode="&#x413;" horiz-adv-x="574" d="L74 714 L570 714 L570 582 L231 582 L231 0 L74 0 Z " />
<glyph glyph-name="afii10021" unicode="&#x414;" horiz-adv-x="772" d="L8 132 L68 132 Q99 174 118.5 223 Q138 272 148.5 330 Q159 388 162.5 456 Q166 524 166 603 L166 714 L684 714 L684 132 L762 132 L762 -163 L611 -163 L611 0 L159 0 L159 -163 L8 -163 Z L527 132 L527 585 L316 585 L316 572 Q316 499 312.5 437 Q309 375 300.5 321.5 Q292 268 276.5 221.5 Q261 175 237 132 Z " />
<glyph glyph-name="afii10022" unicode="&#x415;" horiz-adv-x="648" d="L69 714 L603 714 L603 582 L226 582 L226 429 L572 429 L572 307 L226 307 L226 132 L611 132 L611 0 L69 0 Z " />
<glyph glyph-name="afii10024" unicode="&#x416;" horiz-adv-x="1061" d="L279 423 L20 714 L205 714 L455 420 L455 714 L606 714 L606 420 L856 714 L1041 714 L782 423 L1067 0 L873 0 L683 312 L606 225 L606 0 L455 0 L455 225 L378 312 L187 0 L-6 0 Z " />
<glyph glyph-name="afii10025" unicode="&#x417;" horiz-adv-x="647" d="L330 -16 Q183 -16 103 51.5 Q23 119 21 240 L176 240 Q177 204 189.5 178 Q202 152 222.5 135.5 Q243 119 270.5 111.5 Q298 104 330 104 Q385 104 419 137.5 Q453 171 453 220 Q453 250 442 269.5 Q431 289 412 300.5 Q393 312 369 316 Q345 320 319 320 L265 320 L265 426 Q274 425 287 425 Q300 425 307 425 Q436 425 436 522 Q436 564 406.5 587 Q377 610 329 610 Q271 610 236.5 582 Q202 554 197 502 L49 502 Q50 562 73 605 Q96 648 134.5 676 Q173 704 223.5 717.5 Q274 731 330 731 Q384 731 430.5 716.5 Q477 702 510.5 676 Q544 650 563.5 613.5 Q583 577 583 532 Q583 478 553 439 Q523 400 475 389 Q503 384 528 370 Q553 356 571 334.5 Q589 313 599.5 284 Q610 255 610 221 Q610 169 588.5 125.5 Q567 82 529.5 50.5 Q492 19 441 1.5 Z " />
<glyph glyph-name="afii10026" unicode="&#x418;" horiz-adv-x="745" d="L69 714 L225 714 L225 219 L228 219 L500 714 L676 714 L676 0 L520 0 L520 496 L517 496 L245 0 L69 0 Z " />
<glyph glyph-name="afii10027" unicode="&#x419;" horiz-adv-x="745" d="L69 714 L225 714 L225 219 L228 219 L500 714 L676 714 L676 0 L520 0 L520 496 L517 496 L245 0 L69 0 Z L382 775 Q309 775 264 813 Q219 851 219 929 L275 929 Q282 894 311 876 Q340 858 382 858 Q424 858 453 876 Q482 894 489 929 L545 929 Q545 851 500 813 Z " />
<glyph glyph-name="afii10028" unicode="&#x41a;" horiz-adv-x="722" d="L69 714 L226 714 L226 418 L505 714 L701 714 L422 432 L728 0 L531 0 L316 321 L226 230 L226 0 L69 0 Z " />
<glyph glyph-name="afii10029" unicode="&#x41b;" horiz-adv-x="743" d="L101 -8 Q90 -8 76 -7 Q62 -6 47 -4.5 Q32 -3 19 -1 Q6 1 -2 4 L-2 124 Q2 122 10.5 121 Q19 120 28 119.5 Q37 119 45.5 118.5 Q54 118 58 118 Q65 118 76.5 120 Q88 122 100 129.5 Q112 137 122.5 152 Q133 167 139 193 Q146 223 150 268.5 Q154 314 156.5 377.5 Q159 441 159.5 524.5 Q160 608 160 714 L674 714 L674 0 L518 0 L518 582 L309 582 Q308 464 305.5 379.5 Q303 295 296 234.5 Q289 174 276 132.5 Q263 91 240 59 Q214 23 180 7.5 Z " />
<glyph glyph-name="afii10030" unicode="&#x41c;" horiz-adv-x="907" d="L69 714 L290 714 L457 223 L459 223 L617 714 L838 714 L838 0 L691 0 L691 506 L689 506 L514 0 L393 0 L218 501 L216 501 L216 0 L69 0 Z " />
<glyph glyph-name="afii10031" unicode="&#x41d;" horiz-adv-x="741" d="L69 714 L226 714 L226 440 L515 440 L515 714 L672 714 L672 0 L515 0 L515 308 L226 308 L226 0 L69 0 Z " />
<glyph glyph-name="afii10032" unicode="&#x41e;" horiz-adv-x="778" d="L389 -16 Q306 -16 241 12.5 Q176 41 131 91 Q86 141 62 208.5 Q38 276 38 354 Q38 433 62 502 Q86 571 131 622 Q176 673 241 702 Q306 731 389 731 Q471 731 536.5 702 Q602 673 647 622 Q692 571 716 502 Q740 433 740 354 Q740 276 716 208.5 Q692 141 647 91 Q602 41 536.5 12.5 Z L389 115 Q442 115 479 135.5 Q516 156 539 190 Q562 224 572.5 266.5 Q583 309 583 354 Q583 401 572.5 445 Q562 489 539 523.5 Q516 558 479 578.5 Q442 599 389 599 Q336 599 299 578.5 Q262 558 239 523.5 Q216 489 205.5 445 Q195 401 195 354 Q195 309 205.5 266.5 Q216 224 239 190 Q262 156 299 135.5 Z " />
<glyph glyph-name="afii10033" unicode="&#x41f;" horiz-adv-x="732" d="L69 714 L663 714 L663 0 L506 0 L506 582 L226 582 L226 0 L69 0 Z " />
<glyph glyph-name="afii10034" unicode="&#x420;" horiz-adv-x="667" d="L69 714 L391 714 Q458 714 505 694.5 Q552 675 581.5 643 Q611 611 624.5 569.5 Q638 528 638 485 Q638 441 624.5 400 Q611 359 581.5 327 Q552 295 505 275.5 Q458 256 391 256 L226 256 L226 0 L69 0 Z L348 378 Q375 378 400 382 Q425 386 444 397.5 Q463 409 474.5 430 Q486 451 486 485 Q486 519 474.5 540 Q463 561 444 572.5 Q425 584 400 588 Q375 592 348 592 L226 592 L226 378 Z " />
<glyph glyph-name="afii10035" unicode="&#x421;" horiz-adv-x="741" d="L389 -16 Q306 -16 241 12.5 Q176 41 131 91 Q86 141 62 208.5 Q38 276 38 354 Q38 433 62 502 Q86 571 131 622 Q176 673 241 702 Q306 731 389 731 Q447 731 500 714 Q553 697 594.5 664.5 Q636 632 663 584 Q690 536 697 474 L545 474 Q541 501 527 523.5 Q513 546 492 563 Q471 580 444.5 589.5 Q418 599 389 599 Q336 599 299 578.5 Q262 558 239 523.5 Q216 489 205.5 445 Q195 401 195 354 Q195 309 205.5 266.5 Q216 224 239 190 Q262 156 299 135.5 Q336 115 389 115 Q461 115 501.5 159 Q542 203 551 275 L703 275 Q697 207 672 153.5 Q647 100 606 62 Q565 24 510 4 Z " />
<glyph glyph-name="afii10036" unicode="&#x422;" horiz-adv-x="611" d="L227 582 L13 582 L13 714 L598 714 L598 582 L384 582 L384 0 L227 0 Z " />
<glyph glyph-name="afii10037" unicode="&#x423;" horiz-adv-x="647" d="L177 -13 Q151 -13 127.5 -8.5 Q104 -4 90 0 L90 127 Q119 119 165 119 Q201 119 219 137.5 Q237 156 237 180 Q237 203 226 227.5 Q215 252 204 274 L-5 714 L168 714 L332 342 L487 714 L654 714 L414 188 Q389 134 365 95.5 Q341 57 313.5 33 Q286 9 253 -2 Z " />
<glyph glyph-name="afii10038" unicode="&#x424;" horiz-adv-x="863" d="L354 62 Q282 65 223 87.5 Q164 110 122 149 Q80 188 57.5 242.5 Q35 297 35 364 Q35 428 57 482 Q79 536 120.5 575 Q162 614 221 636.5 Q280 659 354 661 L354 731 L509 731 L509 661 Q583 659 642 636.5 Q701 614 742.5 575 Q784 536 806 482 Q828 428 828 364 Q828 297 805.5 242.5 Q783 188 741 149 Q699 110 640 87.5 Q581 65 509 62 L509 -16 L354 -16 Z L354 548 Q315 546 284 531.5 Q253 517 231 492.5 Q209 468 197.5 435 Q186 402 186 364 Q186 329 198 296 Q210 263 232.5 237.5 Q255 212 285.5 196 Q316 180 354 179 Z L509 179 Q546 180 577.5 196 Q609 212 631 237.5 Q653 263 665.5 296 Q678 329 678 364 Q678 402 666 435 Q654 468 632.5 492.5 Q611 517 579.5 531.5 Q548 546 509 548 L509 179 Z " />
<glyph glyph-name="afii10039" unicode="&#x425;" horiz-adv-x="667" d="L244 374 L14 714 L196 714 L336 486 L481 714 L653 714 L424 373 L673 0 L486 0 L330 247 L171 0 L-5 0 Z " />
<glyph glyph-name="afii10040" unicode="&#x426;" horiz-adv-x="752" d="L591 0 L69 0 L69 714 L226 714 L226 132 L506 132 L506 714 L663 714 L663 132 L742 132 L742 -163 L591 -163 Z " />
<glyph glyph-name="afii10041" unicode="&#x427;" horiz-adv-x="680" d="L453 271 Q440 268 420.5 264.5 Q401 261 379.5 258 Q358 255 337 253 Q316 251 300 251 Q240 251 192.5 264 Q145 277 112.5 306.5 Q80 336 62.5 383.5 Q45 431 45 500 L45 714 L201 714 L201 498 Q201 433 226.5 407 Q252 381 312 381 Q328 381 349 383 Q370 385 390 387.5 Q410 390 427 392.5 Q444 395 453 397 L453 714 L610 714 L610 0 L453 0 Z " />
<glyph glyph-name="afii10042" unicode="&#x428;" horiz-adv-x="1081" d="L69 714 L226 714 L226 132 L462 132 L462 714 L619 714 L619 132 L855 132 L855 714 L1012 714 L1012 0 L69 0 Z " />
<glyph glyph-name="afii10043" unicode="&#x429;" horiz-adv-x="1101" d="L940 0 L69 0 L69 714 L226 714 L226 132 L462 132 L462 714 L619 714 L619 132 L855 132 L855 714 L1012 714 L1012 132 L1091 132 L1091 -163 L940 -163 Z " />
<glyph glyph-name="afii10044" unicode="&#x42a;" horiz-adv-x="814" d="L206 582 L13 582 L13 714 L363 714 L363 456 L531 456 Q585 456 631 442.5 Q677 429 711 401 Q745 373 764.5 330 Q784 287 784 229 Q784 170 765 127 Q746 84 711.5 55.5 Q677 27 629 13.5 Q581 0 523 0 L206 0 Z L511 128 Q568 128 600 151 Q632 174 632 231 Q632 259 623 278.5 Q614 298 597.5 310 Q581 322 558.5 327.5 Q536 333 510 333 L363 333 L363 128 Z " />
<glyph glyph-name="afii10045" unicode="&#x42b;" horiz-adv-x="929" d="L69 714 L226 714 L226 456 L374 456 Q428 456 474 442.5 Q520 429 554 401 Q588 373 607.5 330 Q627 287 627 229 Q627 170 608 127 Q589 84 554.5 55.5 Q520 27 472 13.5 Q424 0 366 0 L69 0 Z L354 128 Q411 128 443 151 Q475 174 475 231 Q475 259 466 278.5 Q457 298 440.5 310 Q424 322 401.5 327.5 Q379 333 353 333 L226 333 L226 128 Z L703 714 L860 714 L860 0 L703 0 Z " />
<glyph glyph-name="afii10046" unicode="&#x42c;" horiz-adv-x="677" d="L69 714 L226 714 L226 456 L394 456 Q448 456 494 442.5 Q540 429 574 401 Q608 373 627.5 330 Q647 287 647 229 Q647 170 628 127 Q609 84 574.5 55.5 Q540 27 492 13.5 Q444 0 386 0 L69 0 Z L374 128 Q431 128 463 151 Q495 174 495 231 Q495 259 486 278.5 Q477 298 460.5 310 Q444 322 421.5 327.5 Q399 333 373 333 L226 333 L226 128 Z " />
<glyph glyph-name="afii10047" unicode="&#x42d;" horiz-adv-x="738" d="L356 -16 Q286 -16 231 3 Q176 22 136 57.5 Q96 93 71.5 142.5 Q47 192 38 252 L189 252 Q218 114 355 114 Q435 114 483.5 166.5 Q532 219 543 310 L279 310 L279 433 L538 433 Q531 467 517.5 497.5 Q504 528 481.5 551 Q459 574 427 587.5 Q395 601 353 601 Q293 601 250.5 571.5 Q208 542 193 490 L44 490 Q51 542 76.5 586 Q102 630 142 662.5 Q182 695 235 713 Q288 731 350 731 Q432 731 497 702 Q562 673 607 622.5 Q652 572 676 504 Q700 436 700 358 Q700 274 675.5 205 Q651 136 606 87 Q561 38 497.5 11 Z " />
<glyph glyph-name="afii10048" unicode="&#x42e;" horiz-adv-x="1023" d="L663 -16 Q595 -16 538.5 7.5 Q482 31 440 74 Q398 117 372.5 177.5 Q347 238 341 313 L226 313 L226 0 L69 0 L69 714 L226 714 L226 440 L345 440 Q356 507 383 560.5 Q410 614 451 652 Q492 690 545.5 710.5 Q599 731 664 731 Q736 731 795 704 Q854 677 896 627.5 Q938 578 961.5 509 Q985 440 985 356 Q985 273 961.5 204.5 Q938 136 896 87 Q854 38 794.5 11 Z L664 115 Q740 115 783.5 179.5 Q827 244 827 359 Q827 473 783.5 536 Q740 599 662 599 Q624 599 593.5 582.5 Q563 566 541.5 534.5 Q520 503 508.5 458.5 Q497 414 497 359 Q497 244 541.5 180 Z " />
<glyph glyph-name="afii10049" unicode="&#x42f;" horiz-adv-x="725" d="L219 282 Q148 300 104.5 354.5 Q61 409 61 496 Q61 553 81 594 Q101 635 134.5 662 Q168 689 212.5 701.5 Q257 714 306 714 L656 714 L656 0 L500 0 L500 269 L389 269 L199 0 L3 0 Z L500 386 L500 591 L345 591 Q320 591 296.5 587.5 Q273 584 254.5 573.5 Q236 563 225 544.5 Q214 526 214 495 Q214 462 225.5 441 Q237 420 256 407.5 Q275 395 300 390.5 Q325 386 352 386 Z " />
<glyph glyph-name="afii10065" unicode="&#x430;" horiz-adv-x="574" d="L208 -13 Q171 -13 139 -4 Q107 5 83 24 Q59 43 45.5 72 Q32 101 32 141 Q32 185 47.5 213.5 Q63 242 87.5 259 Q112 276 143.5 284.5 Q175 293 207 298 Q239 303 270 306 Q301 309 325 315 Q349 321 363 332.5 Q377 344 376 366 Q376 388 368.5 402 Q361 416 348.5 423.5 Q336 431 319.5 433.5 Q303 436 284 436 Q242 436 218 418 Q194 400 190 358 L48 358 Q51 407 73 440.5 Q95 474 129 494 Q163 514 205 522.5 Q247 531 291 531 Q330 531 370 525.5 Q410 520 443 504 Q476 488 497 459 Q518 430 518 384 L518 115 Q518 80 522 48 Q526 16 536 0 L392 0 Q388 12 385.5 24.5 Q383 37 382 50 Q348 15 302 1 Z L261 81 Q303 81 326 95 Q349 109 360 128.5 Q371 148 373.5 168 Q376 188 376 200 L376 253 Q367 245 354 240.5 Q341 236 325 233 Q309 230 292 228 Q275 226 258 223 Q241 220 226 215 Q211 210 199.5 201.5 Q188 193 181 180 Q174 167 174 147 Q174 127 181 114.5 Q188 102 200 94.5 Q212 87 228 84 Z " />
<glyph glyph-name="afii10066" unicode="&#x431;" horiz-adv-x="607" d="L300 -13 Q225 -13 176 15 Q127 43 98.5 88 Q70 133 59 189 Q48 245 48 302 Q48 370 54 432.5 Q60 495 82 546 Q104 597 145.5 634.5 Q187 672 258 691 Q280 697 309.5 699 Q339 701 366 704 Q393 707 411.5 712.5 Q430 718 431 731 L556 731 Q552 683 535.5 655 Q519 627 488 610.5 Q457 594 412 586.5 Q367 579 306 573 Q258 568 225 550 Q192 532 171 504.5 Q150 477 139.5 442.5 Q129 408 125 370 L128 370 Q137 396 153.5 422 Q170 448 195 469 Q220 490 254 503.5 Q288 517 332 517 Q381 517 424.5 498 Q468 479 500 444 Q532 409 550.5 360.5 Q569 312 569 252 Q569 191 550.5 142 Q532 93 497 58.5 Q462 24 412 5.5 Z L310 93 Q364 93 395.5 134 Q427 175 427 253 Q427 329 396 371.5 Q365 414 308 414 Q254 414 223 371 Q192 328 192 252 Q192 174 223.5 133.5 Z " />
<glyph glyph-name="afii10067" unicode="&#x432;" horiz-adv-x="581" d="L58 517 L355 517 Q389 517 419 509.5 Q449 502 471.5 486.5 Q494 471 507 446 Q520 421 520 387 Q520 349 501 321.5 Q482 294 450 280 Q490 269 517 238.5 Q544 208 544 154 Q544 116 530.5 87.5 Q517 59 493 39.5 Q469 20 437 10 Q405 0 369 0 L58 0 Z L303 92 Q321 92 338 94.5 Q355 97 368 104 Q381 111 389 124.5 Q397 138 397 160 Q397 182 388.5 196 Q380 210 366 217 Q352 224 334 226.5 Q316 229 297 229 L198 229 L198 92 Z L292 309 Q308 309 323 311 Q338 313 350 319.5 Q362 326 369 337.5 Q376 349 376 369 Q376 388 369 399.5 Q362 411 350.5 417 Q339 423 323.5 425 Q308 427 292 427 L198 427 L198 309 Z " />
<glyph glyph-name="afii10068" unicode="&#x433;" horiz-adv-x="453" d="L59 517 L449 517 L449 410 L201 410 L201 0 L59 0 Z " />
<glyph glyph-name="afii10069" unicode="&#x434;" horiz-adv-x="624" d="L7 107 L69 107 Q80 129 91.5 162 Q103 195 112.5 236 Q122 277 128 325 Q134 373 134 426 L134 517 L547 517 L547 107 L614 107 L614 -142 L481 -142 L481 0 L140 0 L140 -142 L7 -142 Z L405 107 L405 411 L266 411 L266 398 Q266 350 260.5 306 Q255 262 246 224.5 Q237 187 227 157 Q217 127 208 107 Z " />
<glyph glyph-name="afii10070" unicode="&#x435;" horiz-adv-x="574" d="L293 -13 Q232 -13 183 6.5 Q134 26 100 62 Q66 98 47.5 148 Q29 198 29 258 Q29 316 48 366 Q67 416 102 452.5 Q137 489 185.5 510 Q234 531 293 531 Q355 531 402.5 508 Q450 485 481.5 446.5 Q513 408 529 357 Q545 306 545 251 Q545 244 545 237.5 Q545 231 544 224 L171 224 Q174 155 206 124 Q238 93 298 93 Q341 93 372 114.5 Q403 136 410 160 L535 160 Q505 67 443 27 Z L402 314 Q392 368 366.5 396 Q341 424 289 424 Q254 424 232 412.5 Q210 401 196.5 384 Q183 367 177.5 348 Q172 329 171 314 Z " />
<glyph glyph-name="afii10072" unicode="&#x436;" horiz-adv-x="812" d="L193 318 L15 517 L172 517 L339 311 L339 517 L473 517 L473 311 L640 517 L797 517 L616 315 L817 0 L653 0 L526 215 L473 155 L473 0 L339 0 L339 155 L286 215 L159 0 L-5 0 Z " />
<glyph glyph-name="afii10073" unicode="&#x437;" horiz-adv-x="542" d="L264 -13 Q215 -13 171.5 -3.5 Q128 6 95 28 Q62 50 42.5 84 Q23 118 22 168 L157 168 Q161 126 189.5 104 Q218 82 267 82 Q315 82 337 102 Q359 122 359 151 Q359 183 338.5 203 Q318 223 270 223 L215 223 L215 312 L252 312 Q297 312 323.5 326 Q350 340 350 379 Q350 402 330.5 419.5 Q311 437 269 437 Q226 437 201.5 422.5 Q177 408 171 366 L39 366 Q43 411 63.5 442.5 Q84 474 115.5 493.5 Q147 513 187.5 522 Q228 531 272 531 Q375 531 431.5 497.5 Q488 464 488 392 Q488 369 479.5 349.5 Q471 330 458 315 Q445 300 428 290.5 Q411 281 395 278 L395 276 Q413 274 432.5 267.5 Q452 261 468 246.5 Q484 232 494.5 209.5 Q505 187 505 153 Q505 111 487.5 80 Q470 49 438.5 28 Q407 7 362.5 -3 Z " />
<glyph glyph-name="afii10074" unicode="&#x438;" horiz-adv-x="600" d="L54 517 L190 517 L190 167 L385 517 L546 517 L546 0 L410 0 L410 350 L215 0 L54 0 Z " />
<glyph glyph-name="afii10075" unicode="&#x439;" horiz-adv-x="600" d="L54 517 L190 517 L190 167 L385 517 L546 517 L546 0 L410 0 L410 350 L215 0 L54 0 Z L299 579 Q264 579 235 587 Q206 595 185 612.5 Q164 630 152 657 Q140 684 140 723 L196 723 Q203 688 230 672.5 Q257 657 299 657 Q341 657 368 672.5 Q395 688 402 723 L458 723 Q458 684 446 657 Q434 630 413 612.5 Q392 595 362.5 587 Z " />
<glyph glyph-name="afii10076" unicode="&#x43a;" horiz-adv-x="574" d="L54 517 L196 517 L196 297 L386 517 L553 517 L356 311 L581 0 L409 0 L264 215 L196 143 L196 0 L54 0 Z " />
<glyph glyph-name="afii10077" unicode="&#x43b;" horiz-adv-x="599" d="L85 -8 Q77 -8 65.5 -7 Q54 -6 42 -4.5 Q30 -3 19.5 -1.5 Q9 0 3 2 L3 111 Q11 109 24 107.5 Q37 106 48 106 Q81 106 97 137 Q100 143 104 157 Q108 171 111.5 210 Q115 249 117.5 321.5 Q120 394 120 517 L545 517 L545 0 L403 0 L403 410 L257 410 Q257 333 255 274.5 Q253 216 248 173.5 Q243 131 235 101.5 Q227 72 215 54 Q198 26 167 9 Z " />
<glyph glyph-name="afii10078" unicode="&#x43c;" horiz-adv-x="738" d="L54 517 L260 517 L367 141 L371 141 L478 517 L684 517 L684 0 L550 0 L550 393 L547 393 L436 0 L302 0 L191 393 L188 393 L188 0 L54 0 Z " />
<glyph glyph-name="afii10079" unicode="&#x43d;" horiz-adv-x="593" d="L54 517 L196 517 L196 329 L397 329 L397 517 L539 517 L539 0 L397 0 L397 217 L196 217 L196 0 L54 0 Z " />
<glyph glyph-name="afii10080" unicode="&#x43e;" horiz-adv-x="611" d="L305 -13 Q244 -13 195 6 Q146 25 111 60.5 Q76 96 57 146 Q38 196 38 258 Q38 320 57 370.5 Q76 421 111 456.5 Q146 492 195 511.5 Q244 531 305 531 Q366 531 415.5 511.5 Q465 492 500 456.5 Q535 421 554 370.5 Q573 320 573 258 Q573 196 554 146 Q535 96 500 60.5 Q465 25 415.5 6 Z L305 93 Q341 93 365.5 107 Q390 121 404.5 144.5 Q419 168 425 197.5 Q431 227 431 258 Q431 289 425 319 Q419 349 404.5 372 Q390 395 365.5 409.5 Q341 424 305 424 Q269 424 245 409.5 Q221 395 206.5 372 Q192 349 186 319 Q180 289 180 258 Q180 227 186 197.5 Q192 168 206.5 144.5 Q221 121 245 107 Z " />
<glyph glyph-name="afii10081" unicode="&#x43f;" horiz-adv-x="583" d="L54 517 L529 517 L529 0 L387 0 L387 410 L196 410 L196 0 L54 0 Z " />
<glyph glyph-name="afii10082" unicode="&#x440;" horiz-adv-x="611" d="L54 517 L189 517 L189 451 L191 451 Q217 493 257 512 Q297 531 345 531 Q406 531 450 508 Q494 485 523 447 Q552 409 566 358.5 Q580 308 580 253 Q580 201 566 153 Q552 105 523.5 68 Q495 31 452.5 9 Q410 -13 353 -13 Q305 -13 264.5 6.5 Q224 26 198 64 L196 64 L196 -181 L54 -181 Z L315 93 Q350 93 373.5 107 Q397 121 411.5 143.5 Q426 166 432 195.5 Q438 225 438 257 Q438 288 431.5 318 Q425 348 410 371.5 Q395 395 371.5 409.5 Q348 424 314 424 Q279 424 255.5 409.5 Q232 395 217.5 372 Q203 349 197 318.5 Q191 288 191 257 Q191 225 197.5 195.5 Q204 166 218.5 143.5 Q233 121 256.5 107 Z " />
<glyph glyph-name="afii10083" unicode="&#x441;" horiz-adv-x="574" d="L299 -13 Q240 -13 192 6.5 Q144 26 110 61 Q76 96 57 144.5 Q38 193 38 251 Q38 311 55.5 362.5 Q73 414 107 451.5 Q141 489 190 510 Q239 531 302 531 Q348 531 390.5 519 Q433 507 466.5 482.5 Q500 458 521 421 Q542 384 545 335 L406 335 Q392 424 301 424 Q267 424 244 408.5 Q221 393 206.5 368.5 Q192 344 186 314 Q180 284 180 256 Q180 228 186 199 Q192 170 205.5 146.5 Q219 123 242 108 Q265 93 298 93 Q349 93 376.5 121.5 Q404 150 411 198 L548 198 Q534 95 468 41 Z " />
<glyph glyph-name="afii10084" unicode="&#x442;" horiz-adv-x="502" d="L180 410 L10 410 L10 517 L492 517 L492 410 L322 410 L322 0 L180 0 Z " />
<glyph glyph-name="afii10085" unicode="&#x443;" horiz-adv-x="519" d="L131 -181 Q109 -181 87.5 -179.5 Q66 -178 44 -176 L44 -59 Q61 -61 79.5 -62.5 Q98 -64 116 -64 Q148 -64 165 -46 Q182 -28 182 0 Q182 17 176 32 L-5 517 L146 517 L263 163 L265 163 L378 517 L525 517 L309 -64 Q286 -127 245 -154 Z " />
<glyph glyph-name="afii10086" unicode="&#x444;" horiz-adv-x="856" d="L357 35 L354 35 Q339 16 309 1.5 Q279 -13 247 -13 Q189 -13 149 10.5 Q109 34 84.5 72.5 Q60 111 49 161.5 Q38 212 38 266 Q38 327 52.5 376 Q67 425 93 459.5 Q119 494 156.5 512.5 Q194 531 240 531 Q285 531 314 515 Q343 499 354 478 L357 478 L357 714 L499 714 L499 478 L502 478 Q513 499 542 515 Q571 531 616 531 Q662 531 699.5 512.5 Q737 494 763 459.5 Q789 425 803.5 376 Q818 327 818 266 Q818 212 807 161.5 Q796 111 771.5 72.5 Q747 34 707 10.5 Q667 -13 609 -13 Q577 -13 547 1.5 Q517 16 502 35 L499 35 L499 -181 L357 -181 Z L280 93 Q312 93 332.5 108 Q353 123 357 143 L357 369 Q347 400 323 412 Q299 424 276 424 Q225 424 202.5 381 Q180 338 180 263 Q180 231 184.5 200.5 Q189 170 200.5 146 Q212 122 231 107.5 Z L576 93 Q606 93 625 107.5 Q644 122 655.5 146 Q667 170 671.5 200.5 Q676 231 676 263 Q676 338 653.5 381 Q631 424 580 424 Q557 424 533 412 Q509 400 499 369 L499 143 Q503 123 523.5 108 Z " />
<glyph glyph-name="afii10087" unicode="&#x445;" horiz-adv-x="537" d="L186 272 L16 517 L178 517 L269 382 L359 517 L516 517 L346 275 L537 0 L375 0 L267 163 L159 0 L0 0 Z " />
<glyph glyph-name="afii10088" unicode="&#x446;" horiz-adv-x="603" d="L460 0 L54 0 L54 517 L196 517 L196 107 L387 107 L387 517 L529 517 L529 107 L593 107 L593 -142 L460 -142 Z " />
<glyph glyph-name="afii10089" unicode="&#x447;" horiz-adv-x="574" d="L378 198 Q368 195 350 191.5 Q332 188 309.5 184 Q287 180 262 177.5 Q237 175 213 175 Q126 175 83 224 Q40 273 40 357 L40 517 L181 517 L181 386 Q181 330 197 307.5 Q213 285 260 285 Q273 285 290 286.5 Q307 288 323.5 290 Q340 292 354.5 295 Q369 298 378 300 L378 517 L520 517 L520 0 L378 0 Z " />
<glyph glyph-name="afii10090" unicode="&#x448;" horiz-adv-x="839" d="L54 517 L195 517 L195 107 L349 107 L349 517 L490 517 L490 107 L644 107 L644 517 L785 517 L785 0 L54 0 Z " />
<glyph glyph-name="afii10091" unicode="&#x449;" horiz-adv-x="854" d="L711 0 L54 0 L54 517 L195 517 L195 107 L346 107 L346 517 L487 517 L487 107 L638 107 L638 517 L779 517 L779 107 L844 107 L844 -142 L711 -142 Z " />
<glyph glyph-name="afii10092" unicode="&#x44a;" horiz-adv-x="646" d="L152 410 L10 410 L10 517 L294 517 L294 339 L431 339 Q470 339 504.5 328.5 Q539 318 564.5 296.5 Q590 275 605 243.5 Q620 212 620 170 Q620 127 605.5 95 Q591 63 564.5 42 Q538 21 502.5 10.5 Q467 0 425 0 L152 0 Z L391 98 Q430 98 453.5 115 Q477 132 477 170 Q477 208 452 225.5 Q427 243 390 243 L294 243 L294 98 Z " />
<glyph glyph-name="afii10093" unicode="&#x44b;" horiz-adv-x="778" d="L54 517 L196 517 L196 339 L333 339 Q372 339 406.5 328.5 Q441 318 466.5 296.5 Q492 275 507 243.5 Q522 212 522 170 Q522 127 507.5 95 Q493 63 466.5 42 Q440 21 404.5 10.5 Q369 0 327 0 L54 0 Z L293 98 Q332 98 355.5 115 Q379 132 379 170 Q379 208 354 225.5 Q329 243 292 243 L196 243 L196 98 Z L583 517 L724 517 L724 0 L583 0 Z " />
<glyph glyph-name="afii10094" unicode="&#x44c;" horiz-adv-x="548" d="L54 517 L196 517 L196 339 L333 339 Q372 339 406.5 328.5 Q441 318 466.5 296.5 Q492 275 507 243.5 Q522 212 522 170 Q522 127 507.5 95 Q493 63 466.5 42 Q440 21 404.5 10.5 Q369 0 327 0 L54 0 Z L293 98 Q332 98 355.5 115 Q379 132 379 170 Q379 208 354 225.5 Q329 243 292 243 L196 243 L196 98 Z " />
<glyph glyph-name="afii10095" unicode="&#x44d;" horiz-adv-x="576" d="L275 -13 Q177 -13 111.5 35 Q46 83 32 178 L167 178 Q178 136 205.5 112.5 Q233 89 275 89 Q330 89 359.5 125 Q389 161 396 222 L225 222 L225 312 L393 312 Q383 366 351.5 397 Q320 428 272 428 Q234 428 206 408 Q178 388 168 348 L32 348 Q45 433 109 482 Q173 531 273 531 Q333 531 382 511 Q431 491 465.5 455 Q500 419 519 368 Q538 317 538 254 Q538 194 519.5 144.5 Q501 95 466.5 60 Q432 25 383.5 6 Z " />
<glyph glyph-name="afii10096" unicode="&#x44e;" horiz-adv-x="835" d="L546 -13 Q435 -13 370.5 49 Q306 111 296 220 L196 220 L196 0 L54 0 L54 517 L196 517 L196 320 L299 320 Q315 417 379 474 Q443 531 548 531 Q606 531 652 511.5 Q698 492 730 456 Q762 420 779.5 369.5 Q797 319 797 258 Q797 196 779.5 146 Q762 96 730 60.5 Q698 25 651 6 Z L546 93 Q600 93 627.5 135.5 Q655 178 655 259 Q655 337 626.5 380.5 Q598 424 544 424 Q492 424 464 380 Q436 336 436 258 Q436 177 464 135 Z " />
<glyph glyph-name="afii10097" unicode="&#x44f;" horiz-adv-x="578" d="L164 194 Q109 203 74.5 247 Q40 291 40 355 Q40 389 52.5 418.5 Q65 448 88 470 Q111 492 142 504.5 Q173 517 211 517 L524 517 L524 0 L382 0 L382 182 L315 182 L174 0 L0 0 Z L382 414 L269 414 Q220 414 202 396.5 Q184 379 184 350 Q184 320 201.5 302 Q219 284 269 284 L382 284 Z " />
<glyph glyph-name="uni0450" unicode="&#x450;" horiz-adv-x="574" d="L293 -13 Q232 -13 183 6.5 Q134 26 100 62 Q66 98 47.5 148 Q29 198 29 258 Q29 316 48 366 Q67 416 102 452.5 Q137 489 185.5 510 Q234 531 293 531 Q355 531 402.5 508 Q450 485 481.5 446.5 Q513 408 529 357 Q545 306 545 251 Q545 244 545 237.5 Q545 231 544 224 L171 224 Q174 155 206 124 Q238 93 298 93 Q341 93 372 114.5 Q403 136 410 160 L535 160 Q505 67 443 27 Z L402 314 Q392 368 366.5 396 Q341 424 289 424 Q254 424 232 412.5 Q210 401 196.5 384 Q183 367 177.5 348 Q172 329 171 314 Z L267 723 L363 581 L264 581 L111 723 Z " />
<glyph glyph-name="afii10071" unicode="&#x451;" horiz-adv-x="574" d="L293 -13 Q232 -13 183 6.5 Q134 26 100 62 Q66 98 47.5 148 Q29 198 29 258 Q29 316 48 366 Q67 416 102 452.5 Q137 489 185.5 510 Q234 531 293 531 Q355 531 402.5 508 Q450 485 481.5 446.5 Q513 408 529 357 Q545 306 545 251 Q545 244 545 237.5 Q545 231 544 224 L171 224 Q174 155 206 124 Q238 93 298 93 Q341 93 372 114.5 Q403 136 410 160 L535 160 Q505 67 443 27 Z L402 314 Q392 368 366.5 396 Q341 424 289 424 Q254 424 232 412.5 Q210 401 196.5 384 Q183 367 177.5 348 Q172 329 171 314 Z L256 714 L256 597 L122 597 L122 714 Z L462 714 L462 597 L327 597 L327 714 Z " />
<glyph glyph-name="afii10099" unicode="&#x452;" horiz-adv-x="613" d="L324 -181 Q297 -181 267 -178 L267 -64 Q275 -65 287 -65.5 Q299 -66 309 -66 Q335 -66 355.5 -60.5 Q376 -55 389.5 -40 Q403 -25 410 0.5 Q417 26 417 65 L417 250 Q417 314 397 345.5 Q377 377 326 377 Q268 377 242 342.5 Q216 308 216 229 L216 0 L74 0 L74 535 L-8 535 L-8 631 L74 631 L74 714 L216 714 L216 631 L424 631 L424 535 L216 535 L216 403 L219 403 Q246 448 288 468.5 Q330 489 370 489 Q427 489 463.5 473.5 Q500 458 521 430.5 Q542 403 550.5 363.5 Q559 324 559 276 L559 56 Q559 -56 503 -118.5 Z " />
<glyph glyph-name="afii10100" unicode="&#x453;" horiz-adv-x="453" d="L59 517 L449 517 L449 410 L201 410 L201 0 L59 0 Z L155 581 L251 723 L408 723 L254 581 Z " />
<glyph glyph-name="afii10101" unicode="&#x454;" horiz-adv-x="576" d="L301 -13 Q241 -13 192.5 6 Q144 25 109.5 60 Q75 95 56.5 144.5 Q38 194 38 254 Q38 317 57 368 Q76 419 110.5 455 Q145 491 194 511 Q243 531 303 531 Q403 531 467 482 Q531 433 544 348 L408 348 Q398 388 370 408 Q342 428 304 428 Q256 428 224.5 397 Q193 366 183 312 L351 312 L351 222 L180 222 Q187 161 216.5 125 Q246 89 301 89 Q343 89 370.5 112.5 Q398 136 409 178 L544 178 Q530 83 464.5 35 Z " />
<glyph glyph-name="afii10102" unicode="&#x455;" horiz-adv-x="537" d="L272 -13 Q227 -13 184 -4 Q141 5 107.5 26 Q74 47 52.5 81.5 Q31 116 29 168 L164 168 Q164 145 173.5 128.5 Q183 112 198 101.5 Q213 91 232.5 86 Q252 81 273 81 Q288 81 304.5 84.5 Q321 88 334.5 95.5 Q348 103 357 115.5 Q366 128 366 147 Q366 179 323.5 195 Q281 211 205 227 Q174 234 144.5 243.5 Q115 253 92 268.5 Q69 284 55 307 Q41 330 41 365 Q41 414 60.5 446.5 Q80 479 112 497.5 Q144 516 184 523.5 Q224 531 266 531 Q308 531 347.5 523 Q387 515 418 496 Q449 477 469.5 445.5 Q490 414 494 366 L359 366 Q356 407 328 421.5 Q300 436 262 436 Q250 436 236 434.5 Q222 433 210.5 428 Q199 423 191 413.5 Q183 404 183 388 Q183 369 197 357 Q211 345 233.5 337.5 Q256 330 285 324 Q314 318 344 311 Q375 304 404.5 294 Q434 284 457 267.5 Q480 251 494 226.5 Q508 202 508 166 Q508 115 487.5 80.5 Q467 46 434 25 Q401 4 358.5 -4.5 Z " />
<glyph glyph-name="afii10103" unicode="&#x456;" horiz-adv-x="258" d="L58 517 L200 517 L200 0 L58 0 Z L58 714 L200 714 L200 597 L58 597 Z " />
<glyph glyph-name="afii10104" unicode="&#x457;" horiz-adv-x="258" d="L93 714 L93 597 L-41 597 L-41 714 Z L299 714 L299 597 L164 597 L164 714 Z L200 517 L200 0 L58 0 L58 517 Z " />
<glyph glyph-name="afii10105" unicode="&#x458;" horiz-adv-x="278" d="L27 -181 Q-1 -181 -18 -177 L-18 -60 Q-9 -64 12 -64 Q34 -64 50.5 -55.5 Q67 -47 67 -18 L67 517 L209 517 L209 -25 Q209 -65 200.5 -94 Q192 -123 171.5 -142.5 Q151 -162 116 -171.5 Z L67 714 L209 714 L209 597 L67 597 Z " />
<glyph glyph-name="afii10106" unicode="&#x459;" horiz-adv-x="897" d="L85 -8 Q77 -8 65.5 -7 Q54 -6 42 -4.5 Q30 -3 19.5 -1.5 Q9 0 3 2 L3 111 Q11 109 24 107.5 Q37 106 48 106 Q81 106 97 137 Q100 143 104 157 Q108 171 111.5 210 Q115 249 117.5 321.5 Q120 394 120 517 L545 517 L545 339 L682 339 Q721 339 755.5 328.5 Q790 318 815.5 296.5 Q841 275 856 243.5 Q871 212 871 170 Q871 127 856.5 95 Q842 63 815.5 42 Q789 21 753.5 10.5 Q718 0 676 0 L403 0 L403 410 L257 410 Q257 333 255 274.5 Q253 216 248 173.5 Q243 131 235 101.5 Q227 72 215 54 Q198 26 167 9 Z L642 98 Q681 98 704.5 115 Q728 132 728 170 Q728 208 703 225.5 Q678 243 641 243 L545 243 L545 98 Z " />
<glyph glyph-name="afii10107" unicode="&#x45a;" horiz-adv-x="891" d="L54 517 L196 517 L196 329 L397 329 L397 517 L539 517 L539 329 L676 329 Q715 329 749.5 319 Q784 309 809.5 289 Q835 269 850 238 Q865 207 865 165 Q865 122 850.5 91 Q836 60 809.5 39.5 Q783 19 747.5 9.5 Q712 0 670 0 L397 0 L397 217 L196 217 L196 0 L54 0 Z L636 98 Q675 98 698.5 112.5 Q722 127 722 165 Q722 203 697 218 Q672 233 635 233 L539 233 L539 98 Z " />
<glyph glyph-name="afii10108" unicode="&#x45b;" horiz-adv-x="613" d="L74 535 L-8 535 L-8 631 L74 631 L74 714 L216 714 L216 631 L424 631 L424 535 L216 535 L216 403 L219 403 Q246 448 288 468.5 Q330 489 370 489 Q427 489 463.5 473.5 Q500 458 521 430.5 Q542 403 550.5 363.5 Q559 324 559 276 L559 0 L417 0 L417 250 Q417 314 397 345.5 Q377 377 326 377 Q268 377 242 342.5 Q216 308 216 229 L216 0 L74 0 Z " />
<glyph glyph-name="afii10109" unicode="&#x45c;" horiz-adv-x="574" d="L54 517 L196 517 L196 297 L386 517 L553 517 L356 311 L581 0 L409 0 L264 215 L196 143 L196 0 L54 0 Z L210 581 L306 723 L463 723 L309 581 Z " />
<glyph glyph-name="uni045D" unicode="&#x45d;" horiz-adv-x="600" d="L54 517 L190 517 L190 167 L385 517 L546 517 L546 0 L410 0 L410 350 L215 0 L54 0 Z L290 723 L386 581 L287 581 L134 723 Z " />
<glyph glyph-name="afii10110" unicode="&#x45e;" horiz-adv-x="519" d="L131 -181 Q109 -181 87.5 -179.5 Q66 -178 44 -176 L44 -59 Q61 -61 79.5 -62.5 Q98 -64 116 -64 Q148 -64 165 -46 Q182 -28 182 0 Q182 17 176 32 L-5 517 L146 517 L263 163 L265 163 L378 517 L525 517 L309 -64 Q286 -127 245 -154 Z L265 579 Q230 579 201 587 Q172 595 151 612.5 Q130 630 118 657 Q106 684 106 723 L162 723 Q169 688 196 672.5 Q223 657 265 657 Q307 657 334 672.5 Q361 688 368 723 L424 723 Q424 684 412 657 Q400 630 379 612.5 Q358 595 328.5 587 Z " />
<glyph glyph-name="afii10193" unicode="&#x45f;" horiz-adv-x="583" d="L225 0 L54 0 L54 517 L196 517 L196 107 L387 107 L387 517 L529 517 L529 0 L359 0 L359 -142 L225 -142 Z " />
<glyph glyph-name="afii10146" unicode="&#x462;" horiz-adv-x="754" d="L146 526 L0 526 L0 631 L146 631 L146 714 L303 714 L303 631 L514 631 L514 526 L303 526 L303 435 L471 435 Q525 435 571 422 Q617 409 651 382 Q685 355 704.5 314 Q724 273 724 218 Q724 160 705 118.5 Q686 77 651.5 51 Q617 25 569 12.5 Q521 0 463 0 L146 0 Z L451 128 Q515 128 543.5 149.5 Q572 171 572 220 Q572 268 541 290 Q510 312 450 312 L303 312 L303 128 Z " />
<glyph glyph-name="afii10194" unicode="&#x463;" horiz-adv-x="588" d="L94 422 L-10 422 L-10 517 L94 517 L94 714 L236 714 L236 517 L401 517 L401 422 L236 422 L236 339 L373 339 Q412 339 446.5 328.5 Q481 318 506.5 296.5 Q532 275 547 243.5 Q562 212 562 170 Q562 127 547.5 95 Q533 63 506.5 42 Q480 21 444.5 10.5 Q409 0 367 0 L94 0 Z L333 98 Q372 98 395.5 115 Q419 132 419 170 Q419 208 394 225.5 Q369 243 332 243 L236 243 L236 98 Z " />
<glyph glyph-name="uni046A" unicode="&#x46a;" horiz-adv-x="997" d="L60 169 Q60 238 75 285.5 Q90 333 120.5 362.5 Q151 392 196 405 Q241 418 301 418 L371 418 L181 714 L820 714 L631 418 L696 418 Q756 418 801 405 Q846 392 876.5 362.5 Q907 333 922 285.5 Q937 238 937 169 L937 0 L781 0 L781 181 Q781 246 755.5 272 Q730 298 670 298 L577 298 L577 0 L420 0 L420 298 L327 298 Q267 298 241.5 272 Q216 246 216 181 L216 0 L60 0 Z L593 602 L415 602 L503 446 Z " />
<glyph glyph-name="uni046B" unicode="&#x46b;" horiz-adv-x="822" d="L46 110 Q46 194 89 243 Q132 292 219 292 L290 292 L141 517 L661 517 L510 292 L603 292 Q690 292 733 243 Q776 194 776 110 L776 0 L635 0 L635 101 Q635 157 619 179.5 Q603 202 556 202 L473 202 L473 0 L331 0 L331 202 L266 202 Q219 202 203 179.5 Q187 157 187 101 L187 0 L46 0 Z L463 427 L344 427 L404 322 Z " />
<glyph glyph-name="afii10147" unicode="&#x472;" horiz-adv-x="778" d="L389 -16 Q306 -16 241 12.5 Q176 41 131 91 Q86 141 62 208.5 Q38 276 38 354 Q38 433 62 502 Q86 571 131 622 Q176 673 241 702 Q306 731 389 731 Q471 731 536.5 702 Q602 673 647 622 Q692 571 716 502 Q740 433 740 354 Q740 276 716 208.5 Q692 141 647 91 Q602 41 536.5 12.5 Z L389 111 Q439 111 475 129 Q511 147 534.5 177 Q558 207 570.5 246 Q583 285 586 327 Q575 314 562.5 301 Q550 288 537 277.5 Q524 267 510.5 260.5 Q497 254 483 254 Q461 254 434.5 267.5 Q408 281 382 296.5 Q356 312 331 325.5 Q306 339 287 339 Q256 339 233.5 327.5 Q211 316 195 298 Q201 260 214.5 226.5 Q228 193 251.5 167 Q275 141 309 126 Z L484 372 Q514 372 539.5 385 Q565 398 582 417 Q576 455 562 489 Q548 523 524.5 548.5 Q501 574 467.5 588.5 Q434 603 389 603 Q340 603 304.5 585.5 Q269 568 245.5 539 Q222 510 209 471 Q196 432 192 390 Q213 414 238.5 435.5 Q264 457 291 457 Q315 457 342.5 443.5 Q370 430 396.5 414.5 Q423 399 446 385.5 Z " />
<glyph glyph-name="afii10195" unicode="&#x473;" horiz-adv-x="611" d="L305 -13 Q244 -13 195 6 Q146 25 111 60.5 Q76 96 57 146 Q38 196 38 258 Q38 320 57 370.5 Q76 421 111 456.5 Q146 492 195 511.5 Q244 531 305 531 Q366 531 415.5 511.5 Q465 492 500 456.5 Q535 421 554 370.5 Q573 320 573 258 Q573 196 554 146 Q535 96 500 60.5 Q465 25 415.5 6 Z L305 89 Q338 89 361 100.5 Q384 112 399 131 Q414 150 422 175 Q430 200 433 227 Q419 210 401 197 Q383 184 363 184 Q345 184 330.5 192.5 Q316 201 302 211.5 Q288 222 274 231 Q260 240 245 240 Q221 240 206 229 Q191 218 180 204 Q184 180 193.5 159.5 Q203 139 218 123 Q233 107 254.5 98 Z L364 281 Q387 281 403 288.5 Q419 296 431 309 Q427 333 418 355 Q409 377 394 393 Q379 409 357 418.5 Q335 428 305 428 Q272 428 249 416.5 Q226 405 211 385.5 Q196 366 188 340.5 Q180 315 177 287 Q191 306 209 321.5 Q227 337 249 337 Q268 337 284 328 Q300 319 313.5 308.5 Q327 298 339.5 289.5 Z " />
<glyph glyph-name="afii10148" unicode="&#x474;" horiz-adv-x="670" d="L-7 714 L154 714 L313 212 L315 212 L435 611 Q452 669 497.5 698.5 Q543 728 602 728 Q623 728 651 724.5 Q679 721 695 716 L695 596 Q687 599 670 600.5 Q653 602 645 602 Q639 602 629 601 Q619 600 608.5 595.5 Q598 591 588.5 581.5 Q579 572 574 556 L401 0 L224 0 Z " />
<glyph glyph-name="afii10196" unicode="&#x475;" horiz-adv-x="540" d="L5 517 L154 517 L263 164 L265 164 L333 421 Q339 444 349 463.5 Q359 483 374.5 497.5 Q390 512 412.5 520 Q435 528 467 528 Q475 528 486.5 527.5 Q498 527 510 525.5 Q522 524 532.5 522.5 Q543 521 549 519 L549 410 Q541 412 528 413 Q515 414 504 414 Q487 414 474 402.5 Q461 391 456 374 L340 0 L182 0 Z " />
<glyph glyph-name="uni048C" unicode="&#x48c;" horiz-adv-x="754" d="L146 609 L0 609 L0 714 L146 714 L146 820 L303 820 L303 714 L454 714 L454 609 L303 609 L303 435 L471 435 Q525 435 571 422 Q617 409 651 382 Q685 355 704.5 314 Q724 273 724 218 Q724 160 705 118.5 Q686 77 651.5 51 Q617 25 569 12.5 Q521 0 463 0 L146 0 Z L451 128 Q515 128 543.5 149.5 Q572 171 572 220 Q572 268 541 290 Q510 312 450 312 L303 312 L303 128 Z " />
<glyph glyph-name="uni048D" unicode="&#x48d;" horiz-adv-x="588" d="L94 422 L-10 422 L-10 517 L94 517 L94 625 L236 625 L236 517 L354 517 L354 422 L236 422 L236 339 L373 339 Q412 339 446.5 328.5 Q481 318 506.5 296.5 Q532 275 547 243.5 Q562 212 562 170 Q562 127 547.5 95 Q533 63 506.5 42 Q480 21 444.5 10.5 Q409 0 367 0 L94 0 Z L333 98 Q372 98 395.5 115 Q419 132 419 170 Q419 208 394 225.5 Q369 243 332 243 L236 243 L236 98 Z " />
<glyph glyph-name="afii10050" unicode="&#x490;" horiz-adv-x="574" d="L69 714 L415 714 L415 871 L566 871 L566 582 L226 582 L226 0 L69 0 Z " />
<glyph glyph-name="afii10098" unicode="&#x491;" horiz-adv-x="453" d="L59 517 L320 517 L320 658 L449 658 L449 410 L201 410 L201 0 L59 0 Z " />
<glyph glyph-name="uni0492" unicode="&#x492;" horiz-adv-x="627" d="L127 307 L24 307 L24 429 L127 429 L127 714 L623 714 L623 582 L284 582 L284 429 L471 429 L471 307 L284 307 L284 0 L127 0 Z " />
<glyph glyph-name="uni0493" unicode="&#x493;" horiz-adv-x="495" d="L101 213 L18 213 L18 304 L101 304 L101 517 L491 517 L491 410 L243 410 L243 304 L388 304 L388 213 L243 213 L243 0 L101 0 Z " />
<glyph glyph-name="uni0496" unicode="&#x496;" horiz-adv-x="1082" d="L926 0 L873 0 L683 312 L606 225 L606 0 L455 0 L455 225 L378 312 L187 0 L-6 0 L279 423 L20 714 L205 714 L455 420 L455 714 L606 714 L606 420 L856 714 L1041 714 L782 423 L978 132 L1077 132 L1077 -163 L926 -163 Z " />
<glyph glyph-name="uni0497" unicode="&#x497;" horiz-adv-x="832" d="L696 0 L653 0 L526 215 L473 155 L473 0 L339 0 L339 155 L286 215 L159 0 L-5 0 L193 318 L15 517 L172 517 L339 311 L339 517 L473 517 L473 311 L640 517 L797 517 L616 315 L749 107 L829 107 L829 -142 L696 -142 Z " />
<glyph glyph-name="uni0498" unicode="&#x498;" horiz-adv-x="647" d="L326 -217 Q302 -217 285 -215.5 Q268 -214 254.5 -211 Q241 -208 228.5 -204 Q216 -200 202 -195 L223 -147 Q239 -154 260 -159.5 Q281 -165 307 -165 Q325 -165 336 -157 Q347 -149 347 -131 Q347 -112 335.5 -105.5 Q324 -99 307 -99 Q285 -99 267 -106 L246 -82 L293 -15 Q163 -6 93 60 Q23 126 21 240 L176 240 Q177 204 189.5 178 Q202 152 222.5 135.5 Q243 119 270.5 111.5 Q298 104 330 104 Q385 104 419 137.5 Q453 171 453 220 Q453 250 442 269.5 Q431 289 412 300.5 Q393 312 369 316 Q345 320 319 320 L265 320 L265 426 Q274 425 287 425 Q300 425 307 425 Q436 425 436 522 Q436 564 406.5 587 Q377 610 329 610 Q271 610 236.5 582 Q202 554 197 502 L49 502 Q50 562 73 605 Q96 648 134.5 676 Q173 704 223.5 717.5 Q274 731 330 731 Q384 731 430.5 716.5 Q477 702 510.5 676 Q544 650 563.5 613.5 Q583 577 583 532 Q583 478 553 439 Q523 400 475 389 Q503 384 528 370 Q553 356 571 334.5 Q589 313 599.5 284 Q610 255 610 221 Q610 170 589.5 127.5 Q569 85 533 53.5 Q497 22 447.5 4 Q398 -14 341 -16 L315 -52 L317 -52 Q329 -47 351 -47 Q368 -47 384.5 -51 Q401 -55 414 -63.5 Q427 -72 435 -85.5 Q443 -99 443 -117 Q443 -146 433 -165.5 Q423 -185 406.5 -196.5 Q390 -208 369 -212.5 Z " />
<glyph glyph-name="uni0499" unicode="&#x499;" horiz-adv-x="542" d="L273 -217 Q249 -217 232 -215.5 Q215 -214 201.5 -211 Q188 -208 175.5 -204 Q163 -200 149 -195 L170 -147 Q186 -154 207 -159.5 Q228 -165 254 -165 Q272 -165 283 -157 Q294 -149 294 -131 Q294 -112 282.5 -105.5 Q271 -99 254 -99 Q232 -99 214 -106 L193 -82 L242 -12 Q197 -10 157.5 0.5 Q118 11 88 33 Q58 55 40.5 88 Q23 121 22 168 L157 168 Q161 126 189.5 104 Q218 82 267 82 Q315 82 337 102 Q359 122 359 151 Q359 183 338.5 203 Q318 223 270 223 L215 223 L215 312 L252 312 Q297 312 323.5 326 Q350 340 350 379 Q350 402 330.5 419.5 Q311 437 269 437 Q226 437 201.5 422.5 Q177 408 171 366 L39 366 Q43 411 63.5 442.5 Q84 474 115.5 493.5 Q147 513 187.5 522 Q228 531 272 531 Q375 531 431.5 497.5 Q488 464 488 392 Q488 369 479.5 349.5 Q471 330 458 315 Q445 300 428 290.5 Q411 281 395 278 L395 276 Q413 274 432.5 267.5 Q452 261 468 246.5 Q484 232 494.5 209.5 Q505 187 505 153 Q505 114 489.5 84 Q474 54 446 33.5 Q418 13 378 2 Q338 -9 290 -12 L262 -52 L264 -52 Q276 -47 298 -47 Q315 -47 331.5 -51 Q348 -55 361 -63.5 Q374 -72 382 -85.5 Q390 -99 390 -117 Q390 -146 380 -165.5 Q370 -185 353.5 -196.5 Q337 -208 316 -212.5 Z " />
<glyph glyph-name="uni049A" unicode="&#x49a;" horiz-adv-x="743" d="L587 0 L531 0 L316 321 L226 230 L226 0 L69 0 L69 714 L226 714 L226 418 L505 714 L701 714 L422 432 L635 132 L738 132 L738 -163 L587 -163 Z " />
<glyph glyph-name="uni049B" unicode="&#x49b;" horiz-adv-x="586" d="L450 0 L409 0 L264 215 L196 143 L196 0 L54 0 L54 517 L196 517 L196 297 L386 517 L553 517 L356 311 L505 107 L583 107 L583 -142 L450 -142 Z " />
<glyph glyph-name="uni049C" unicode="&#x49c;" horiz-adv-x="752" d="L69 714 L226 714 L226 440 L273 440 L273 573 L353 573 L353 440 L365 440 L565 714 L741 714 L488 382 L758 0 L561 0 L358 308 L353 308 L353 173 L273 173 L273 308 L226 308 L226 0 L69 0 Z " />
<glyph glyph-name="uni049D" unicode="&#x49d;" horiz-adv-x="615" d="L54 517 L196 517 L196 323 L234 323 L234 415 L299 415 L299 323 L304 323 L449 517 L605 517 L417 283 L621 0 L449 0 L304 215 L299 215 L299 120 L234 120 L234 215 L196 215 L196 0 L54 0 Z " />
<glyph glyph-name="uni04A0" unicode="&#x4a0;" horiz-adv-x="859" d="L206 582 L13 582 L13 714 L363 714 L363 418 L642 714 L838 714 L559 432 L865 0 L668 0 L453 321 L363 230 L363 0 L206 0 Z " />
<glyph glyph-name="uni04A1" unicode="&#x4a1;" horiz-adv-x="672" d="L152 410 L10 410 L10 517 L294 517 L294 297 L484 517 L651 517 L454 311 L679 0 L507 0 L362 215 L294 143 L294 0 L152 0 Z " />
<glyph glyph-name="uni04A2" unicode="&#x4a2;" horiz-adv-x="761" d="L600 0 L515 0 L515 308 L226 308 L226 0 L69 0 L69 714 L226 714 L226 440 L515 440 L515 714 L672 714 L672 132 L751 132 L751 -163 L600 -163 Z " />
<glyph glyph-name="uni04A3" unicode="&#x4a3;" horiz-adv-x="610" d="L470 0 L397 0 L397 217 L196 217 L196 0 L54 0 L54 517 L196 517 L196 329 L397 329 L397 517 L539 517 L539 107 L603 107 L603 -142 L470 -142 Z " />
<glyph glyph-name="uni04A4" unicode="&#x4a4;" horiz-adv-x="1015" d="L69 714 L226 714 L226 440 L515 440 L515 714 L1011 714 L1011 582 L672 582 L672 0 L515 0 L515 308 L226 308 L226 0 L69 0 Z " />
<glyph glyph-name="uni04A5" unicode="&#x4a5;" horiz-adv-x="791" d="L54 517 L196 517 L196 329 L397 329 L397 517 L787 517 L787 410 L539 410 L539 0 L397 0 L397 217 L196 217 L196 0 L54 0 Z " />
<glyph glyph-name="uni04AA" unicode="&#x4aa;" horiz-adv-x="741" d="L386 -217 Q362 -217 345 -215.5 Q328 -214 314.5 -211 Q301 -208 288.5 -204 Q276 -200 262 -195 L283 -147 Q299 -154 320 -159.5 Q341 -165 367 -165 Q385 -165 396 -157 Q407 -149 407 -131 Q407 -112 395.5 -105.5 Q384 -99 367 -99 Q345 -99 327 -106 L306 -82 L353 -14 Q279 -8 220.5 22.5 Q162 53 121.5 102 Q81 151 59.5 215.5 Q38 280 38 354 Q38 433 62 502 Q86 571 131 622 Q176 673 241 702 Q306 731 389 731 Q447 731 500 714 Q553 697 594.5 664.5 Q636 632 663 584 Q690 536 697 474 L545 474 Q541 501 527 523.5 Q513 546 492 563 Q471 580 444.5 589.5 Q418 599 389 599 Q336 599 299 578.5 Q262 558 239 523.5 Q216 489 205.5 445 Q195 401 195 354 Q195 309 205.5 266.5 Q216 224 239 190 Q262 156 299 135.5 Q336 115 389 115 Q461 115 501.5 159 Q542 203 551 275 L703 275 Q697 209 673 156 Q649 103 609.5 65.5 Q570 28 517 7 Q464 -14 401 -16 L375 -52 L377 -52 Q389 -47 411 -47 Q428 -47 444.5 -51 Q461 -55 474 -63.5 Q487 -72 495 -85.5 Q503 -99 503 -117 Q503 -146 493 -165.5 Q483 -185 466.5 -196.5 Q450 -208 429 -212.5 Z " />
<glyph glyph-name="uni04AB" unicode="&#x4ab;" horiz-adv-x="574" d="L306 -217 Q282 -217 265 -215.5 Q248 -214 234.5 -211 Q221 -208 208.5 -204 Q196 -200 182 -195 L203 -147 Q219 -154 240 -159.5 Q261 -165 287 -165 Q305 -165 316 -157 Q327 -149 327 -131 Q327 -112 315.5 -105.5 Q304 -99 287 -99 Q265 -99 247 -106 L226 -82 L275 -12 Q221 -8 177.5 13 Q134 34 103 68.5 Q72 103 55 149.5 Q38 196 38 251 Q38 311 55.5 362.5 Q73 414 107 451.5 Q141 489 190 510 Q239 531 302 531 Q348 531 390.5 519 Q433 507 466.5 482.5 Q500 458 521 421 Q542 384 545 335 L406 335 Q392 424 301 424 Q267 424 244 408.5 Q221 393 206.5 368.5 Q192 344 186 314 Q180 284 180 256 Q180 228 186 199 Q192 170 205.5 146.5 Q219 123 242 108 Q265 93 298 93 Q349 93 376.5 121.5 Q404 150 411 198 L548 198 Q534 101 475.5 47.5 Q417 -6 323 -12 L295 -52 L297 -52 Q309 -47 331 -47 Q348 -47 364.5 -51 Q381 -55 394 -63.5 Q407 -72 415 -85.5 Q423 -99 423 -117 Q423 -146 413 -165.5 Q403 -185 386.5 -196.5 Q370 -208 349 -212.5 Z " />
<glyph glyph-name="uni04AE" unicode="&#x4ae;" horiz-adv-x="667" d="L254 278 L-8 714 L168 714 L335 432 L501 714 L676 714 L411 274 L411 0 L254 0 Z " />
<glyph glyph-name="uni04AF" unicode="&#x4af;" horiz-adv-x="519" d="L188 17 L-5 517 L146 517 L263 173 L265 173 L378 517 L525 517 L330 10 L330 -181 L188 -181 Z " />
<glyph glyph-name="uni04B0" unicode="&#x4b0;" horiz-adv-x="667" d="L254 134 L100 134 L100 239 L254 239 L254 278 L-8 714 L168 714 L335 432 L501 714 L676 714 L411 274 L411 239 L565 239 L565 134 L411 134 L411 0 L254 0 Z " />
<glyph glyph-name="uni04B1" unicode="&#x4b1;" horiz-adv-x="519" d="L188 -103 L66 -103 L66 -8 L188 -8 L188 17 L-5 517 L146 517 L263 173 L265 173 L378 517 L525 517 L330 10 L330 -8 L452 -8 L452 -103 L330 -103 L330 -181 L188 -181 Z " />
<glyph glyph-name="uni04B2" unicode="&#x4b2;" horiz-adv-x="688" d="L532 0 L486 0 L330 247 L171 0 L-5 0 L244 374 L14 714 L196 714 L336 486 L481 714 L653 714 L424 373 L585 132 L683 132 L683 -163 L532 -163 Z " />
<glyph glyph-name="uni04B3" unicode="&#x4b3;" horiz-adv-x="553" d="L375 0 L267 163 L159 0 L0 0 L186 272 L16 517 L178 517 L269 382 L359 517 L516 517 L346 275 L463 107 L550 107 L550 -142 L417 -142 L417 0 Z " />
<glyph glyph-name="uni04B6" unicode="&#x4b6;" horiz-adv-x="699" d="L538 0 L453 0 L453 271 Q440 268 420.5 264.5 Q401 261 379.5 258 Q358 255 337 253 Q316 251 300 251 Q240 251 192.5 264 Q145 277 112.5 306.5 Q80 336 62.5 383.5 Q45 431 45 500 L45 714 L201 714 L201 498 Q201 433 226.5 407 Q252 381 312 381 Q328 381 349 383 Q370 385 390 387.5 Q410 390 427 392.5 Q444 395 453 397 L453 714 L610 714 L610 132 L689 132 L689 -163 L538 -163 Z " />
<glyph glyph-name="uni04B7" unicode="&#x4b7;" horiz-adv-x="591" d="L451 0 L378 0 L378 198 Q368 195 350 191.5 Q332 188 309.5 184 Q287 180 262 177.5 Q237 175 213 175 Q126 175 83 224 Q40 273 40 357 L40 517 L181 517 L181 386 Q181 330 197 307.5 Q213 285 260 285 Q273 285 290 286.5 Q307 288 323.5 290 Q340 292 354.5 295 Q369 298 378 300 L378 517 L520 517 L520 107 L584 107 L584 -142 L451 -142 Z " />
<glyph glyph-name="uni04B8" unicode="&#x4b8;" horiz-adv-x="680" d="L453 271 Q437 267 413.5 262.5 Q390 258 364 255 L364 123 L284 123 L284 251 Q227 252 183 266.5 Q139 281 108 310.5 Q77 340 61 386.5 Q45 433 45 500 L45 714 L201 714 L201 498 Q201 441 220 414 Q239 387 284 382 L284 523 L364 523 L364 384 Q391 386 416.5 390 Q442 394 453 397 L453 714 L610 714 L610 0 L453 0 Z " />
<glyph glyph-name="uni04B9" unicode="&#x4b9;" horiz-adv-x="574" d="L378 198 Q367 195 349.5 191 Q332 187 309 183 L309 80 L244 80 L244 176 Q236 175 228.5 175 Q221 175 213 175 Q126 175 83 224 Q40 273 40 357 L40 517 L181 517 L181 386 Q181 335 193.5 312 Q206 289 244 286 L244 385 L309 385 L309 288 Q329 290 348 293.5 Q367 297 378 300 L378 517 L520 517 L520 0 L378 0 Z " />
<glyph glyph-name="uni04BA" unicode="&#x4ba;" horiz-adv-x="675" d="L69 714 L226 714 L226 443 Q239 446 258.5 449.5 Q278 453 299.5 456 Q321 459 342 461 Q363 463 379 463 Q439 463 486.5 450 Q534 437 566.5 407.5 Q599 378 616.5 330.5 Q634 283 634 214 L634 0 L478 0 L478 216 Q478 281 452.5 307 Q427 333 367 333 Q351 333 330 331 Q309 329 289 326.5 Q269 324 252 321.5 Q235 319 226 317 L226 0 L69 0 Z " />
<glyph glyph-name="uni04BB" unicode="&#x4bb;" horiz-adv-x="593" d="L54 714 L196 714 L196 445 L199 445 Q226 490 268 510.5 Q310 531 350 531 Q407 531 443.5 515.5 Q480 500 501 472.5 Q522 445 530.5 405.5 Q539 366 539 318 L539 0 L397 0 L397 292 Q397 356 377 387.5 Q357 419 306 419 Q248 419 222 384.5 Q196 350 196 271 L196 0 L54 0 Z " />
<glyph glyph-name="uni04C0" unicode="&#x4c0;" horiz-adv-x="295" d="L69 714 L226 714 L226 0 L69 0 Z " />
<glyph glyph-name="uni04C1" unicode="&#x4c1;" horiz-adv-x="1061" d="L279 423 L20 714 L205 714 L455 420 L455 714 L606 714 L606 420 L856 714 L1041 714 L782 423 L1067 0 L873 0 L683 312 L606 225 L606 0 L455 0 L455 225 L378 312 L187 0 L-6 0 Z L529 775 Q456 775 411 813 Q366 851 366 929 L422 929 Q429 894 458 876 Q487 858 529 858 Q571 858 600 876 Q629 894 636 929 L692 929 Q692 851 647 813 Z " />
<glyph glyph-name="uni04C2" unicode="&#x4c2;" horiz-adv-x="812" d="L193 318 L15 517 L172 517 L339 311 L339 517 L473 517 L473 311 L640 517 L797 517 L616 315 L817 0 L653 0 L526 215 L473 155 L473 0 L339 0 L339 155 L286 215 L159 0 L-5 0 Z L405 579 Q370 579 341 587 Q312 595 291 612.5 Q270 630 258 657 Q246 684 246 723 L302 723 Q309 688 336 672.5 Q363 657 405 657 Q447 657 474 672.5 Q501 688 508 723 L564 723 Q564 684 552 657 Q540 630 519 612.5 Q498 595 468.5 587 Z " />
<glyph glyph-name="uni04D0" unicode="&#x4d0;" horiz-adv-x="685" d="L264 714 L425 714 L692 0 L529 0 L475 159 L208 159 L152 0 L-6 0 Z L434 276 L344 538 L342 538 L249 276 Z L341 775 Q268 775 223 813 Q178 851 178 929 L234 929 Q241 894 270 876 Q299 858 341 858 Q383 858 412 876 Q441 894 448 929 L504 929 Q504 851 459 813 Z " />
<glyph glyph-name="uni04D1" unicode="&#x4d1;" horiz-adv-x="574" d="L208 -13 Q171 -13 139 -4 Q107 5 83 24 Q59 43 45.5 72 Q32 101 32 141 Q32 185 47.5 213.5 Q63 242 87.5 259 Q112 276 143.5 284.5 Q175 293 207 298 Q239 303 270 306 Q301 309 325 315 Q349 321 363 332.5 Q377 344 376 366 Q376 388 368.5 402 Q361 416 348.5 423.5 Q336 431 319.5 433.5 Q303 436 284 436 Q242 436 218 418 Q194 400 190 358 L48 358 Q51 407 73 440.5 Q95 474 129 494 Q163 514 205 522.5 Q247 531 291 531 Q330 531 370 525.5 Q410 520 443 504 Q476 488 497 459 Q518 430 518 384 L518 115 Q518 80 522 48 Q526 16 536 0 L392 0 Q388 12 385.5 24.5 Q383 37 382 50 Q348 15 302 1 Z L261 81 Q303 81 326 95 Q349 109 360 128.5 Q371 148 373.5 168 Q376 188 376 200 L376 253 Q367 245 354 240.5 Q341 236 325 233 Q309 230 292 228 Q275 226 258 223 Q241 220 226 215 Q211 210 199.5 201.5 Q188 193 181 180 Q174 167 174 147 Q174 127 181 114.5 Q188 102 200 94.5 Q212 87 228 84 Z L286 579 Q251 579 222 587 Q193 595 172 612.5 Q151 630 139 657 Q127 684 127 723 L183 723 Q190 688 217 672.5 Q244 657 286 657 Q328 657 355 672.5 Q382 688 389 723 L445 723 Q445 684 433 657 Q421 630 400 612.5 Q379 595 349.5 587 Z " />
<glyph glyph-name="uni04D2" unicode="&#x4d2;" horiz-adv-x="685" d="L264 714 L425 714 L692 0 L529 0 L475 159 L208 159 L152 0 L-6 0 Z L434 276 L344 538 L342 538 L249 276 Z L306 911 L306 794 L172 794 L172 911 Z L512 911 L512 794 L377 794 L377 911 Z " />
<glyph glyph-name="uni04D3" unicode="&#x4d3;" horiz-adv-x="574" d="L208 -13 Q171 -13 139 -4 Q107 5 83 24 Q59 43 45.5 72 Q32 101 32 141 Q32 185 47.5 213.5 Q63 242 87.5 259 Q112 276 143.5 284.5 Q175 293 207 298 Q239 303 270 306 Q301 309 325 315 Q349 321 363 332.5 Q377 344 376 366 Q376 388 368.5 402 Q361 416 348.5 423.5 Q336 431 319.5 433.5 Q303 436 284 436 Q242 436 218 418 Q194 400 190 358 L48 358 Q51 407 73 440.5 Q95 474 129 494 Q163 514 205 522.5 Q247 531 291 531 Q330 531 370 525.5 Q410 520 443 504 Q476 488 497 459 Q518 430 518 384 L518 115 Q518 80 522 48 Q526 16 536 0 L392 0 Q388 12 385.5 24.5 Q383 37 382 50 Q348 15 302 1 Z L261 81 Q303 81 326 95 Q349 109 360 128.5 Q371 148 373.5 168 Q376 188 376 200 L376 253 Q367 245 354 240.5 Q341 236 325 233 Q309 230 292 228 Q275 226 258 223 Q241 220 226 215 Q211 210 199.5 201.5 Q188 193 181 180 Q174 167 174 147 Q174 127 181 114.5 Q188 102 200 94.5 Q212 87 228 84 Z L251 714 L251 597 L117 597 L117 714 Z L457 714 L457 597 L322 597 L322 714 Z " />
<glyph glyph-name="uni04D4" unicode="&#x4d4;" horiz-adv-x="981" d="L330 714 L936 714 L936 582 L604 582 L604 429 L916 429 L916 307 L604 307 L604 132 L944 132 L944 0 L452 0 L452 159 L228 159 L156 0 L-10 0 Z L452 276 L452 582 L418 582 L280 276 Z " />
<glyph glyph-name="uni04D5" unicode="&#x4d5;" horiz-adv-x="907" d="L231 -13 Q194 -13 159.5 -5.5 Q125 2 98 20 Q71 38 54.5 67 Q38 96 38 140 Q38 184 53 212.5 Q68 241 92.5 258.5 Q117 276 148 284.5 Q179 293 211 298 Q256 305 289 309.5 Q322 314 343.5 321 Q365 328 375 339 Q385 350 385 370 Q385 390 377 403 Q369 416 356 423.5 Q343 431 326.5 433.5 Q310 436 293 436 Q251 436 223.5 418.5 Q196 401 194 356 L52 356 Q54 405 75.5 438.5 Q97 472 130.5 492.5 Q164 513 207.5 522 Q251 531 296 531 Q318 531 342.5 527.5 Q367 524 390 516 Q413 508 433 494.5 Q453 481 467 461 Q497 496 537 513.5 Q577 531 640 531 Q704 531 749.5 505.5 Q795 480 823.5 437.5 Q852 395 865 339.5 Q878 284 878 224 L509 224 Q508 198 516 172.5 Q524 147 540 127 Q556 107 579 94 Q602 81 632 81 Q680 81 704 102.5 Q728 124 735 162 L873 162 Q862 120 839.5 87.5 Q817 55 785.5 32.5 Q754 10 715.5 -1.5 Q677 -13 635 -13 Q579 -13 527 7 Q475 27 442 74 Q424 50 399.5 33.5 Q375 17 347.5 6.5 Q320 -4 290 -8.5 Z L268 81 Q287 81 308 87 Q329 93 346 106 Q363 119 374 139 Q385 159 385 188 L385 252 Q365 235 331 231 Q297 227 263 221 Q229 215 204.5 200 Q180 185 180 148 Q180 128 187.5 115.5 Q195 103 207.5 95 Q220 87 235.5 84 Z L736 314 Q736 338 729 360 Q722 382 707.5 399 Q693 416 672.5 426 Q652 436 625 436 Q598 436 576.5 426 Q555 416 540 399 Q525 382 517 360 Q509 338 509 314 Z " />
<glyph glyph-name="uni04D6" unicode="&#x4d6;" horiz-adv-x="648" d="L69 714 L603 714 L603 582 L226 582 L226 429 L572 429 L572 307 L226 307 L226 132 L611 132 L611 0 L69 0 Z L343 775 Q270 775 225 813 Q180 851 180 929 L236 929 Q243 894 272 876 Q301 858 343 858 Q385 858 414 876 Q443 894 450 929 L506 929 Q506 851 461 813 Z " />
<glyph glyph-name="uni04D7" unicode="&#x4d7;" horiz-adv-x="574" d="L293 -13 Q232 -13 183 6.5 Q134 26 100 62 Q66 98 47.5 148 Q29 198 29 258 Q29 316 48 366 Q67 416 102 452.5 Q137 489 185.5 510 Q234 531 293 531 Q355 531 402.5 508 Q450 485 481.5 446.5 Q513 408 529 357 Q545 306 545 251 Q545 244 545 237.5 Q545 231 544 224 L171 224 Q174 155 206 124 Q238 93 298 93 Q341 93 372 114.5 Q403 136 410 160 L535 160 Q505 67 443 27 Z L402 314 Q392 368 366.5 396 Q341 424 289 424 Q254 424 232 412.5 Q210 401 196.5 384 Q183 367 177.5 348 Q172 329 171 314 Z L286 579 Q251 579 222 587 Q193 595 172 612.5 Q151 630 139 657 Q127 684 127 723 L183 723 Q190 688 217 672.5 Q244 657 286 657 Q328 657 355 672.5 Q382 688 389 723 L445 723 Q445 684 433 657 Q421 630 400 612.5 Q379 595 349.5 587 Z " />
<glyph glyph-name="uni04D8" unicode="&#x4d8;" horiz-adv-x="748" d="L376 -16 Q290 -16 226.5 12.5 Q163 41 121 91 Q79 141 58.5 208.5 Q38 276 38 354 Q38 361 38.5 377 Q39 393 40 400 L553 400 Q542 494 490.5 547.5 Q439 601 363 601 Q303 601 258.5 572.5 Q214 544 200 490 L51 490 Q58 542 84 586 Q110 630 150.5 662.5 Q191 695 244.5 713 Q298 731 360 731 Q442 731 507 702 Q572 673 617 622.5 Q662 572 686 504 Q710 436 710 358 Q710 274 685.5 205 Q661 136 617 87 Q573 38 511.5 11 Z L375 114 Q441 114 486 155 Q531 196 548 278 L202 278 Q207 243 220 213 Q233 183 254.5 161 Q276 139 306 126.5 Z " />
<glyph glyph-name="afii10846" unicode="&#x4d9;" horiz-adv-x="574" d="L281 -13 Q215 -13 166 12.5 Q117 38 85.5 81 Q54 124 40 179 Q26 234 30 294 L403 294 Q400 363 368 394 Q336 425 276 425 Q233 425 202 403.5 Q171 382 164 358 L39 358 Q69 451 131 491 Q193 531 281 531 Q342 531 391 511.5 Q440 492 474 456 Q508 420 526.5 370 Q545 320 545 260 Q545 202 526 152 Q507 102 472 65.5 Q437 29 388.5 8 Z L285 94 Q319 94 341.5 105.5 Q364 117 377.5 134 Q391 151 396.5 170 Q402 189 403 204 L172 204 Q182 150 207.5 122 Z " />
<glyph glyph-name="uni04DC" unicode="&#x4dc;" horiz-adv-x="1061" d="L279 423 L20 714 L205 714 L455 420 L455 714 L606 714 L606 420 L856 714 L1041 714 L782 423 L1067 0 L873 0 L683 312 L606 225 L606 0 L455 0 L455 225 L378 312 L187 0 L-6 0 Z L494 911 L494 794 L360 794 L360 911 Z L700 911 L700 794 L565 794 L565 911 Z " />
<glyph glyph-name="uni04DD" unicode="&#x4dd;" horiz-adv-x="812" d="L193 318 L15 517 L172 517 L339 311 L339 517 L473 517 L473 311 L640 517 L797 517 L616 315 L817 0 L653 0 L526 215 L473 155 L473 0 L339 0 L339 155 L286 215 L159 0 L-5 0 Z L370 714 L370 597 L236 597 L236 714 Z L576 714 L576 597 L441 597 L441 714 Z " />
<glyph glyph-name="uni04DE" unicode="&#x4de;" horiz-adv-x="647" d="L330 -16 Q183 -16 103 51.5 Q23 119 21 240 L176 240 Q177 204 189.5 178 Q202 152 222.5 135.5 Q243 119 270.5 111.5 Q298 104 330 104 Q385 104 419 137.5 Q453 171 453 220 Q453 250 442 269.5 Q431 289 412 300.5 Q393 312 369 316 Q345 320 319 320 L265 320 L265 426 Q274 425 287 425 Q300 425 307 425 Q436 425 436 522 Q436 564 406.5 587 Q377 610 329 610 Q271 610 236.5 582 Q202 554 197 502 L49 502 Q50 562 73 605 Q96 648 134.5 676 Q173 704 223.5 717.5 Q274 731 330 731 Q384 731 430.5 716.5 Q477 702 510.5 676 Q544 650 563.5 613.5 Q583 577 583 532 Q583 478 553 439 Q523 400 475 389 Q503 384 528 370 Q553 356 571 334.5 Q589 313 599.5 284 Q610 255 610 221 Q610 169 588.5 125.5 Q567 82 529.5 50.5 Q492 19 441 1.5 Z L287 911 L287 794 L153 794 L153 911 Z L493 911 L493 794 L358 794 L358 911 Z " />
<glyph glyph-name="uni04DF" unicode="&#x4df;" horiz-adv-x="542" d="L264 -13 Q215 -13 171.5 -3.5 Q128 6 95 28 Q62 50 42.5 84 Q23 118 22 168 L157 168 Q161 126 189.5 104 Q218 82 267 82 Q315 82 337 102 Q359 122 359 151 Q359 183 338.5 203 Q318 223 270 223 L215 223 L215 312 L252 312 Q297 312 323.5 326 Q350 340 350 379 Q350 402 330.5 419.5 Q311 437 269 437 Q226 437 201.5 422.5 Q177 408 171 366 L39 366 Q43 411 63.5 442.5 Q84 474 115.5 493.5 Q147 513 187.5 522 Q228 531 272 531 Q375 531 431.5 497.5 Q488 464 488 392 Q488 369 479.5 349.5 Q471 330 458 315 Q445 300 428 290.5 Q411 281 395 278 L395 276 Q413 274 432.5 267.5 Q452 261 468 246.5 Q484 232 494.5 209.5 Q505 187 505 153 Q505 111 487.5 80 Q470 49 438.5 28 Q407 7 362.5 -3 Z L235 714 L235 597 L101 597 L101 714 Z L441 714 L441 597 L306 597 L306 714 Z " />
<glyph glyph-name="uni04E2" unicode="&#x4e2;" horiz-adv-x="745" d="L69 714 L225 714 L225 219 L228 219 L500 714 L676 714 L676 0 L520 0 L520 496 L517 496 L245 0 L69 0 Z L559 888 L559 813 L187 813 L187 888 Z " />
<glyph glyph-name="uni04E3" unicode="&#x4e3;" horiz-adv-x="600" d="L54 517 L190 517 L190 167 L385 517 L546 517 L546 0 L410 0 L410 350 L215 0 L54 0 Z L486 691 L486 616 L114 616 L114 691 Z " />
<glyph glyph-name="uni04E4" unicode="&#x4e4;" horiz-adv-x="745" d="L69 714 L225 714 L225 219 L228 219 L500 714 L676 714 L676 0 L520 0 L520 496 L517 496 L245 0 L69 0 Z L336 911 L336 794 L202 794 L202 911 Z L542 911 L542 794 L407 794 L407 911 Z " />
<glyph glyph-name="uni04E5" unicode="&#x4e5;" horiz-adv-x="600" d="L54 517 L190 517 L190 167 L385 517 L546 517 L546 0 L410 0 L410 350 L215 0 L54 0 Z L264 714 L264 597 L130 597 L130 714 Z L470 714 L470 597 L335 597 L335 714 Z " />
<glyph glyph-name="uni04E6" unicode="&#x4e6;" horiz-adv-x="778" d="L389 -16 Q306 -16 241 12.5 Q176 41 131 91 Q86 141 62 208.5 Q38 276 38 354 Q38 433 62 502 Q86 571 131 622 Q176 673 241 702 Q306 731 389 731 Q471 731 536.5 702 Q602 673 647 622 Q692 571 716 502 Q740 433 740 354 Q740 276 716 208.5 Q692 141 647 91 Q602 41 536.5 12.5 Z L389 115 Q442 115 479 135.5 Q516 156 539 190 Q562 224 572.5 266.5 Q583 309 583 354 Q583 401 572.5 445 Q562 489 539 523.5 Q516 558 479 578.5 Q442 599 389 599 Q336 599 299 578.5 Q262 558 239 523.5 Q216 489 205.5 445 Q195 401 195 354 Q195 309 205.5 266.5 Q216 224 239 190 Q262 156 299 135.5 Z L353 911 L353 794 L219 794 L219 911 Z L559 911 L559 794 L424 794 L424 911 Z " />
<glyph glyph-name="uni04E7" unicode="&#x4e7;" horiz-adv-x="611" d="L305 -13 Q244 -13 195 6 Q146 25 111 60.5 Q76 96 57 146 Q38 196 38 258 Q38 320 57 370.5 Q76 421 111 456.5 Q146 492 195 511.5 Q244 531 305 531 Q366 531 415.5 511.5 Q465 492 500 456.5 Q535 421 554 370.5 Q573 320 573 258 Q573 196 554 146 Q535 96 500 60.5 Q465 25 415.5 6 Z L305 93 Q341 93 365.5 107 Q390 121 404.5 144.5 Q419 168 425 197.5 Q431 227 431 258 Q431 289 425 319 Q419 349 404.5 372 Q390 395 365.5 409.5 Q341 424 305 424 Q269 424 245 409.5 Q221 395 206.5 372 Q192 349 186 319 Q180 289 180 258 Q180 227 186 197.5 Q192 168 206.5 144.5 Q221 121 245 107 Z L269 714 L269 597 L135 597 L135 714 Z L475 714 L475 597 L340 597 L340 714 Z " />
<glyph glyph-name="uni04E8" unicode="&#x4e8;" horiz-adv-x="778" d="L389 -16 Q306 -16 241 12.5 Q176 41 131 91 Q86 141 62 208.5 Q38 276 38 354 Q38 433 62 502 Q86 571 131 622 Q176 673 241 702 Q306 731 389 731 Q471 731 536.5 702 Q602 673 647 622 Q692 571 716 502 Q740 433 740 354 Q740 276 716 208.5 Q692 141 647 91 Q602 41 536.5 12.5 Z L389 111 Q437 111 471.5 127.5 Q506 144 529.5 171.5 Q553 199 566 235.5 Q579 272 584 311 L193 311 Q197 272 210.5 235.5 Q224 199 248 171.5 Q272 144 306.5 127.5 Z L581 425 Q574 462 559.5 494.5 Q545 527 521.5 551 Q498 575 465 589 Q432 603 389 603 Q345 603 312 589 Q279 575 255.5 551 Q232 527 217.5 494.5 Q203 462 197 425 Z " />
<glyph glyph-name="uni04E9" unicode="&#x4e9;" horiz-adv-x="611" d="L305 -13 Q244 -13 195 6 Q146 25 111 60.5 Q76 96 57 146 Q38 196 38 258 Q38 320 57 370.5 Q76 421 111 456.5 Q146 492 195 511.5 Q244 531 305 531 Q366 531 415.5 511.5 Q465 492 500 456.5 Q535 421 554 370.5 Q573 320 573 258 Q573 196 554 146 Q535 96 500 60.5 Q465 25 415.5 6 Z L305 89 Q337 89 360 99.5 Q383 110 398 128 Q413 146 421.5 170 Q430 194 433 221 L178 221 Q181 194 189.5 170 Q198 146 213 128 Q228 110 250.5 99.5 Z L430 316 Q425 339 415.5 359.5 Q406 380 391 395 Q376 410 355 419 Q334 428 305 428 Q276 428 255 419 Q234 410 219 395 Q204 380 195 359.5 Q186 339 181 316 Z " />
<glyph glyph-name="uni04EE" unicode="&#x4ee;" horiz-adv-x="647" d="L177 -13 Q151 -13 127.5 -8.5 Q104 -4 90 0 L90 127 Q119 119 165 119 Q201 119 219 137.5 Q237 156 237 180 Q237 203 226 227.5 Q215 252 204 274 L-5 714 L168 714 L332 342 L487 714 L654 714 L414 188 Q389 134 365 95.5 Q341 57 313.5 33 Q286 9 253 -2 Z L509 888 L509 813 L137 813 L137 888 Z " />
<glyph glyph-name="uni04EF" unicode="&#x4ef;" horiz-adv-x="519" d="L131 -181 Q109 -181 87.5 -179.5 Q66 -178 44 -176 L44 -59 Q61 -61 79.5 -62.5 Q98 -64 116 -64 Q148 -64 165 -46 Q182 -28 182 0 Q182 17 176 32 L-5 517 L146 517 L263 163 L265 163 L378 517 L525 517 L309 -64 Q286 -127 245 -154 Z L445 691 L445 616 L73 616 L73 691 Z " />
<glyph glyph-name="uni04F0" unicode="&#x4f0;" horiz-adv-x="647" d="L177 -13 Q151 -13 127.5 -8.5 Q104 -4 90 0 L90 127 Q119 119 165 119 Q201 119 219 137.5 Q237 156 237 180 Q237 203 226 227.5 Q215 252 204 274 L-5 714 L168 714 L332 342 L487 714 L654 714 L414 188 Q389 134 365 95.5 Q341 57 313.5 33 Q286 9 253 -2 Z L287 911 L287 794 L153 794 L153 911 Z L493 911 L493 794 L358 794 L358 911 Z " />
<glyph glyph-name="uni04F1" unicode="&#x4f1;" horiz-adv-x="519" d="L131 -181 Q109 -181 87.5 -179.5 Q66 -178 44 -176 L44 -59 Q61 -61 79.5 -62.5 Q98 -64 116 -64 Q148 -64 165 -46 Q182 -28 182 0 Q182 17 176 32 L-5 517 L146 517 L263 163 L265 163 L378 517 L525 517 L309 -64 Q286 -127 245 -154 Z L223 714 L223 597 L89 597 L89 714 Z L429 714 L429 597 L294 597 L294 714 Z " />
<glyph glyph-name="uni04F2" unicode="&#x4f2;" horiz-adv-x="647" d="L177 -13 Q151 -13 127.5 -8.5 Q104 -4 90 0 L90 127 Q119 119 165 119 Q201 119 219 137.5 Q237 156 237 180 Q237 203 226 227.5 Q215 252 204 274 L-5 714 L168 714 L332 342 L487 714 L654 714 L414 188 Q389 134 365 95.5 Q341 57 313.5 33 Q286 9 253 -2 Z L361 778 L452 920 L609 920 L460 778 Z L155 778 L245 920 L402 920 L253 778 Z " />
<glyph glyph-name="uni04F3" unicode="&#x4f3;" horiz-adv-x="519" d="L131 -181 Q109 -181 87.5 -179.5 Q66 -178 44 -176 L44 -59 Q61 -61 79.5 -62.5 Q98 -64 116 -64 Q148 -64 165 -46 Q182 -28 182 0 Q182 17 176 32 L-5 517 L146 517 L263 163 L265 163 L378 517 L525 517 L309 -64 Q286 -127 245 -154 Z L301 581 L392 723 L549 723 L400 581 Z L95 581 L185 723 L342 723 L193 581 Z " />
<glyph glyph-name="uni04F4" unicode="&#x4f4;" horiz-adv-x="675" d="L448 271 Q435 268 415.5 264.5 Q396 261 374.5 258 Q353 255 332 253 Q311 251 295 251 Q235 251 187.5 264 Q140 277 107.5 306.5 Q75 336 57.5 383.5 Q40 431 40 500 L40 714 L196 714 L196 498 Q196 433 221.5 407 Q247 381 307 381 Q323 381 344 383 Q365 385 385 387.5 Q405 390 422 392.5 Q439 395 448 397 L448 714 L605 714 L605 0 L448 0 Z L301 911 L301 794 L167 794 L167 911 Z L507 911 L507 794 L372 794 L372 911 Z " />
<glyph glyph-name="uni04F5" unicode="&#x4f5;" horiz-adv-x="574" d="L378 198 Q368 195 350 191.5 Q332 188 309.5 184 Q287 180 262 177.5 Q237 175 213 175 Q126 175 83 224 Q40 273 40 357 L40 517 L181 517 L181 386 Q181 330 197 307.5 Q213 285 260 285 Q273 285 290 286.5 Q307 288 323.5 290 Q340 292 354.5 295 Q369 298 378 300 L378 517 L520 517 L520 0 L378 0 Z L251 714 L251 597 L117 597 L117 714 Z L457 714 L457 597 L322 597 L322 714 Z " />
<glyph glyph-name="uni04F8" unicode="&#x4f8;" horiz-adv-x="929" d="L69 714 L226 714 L226 456 L374 456 Q428 456 474 442.5 Q520 429 554 401 Q588 373 607.5 330 Q627 287 627 229 Q627 170 608 127 Q589 84 554.5 55.5 Q520 27 472 13.5 Q424 0 366 0 L69 0 Z L354 128 Q411 128 443 151 Q475 174 475 231 Q475 259 466 278.5 Q457 298 440.5 310 Q424 322 401.5 327.5 Q379 333 353 333 L226 333 L226 128 Z L703 714 L860 714 L860 0 L703 0 Z L428 911 L428 794 L294 794 L294 911 Z L634 911 L634 794 L499 794 L499 911 Z " />
<glyph glyph-name="uni04F9" unicode="&#x4f9;" horiz-adv-x="778" d="L54 517 L196 517 L196 339 L333 339 Q372 339 406.5 328.5 Q441 318 466.5 296.5 Q492 275 507 243.5 Q522 212 522 170 Q522 127 507.5 95 Q493 63 466.5 42 Q440 21 404.5 10.5 Q369 0 327 0 L54 0 Z L293 98 Q332 98 355.5 115 Q379 132 379 170 Q379 208 354 225.5 Q329 243 292 243 L196 243 L196 98 Z L583 517 L724 517 L724 0 L583 0 Z L353 714 L353 597 L219 597 L219 714 Z L559 714 L559 597 L424 597 L424 714 Z " />
<glyph glyph-name="afii61352" unicode="&#x2116;" horiz-adv-x="1066" d="L69 700 L219 700 L462 255 L462 700 L603 700 L603 0 L456 0 L211 446 L211 0 L69 0 Z L698 249 L999 249 L999 151 L698 151 Z L843 280 Q768 280 723.5 323.5 Q679 367 679 442 Q679 478 691 508 Q703 538 724.5 559 Q746 580 776.5 591.5 Q807 603 844 603 Q919 603 962.5 559 Q1006 515 1006 442 Q1006 367 962 323.5 Z L843 354 Q872 354 890 375.5 Q908 397 908 442 Q908 487 889.5 508 Q871 529 842 529 Q813 529 795.5 507 Q778 485 778 442 Q778 397 795.5 375.5 Z " />
<glyph glyph-name="Aogonek" unicode="&#x104;" horiz-adv-x="685" d="L558 -217 Q549 -217 531 -215 Q513 -213 495 -204 Q477 -195 464 -177 Q451 -159 451 -127 Q451 -120 453 -108 Q455 -96 466 -79.5 Q477 -63 500 -42 Q521 -22 559 0 L529 0 L475 159 L208 159 L152 0 L-6 0 L264 714 L425 714 L692 0 L626 0 Q581 -41 564 -68 Q547 -97 547 -123 Q547 -138 559 -147.5 Q571 -157 586 -157 Q602 -157 616 -151.5 Q630 -146 644 -127 L692 -149 Q662 -187 627 -202 Z L434 276 L344 538 L342 538 L249 276 Z " />
<glyph glyph-name="aogonek" unicode="&#x105;" horiz-adv-x="574" d="L402 -217 Q393 -217 375 -215 Q357 -213 339 -204 Q321 -195 308 -177 Q295 -159 295 -127 Q295 -120 297 -108 Q299 -96 310 -79.5 Q321 -63 344 -42 Q365 -22 403 0 L392 0 Q388 12 385.5 24.5 Q383 37 382 50 Q348 15 302 1 Q256 -13 208 -13 Q171 -13 139 -4 Q107 5 83 24 Q59 43 45.5 72 Q32 101 32 141 Q32 185 47.5 213.5 Q63 242 87.5 259 Q112 276 143.5 284.5 Q175 293 207 298 Q239 303 270 306 Q301 309 325 315 Q349 321 363 332.5 Q377 344 376 366 Q376 389 368.5 402.5 Q361 416 348.5 423.5 Q336 431 319.5 433.5 Q303 436 284 436 Q242 436 218 418 Q194 400 190 358 L48 358 Q51 408 73 441 Q95 474 129 494 Q163 514 205.5 522.5 Q248 531 291 531 Q330 531 370 525.5 Q410 520 443 504 Q476 488 497 459.5 Q518 431 518 384 L518 115 Q518 80 522 48 Q526 16 536 0 L470 0 Q425 -41 408 -68 Q391 -97 391 -123 Q391 -138 403 -147.5 Q415 -157 430 -157 Q446 -157 460 -151.5 Q474 -146 488 -127 L536 -149 Q506 -187 471 -202 Z L261 81 Q303 81 326 95 Q349 109 360 128.5 Q371 148 373.5 168 Q376 188 376 200 L376 253 Q367 245 353.5 240.5 Q340 236 324.5 233 Q309 230 292 228 Q275 226 258 223 Q242 220 226.5 215 Q211 210 199.5 201.5 Q188 193 181 180 Q174 167 174 147 Q174 128 181 115 Q188 102 200 94.5 Q212 87 228 84 Z " />
<glyph glyph-name="Cacute" unicode="&#x106;" horiz-adv-x="741" d="L545 474 Q541 501 527 523.5 Q513 546 492 563 Q471 580 444.5 589.5 Q418 599 389 599 Q336 599 299 578.5 Q262 558 239 523.5 Q216 489 205.5 445 Q195 401 195 354 Q195 309 205.5 266.5 Q216 224 239 190 Q262 156 299 135.5 Q336 115 389 115 Q461 115 501.5 159 Q542 203 551 275 L703 275 Q697 208 672 154 Q647 100 606 62 Q565 24 510 4 Q455 -16 389 -16 Q307 -16 241.5 12.5 Q176 41 131 91 Q86 141 62 208.5 Q38 276 38 354 Q38 434 62 502.5 Q86 571 131 622 Q176 673 241.5 702 Q307 731 389 731 Q448 731 500.5 714 Q553 697 594.5 664.5 Q636 632 663 584 Q690 536 697 474 L545 474 Z L304 778 L400 920 L557 920 L403 778 Z " />
<glyph glyph-name="cacute" unicode="&#x107;" horiz-adv-x="574" d="L406 335 Q392 424 301 424 Q267 424 244 408.5 Q221 393 206.5 368.5 Q192 344 186 314.5 Q180 285 180 256 Q180 228 186 199 Q192 170 205.5 146.5 Q219 123 242 108 Q265 93 298 93 Q349 93 376.5 121.5 Q404 150 411 198 L548 198 Q534 95 468 41 Q402 -13 299 -13 Q241 -13 192.5 6.5 Q144 26 110 61 Q76 96 57 144.5 Q38 193 38 251 Q38 311 55.5 362.5 Q73 414 107 451.5 Q141 489 190 510 Q239 531 302 531 Q348 531 390.5 519 Q433 507 466.5 482.5 Q500 458 521 421.5 Q542 385 545 335 L406 335 Z L220 581 L316 723 L473 723 L319 581 Z " />
<glyph glyph-name="Eogonek" unicode="&#x118;" horiz-adv-x="648" d="L477 -217 Q468 -217 450 -215 Q432 -213 414 -204 Q396 -195 383 -177 Q370 -159 370 -127 Q370 -120 372 -108 Q374 -96 385 -79.5 Q396 -63 419 -42 Q440 -22 478 0 L69 0 L69 714 L603 714 L603 582 L226 582 L226 429 L572 429 L572 307 L226 307 L226 132 L611 132 L611 0 L545 0 Q500 -41 483 -68 Q466 -97 466 -123 Q466 -138 478 -147.5 Q490 -157 505 -157 Q521 -157 535 -151.5 Q549 -146 563 -127 L611 -149 Q581 -187 546 -202 Z " />
<glyph glyph-name="eogonek" unicode="&#x119;" horiz-adv-x="574" d="L277 -217 Q268 -217 250 -215 Q232 -213 214 -204 Q196 -195 183 -177 Q170 -159 170 -127 Q170 -120 172 -108 Q174 -96 185 -79.5 Q196 -63 219 -42 Q235 -27 259 -11 Q218 -7 183 6 Q134 26 100 62 Q66 98 47.5 148 Q29 198 29 258 Q29 316 48 366 Q67 416 102 452.5 Q137 489 185.5 510 Q234 531 293 531 Q359 531 408 505.5 Q457 480 488.5 437 Q520 394 534 339 Q548 284 544 224 L171 224 Q174 155 206 124 Q238 93 298 93 Q341 93 372 114.5 Q403 136 410 160 L535 160 Q505 67 443 27 Q396 -3 334 -10 Q298 -44 283 -68 Q266 -97 266 -123 Q266 -138 278 -147.5 Q290 -157 305 -157 Q321 -157 335 -151.5 Q349 -146 363 -127 L411 -149 Q381 -187 346 -202 Z L402 314 Q392 368 366.5 396 Q341 424 289 424 Q255 424 232.5 412.5 Q210 401 196.5 384 Q183 367 177.5 348 Q172 329 171 314 Z " />
<glyph glyph-name="Nacute" unicode="&#x143;" horiz-adv-x="741" d="L225 714 L523 235 L525 235 L525 714 L672 714 L672 0 L515 0 L218 478 L216 478 L216 0 L69 0 L69 714 Z L304 778 L400 920 L557 920 L403 778 Z " />
<glyph glyph-name="nacute" unicode="&#x144;" horiz-adv-x="593" d="L189 517 L189 445 L192 445 Q219 490 262 510.5 Q305 531 350 531 Q407 531 443.5 515.5 Q480 500 501 472.5 Q522 445 530.5 405.5 Q539 366 539 318 L539 0 L397 0 L397 292 Q397 356 377 387.5 Q357 419 306 419 Q248 419 222 384.5 Q196 350 196 271 L196 0 L54 0 L54 517 Z L210 581 L306 723 L463 723 L309 581 Z " />
<glyph glyph-name="Sacute" unicode="&#x15a;" horiz-adv-x="649" d="L176 237 Q176 201 189 176 Q202 151 223.5 135.5 Q245 120 274 112.5 Q303 105 334 105 Q355 105 379 108.5 Q403 112 424 122 Q445 132 459 149.5 Q473 167 473 194 Q473 223 454.5 241 Q436 259 406 271 Q376 283 338 292 Q300 301 261 312 Q221 322 183 336.5 Q145 351 115 374 Q85 397 66.5 431.5 Q48 466 48 515 Q48 570 71.5 610.5 Q95 651 133 678 Q171 705 219 718 Q267 731 315 731 Q371 731 422.5 718.5 Q474 706 514 678 Q554 650 577.5 606.5 Q601 563 601 501 L449 501 Q447 533 435.5 554 Q424 575 405 587 Q386 599 361.5 604 Q337 609 308 609 Q289 609 270 605 Q251 601 235.5 591 Q220 581 210 566 Q200 551 200 528 Q200 507 208 494 Q216 481 239.5 470 Q263 459 304.5 448 Q346 437 413 420 Q433 416 468.5 405.5 Q504 395 539 372 Q574 349 599.5 310.5 Q625 272 625 212 Q625 163 606 121 Q587 79 549.5 48.5 Q512 18 456.5 1 Q401 -16 328 -16 Q269 -16 213.5 -1.5 Q158 13 115.5 44 Q73 75 48 123 Q23 171 24 237 L176 237 Z L248 778 L344 920 L501 920 L347 778 Z " />
<glyph glyph-name="sacute" unicode="&#x15b;" horiz-adv-x="537" d="L164 168 Q164 145 173.5 128.5 Q183 112 198 101.5 Q213 91 232.5 86 Q252 81 273 81 Q288 81 304.5 84.5 Q321 88 334.5 95.5 Q348 103 357 115.5 Q366 128 366 147 Q366 179 323.5 195 Q281 211 205 227 Q174 234 144.5 243.5 Q115 253 92 268.5 Q69 284 55 307.5 Q41 331 41 365 Q41 415 60.5 447 Q80 479 112 497.5 Q144 516 184 523.5 Q224 531 266 531 Q308 531 347.5 523 Q387 515 418 496 Q449 477 469.5 445.5 Q490 414 494 366 L359 366 Q356 407 328 421.5 Q300 436 262 436 Q250 436 236 434.5 Q222 433 210.5 428 Q199 423 191 413.5 Q183 404 183 388 Q183 369 197 357 Q211 345 233.5 337.5 Q256 330 285 324 Q314 318 344 311 Q375 304 404.5 294 Q434 284 457 267.5 Q480 251 494 226.5 Q508 202 508 166 Q508 115 487.5 80.5 Q467 46 434 25 Q401 4 358.5 -4.5 Q316 -13 272 -13 Q227 -13 184 -4 Q141 5 107.5 26 Q74 47 52.5 81.5 Q31 116 29 168 L164 168 Z L202 581 L298 723 L455 723 L301 581 Z " />
<glyph glyph-name="Zacute" unicode="&#x179;" horiz-adv-x="648" d="L406 582 L53 582 L53 714 L615 714 L615 590 L232 132 L625 132 L625 0 L23 0 L23 124 Z L247 778 L343 920 L500 920 L346 778 Z " />
<glyph glyph-name="zacute" unicode="&#x17a;" horiz-adv-x="519" d="L291 410 L42 410 L42 517 L478 517 L478 410 L209 107 L497 107 L497 0 L22 0 L22 107 Z L183 581 L279 723 L436 723 L282 581 Z " />
<glyph glyph-name="Zdotaccent" unicode="&#x17b;" horiz-adv-x="648" d="L406 582 L53 582 L53 714 L615 714 L615 590 L232 132 L625 132 L625 0 L23 0 L23 124 Z L391 911 L391 794 L256 794 L256 911 Z " />
<glyph glyph-name="zdotaccent" unicode="&#x17c;" horiz-adv-x="519" d="L291 410 L42 410 L42 517 L478 517 L478 410 L209 107 L497 107 L497 0 L22 0 L22 107 Z L327 714 L327 597 L192 597 L192 714 Z " />
<glyph glyph-name="uni0100" unicode="&#x100;" horiz-adv-x="685" d="L264 714 L425 714 L692 0 L529 0 L475 159 L208 159 L152 0 L-7 0 Z L434 276 L344 538 L342 538 L249 276 Z L167 884 L520 884 L520 809 L167 809 Z " />
<glyph glyph-name="uni0102" unicode="&#x102;" horiz-adv-x="685" d="L264 714 L425 714 L692 0 L529 0 L475 159 L208 159 L152 0 L-7 0 Z L434 276 L344 538 L342 538 L249 276 Z L242 921 Q245 902 255 889.5 Q265 877 279.5 869 Q294 861 310 857.5 Q326 854 341 854 Q386 854 414 870 Q442 886 451 921 L514 921 Q504 846 457.5 812.5 Q411 779 336 779 Q264 779 223.5 815.5 Q183 852 177 921 Z " />
<glyph glyph-name="uni01FA" unicode="&#x1fa;" horiz-adv-x="685" d="L382 858 L283 858 L360 973 L507 973 Z L447 739 Q447 709 431 685 L692 0 L529 0 L475 159 L208 159 L152 0 L-7 0 L257 683 Q240 706 240 739 Q240 781 269 809 Q298 837 344 837 Q391 837 419 809 Z L293 739 Q293 716 307 701 Q321 686 344 686 Q367 686 380.5 701 Q394 716 394 739 Q394 761 380.5 776.5 Q367 792 344 792 Q321 792 307 777 Z L249 276 L434 276 L344 548 L342 548 Z " />
<glyph glyph-name="uni01FC" unicode="&#x1fc;" horiz-adv-x="981" d="L623 779 L524 779 L620 921 L777 921 Z L330 714 L936 714 L936 582 L604 582 L604 429 L916 429 L916 307 L604 307 L604 132 L944 132 L944 0 L452 0 L452 159 L228 159 L156 0 L-11 0 Z L280 276 L452 276 L452 582 L418 582 Z " />
<glyph glyph-name="uni0108" unicode="&#x108;" horiz-adv-x="741" d="L38 354 Q38 433 62 502 Q86 571 131 622 Q176 673 241 702 Q306 731 389 731 Q447 731 500 714 Q553 697 594.5 664.5 Q636 632 663 584 Q690 536 697 474 L545 474 Q541 501 527 523.5 Q513 546 492 563 Q471 580 444.5 589.5 Q418 599 389 599 Q336 599 299 578.5 Q262 558 239 523.5 Q216 489 205.5 445 Q195 401 195 354 Q195 309 205.5 266.5 Q216 224 239 190 Q262 156 299 135.5 Q336 115 389 115 Q461 115 501.5 159 Q542 203 551 275 L703 275 Q697 208 672 154 Q647 100 606 62 Q565 24 510 3.5 Q455 -17 389 -17 Q306 -17 241 12 Q176 41 131 91 Q86 141 62 209 Z L321 921 L451 921 L561 779 L446 779 L384 860 L320 779 L210 779 Z " />
<glyph glyph-name="uni010C" unicode="&#x10c;" horiz-adv-x="741" d="L38 354 Q38 433 62 502 Q86 571 131 622 Q176 673 241 702 Q306 731 389 731 Q447 731 500 714 Q553 697 594.5 664.5 Q636 632 663 584 Q690 536 697 474 L545 474 Q541 501 527 523.5 Q513 546 492 563 Q471 580 444.5 589.5 Q418 599 389 599 Q336 599 299 578.5 Q262 558 239 523.5 Q216 489 205.5 445 Q195 401 195 354 Q195 309 205.5 266.5 Q216 224 239 190 Q262 156 299 135.5 Q336 115 389 115 Q461 115 501.5 159 Q542 203 551 275 L703 275 Q697 208 672 154 Q647 100 606 62 Q565 24 510 3.5 Q455 -17 389 -17 Q306 -17 241 12 Q176 41 131 91 Q86 141 62 209 Z L448 779 L318 779 L208 921 L323 921 L385 840 L449 921 L559 921 Z " />
<glyph glyph-name="uni010A" unicode="&#x10a;" horiz-adv-x="741" d="L38 354 Q38 433 62 502 Q86 571 131 622 Q176 673 241 702 Q306 731 389 731 Q447 731 500 714 Q553 697 594.5 664.5 Q636 632 663 584 Q690 536 697 474 L545 474 Q541 501 527 523.5 Q513 546 492 563 Q471 580 444.5 589.5 Q418 599 389 599 Q336 599 299 578.5 Q262 558 239 523.5 Q216 489 205.5 445 Q195 401 195 354 Q195 309 205.5 266.5 Q216 224 239 190 Q262 156 299 135.5 Q336 115 389 115 Q461 115 501.5 159 Q542 203 551 275 L703 275 Q697 208 672 154 Q647 100 606 62 Q565 24 510 3.5 Q455 -17 389 -17 Q306 -17 241 12 Q176 41 131 91 Q86 141 62 209 Z L316 905 L451 905 L451 788 L316 788 Z " />
<glyph glyph-name="uni010E" unicode="&#x10e;" horiz-adv-x="741" d="L69 714 L377 714 Q446 714 505.5 692 Q565 670 608.5 626 Q652 582 676.5 515.5 Q701 449 701 361 Q701 283 681 217 Q661 151 620.5 103 Q580 55 519.5 27.5 Q459 0 377 0 L69 0 Z L366 132 Q400 132 432 143 Q464 154 489 179.5 Q514 205 529 246 Q544 287 544 346 Q544 400 533.5 443.5 Q523 487 499 518 Q475 549 435.5 565.5 Q396 582 338 582 L226 582 L226 132 Z L397 779 L267 779 L157 921 L272 921 L334 840 L398 921 L508 921 Z " />
<glyph glyph-name="uni0110" unicode="&#x110;" horiz-adv-x="741" d="L69 320 L-4 320 L-4 418 L69 418 L69 714 L377 714 Q446 714 505.5 692 Q565 670 608.5 626 Q652 582 676.5 515.5 Q701 449 701 361 Q701 283 681 217 Q661 151 620.5 103 Q580 55 519.5 27.5 Q459 0 377 0 L69 0 Z L226 418 L386 418 L386 319 L226 319 L226 132 L366 132 Q400 132 432 143 Q464 154 489 179.5 Q514 205 529 246 Q544 287 544 346 Q544 400 533.5 443.5 Q523 487 499 518 Q475 549 435.5 565.5 Q396 582 338 582 L226 582 Z " />
<glyph glyph-name="uni011A" unicode="&#x11a;" horiz-adv-x="648" d="L69 714 L603 714 L603 582 L226 582 L226 429 L572 429 L572 307 L226 307 L226 132 L611 132 L611 0 L69 0 Z L397 779 L267 779 L157 921 L272 921 L334 840 L398 921 L508 921 Z " />
<glyph glyph-name="uni0112" unicode="&#x112;" horiz-adv-x="648" d="L69 714 L603 714 L603 582 L226 582 L226 429 L572 429 L572 307 L226 307 L226 132 L611 132 L611 0 L69 0 Z L155 884 L508 884 L508 809 L155 809 Z " />
<glyph glyph-name="uni0114" unicode="&#x114;" horiz-adv-x="648" d="L69 714 L603 714 L603 582 L226 582 L226 429 L572 429 L572 307 L226 307 L226 132 L611 132 L611 0 L69 0 Z L230 921 Q233 902 243 889.5 Q253 877 267.5 869 Q282 861 298 857.5 Q314 854 329 854 Q374 854 402 870 Q430 886 439 921 L502 921 Q492 846 445.5 812.5 Q399 779 324 779 Q252 779 211.5 815.5 Q171 852 165 921 Z " />
<glyph glyph-name="uni0116" unicode="&#x116;" horiz-adv-x="648" d="L69 714 L603 714 L603 582 L226 582 L226 429 L572 429 L572 307 L226 307 L226 132 L611 132 L611 0 L69 0 Z L263 905 L398 905 L398 788 L263 788 Z " />
<glyph glyph-name="uni011C" unicode="&#x11c;" horiz-adv-x="759" d="L38 354 Q38 433 62 502 Q86 571 131 622 Q176 673 241 702 Q306 731 389 731 Q444 731 495.5 714.5 Q547 698 588 666 Q629 634 656.5 587 Q684 540 690 479 L540 479 Q526 539 486 569 Q446 599 389 599 Q336 599 299 578.5 Q262 558 239 523.5 Q216 489 205.5 445 Q195 401 195 354 Q195 309 205.5 266.5 Q216 224 239 190 Q262 156 299 135.5 Q336 115 389 115 Q467 115 509.5 154.5 Q552 194 559 269 L401 269 L401 386 L701 386 L701 0 L601 0 L585 81 Q543 27 492 5 Q441 -17 389 -17 Q306 -17 241 12 Q176 41 131 91 Q86 141 62 209 Z L321 921 L451 921 L561 779 L446 779 L384 860 L320 779 L210 779 Z " />
<glyph glyph-name="uni011E" unicode="&#x11e;" horiz-adv-x="759" d="L38 354 Q38 433 62 502 Q86 571 131 622 Q176 673 241 702 Q306 731 389 731 Q444 731 495.5 714.5 Q547 698 588 666 Q629 634 656.5 587 Q684 540 690 479 L540 479 Q526 539 486 569 Q446 599 389 599 Q336 599 299 578.5 Q262 558 239 523.5 Q216 489 205.5 445 Q195 401 195 354 Q195 309 205.5 266.5 Q216 224 239 190 Q262 156 299 135.5 Q336 115 389 115 Q467 115 509.5 154.5 Q552 194 559 269 L401 269 L401 386 L701 386 L701 0 L601 0 L585 81 Q543 27 492 5 Q441 -17 389 -17 Q306 -17 241 12 Q176 41 131 91 Q86 141 62 209 Z L283 921 Q286 902 296 889.5 Q306 877 320.5 869 Q335 861 351 857.5 Q367 854 382 854 Q427 854 455 870 Q483 886 492 921 L555 921 Q545 846 498.5 812.5 Q452 779 377 779 Q305 779 264.5 815.5 Q224 852 218 921 Z " />
<glyph glyph-name="uni0120" unicode="&#x120;" horiz-adv-x="759" d="L38 354 Q38 433 62 502 Q86 571 131 622 Q176 673 241 702 Q306 731 389 731 Q444 731 495.5 714.5 Q547 698 588 666 Q629 634 656.5 587 Q684 540 690 479 L540 479 Q526 539 486 569 Q446 599 389 599 Q336 599 299 578.5 Q262 558 239 523.5 Q216 489 205.5 445 Q195 401 195 354 Q195 309 205.5 266.5 Q216 224 239 190 Q262 156 299 135.5 Q336 115 389 115 Q467 115 509.5 154.5 Q552 194 559 269 L401 269 L401 386 L701 386 L701 0 L601 0 L585 81 Q543 27 492 5 Q441 -17 389 -17 Q306 -17 241 12 Q176 41 131 91 Q86 141 62 209 Z L316 905 L451 905 L451 788 L316 788 Z " />
<glyph glyph-name="uni0122" unicode="&#x122;" horiz-adv-x="759" d="L38 354 Q38 433 62 502 Q86 571 131 622 Q176 673 241 702 Q306 731 389 731 Q444 731 495.5 714.5 Q547 698 588 666 Q629 634 656.5 587 Q684 540 690 479 L540 479 Q526 539 486 569 Q446 599 389 599 Q336 599 299 578.5 Q262 558 239 523.5 Q216 489 205.5 445 Q195 401 195 354 Q195 309 205.5 266.5 Q216 224 239 190 Q262 156 299 135.5 Q336 115 389 115 Q467 115 509.5 154.5 Q552 194 559 269 L401 269 L401 386 L701 386 L701 0 L601 0 L585 81 Q543 27 492 5 Q441 -17 389 -17 Q306 -17 241 12 Q176 41 131 91 Q86 141 62 209 Z L307 -50 L452 -50 L452 -123 Q452 -155 441.5 -173.5 Q431 -192 413 -201.5 Q395 -211 370 -214 Q345 -217 317 -217 L317 -180 Q341 -178 355 -170 Q369 -162 374 -143 L307 -143 Z " />
<glyph glyph-name="uni0124" unicode="&#x124;" horiz-adv-x="741" d="L69 714 L226 714 L226 440 L515 440 L515 714 L672 714 L672 0 L515 0 L515 308 L226 308 L226 0 L69 0 Z L306 921 L436 921 L546 779 L431 779 L369 860 L305 779 L195 779 Z " />
</font>
</svg>
